  0
SECTION
  2
HEADER
  9
$ACADVER
  1
AC1009
  9
$DWGCODEPAGE
  3
mac-roman
  9
$INSBASE
 10
0.0
 20
0.0
 30
0.0
  9
$EXTMIN
 10
592.0981558896038
 20
0.0006150967041241
 30
0.0
  9
$EXTMAX
 10
925.8354119415748
 20
311.3931412851639
 30
0.0
  9
$LIMMIN
 10
0.0
 20
0.0
  9
$LIMMAX
 10
12.0
 20
9.0
  9
$ORTHOMODE
 70
     0
  9
$REGENMODE
 70
     1
  9
$FILLMODE
 70
     1
  9
$QTEXTMODE
 70
     0
  9
$MIRRTEXT
 70
     1
  9
$DRAGMODE
 70
     2
  9
$LTSCALE
 40
1.0
  9
$OSMODE
 70
    37
  9
$ATTMODE
 70
     1
  9
$TEXTSIZE
 40
0.2
  9
$TRACEWID
 40
0.05
  9
$TEXTSTYLE
  7
STANDARD
  9
$CLAYER
  8
FAB$CUT
  9
$CELTYPE
  6
BYLAYER
  9
$CECOLOR
 62
   256
  9
$DIMSCALE
 40
1.0
  9
$DIMASZ
 40
0.18
  9
$DIMEXO
 40
0.0625
  9
$DIMDLI
 40
0.38
  9
$DIMRND
 40
0.0
  9
$DIMDLE
 40
0.0
  9
$DIMEXE
 40
0.18
  9
$DIMTP
 40
0.0
  9
$DIMTM
 40
0.0
  9
$DIMTXT
 40
0.18
  9
$DIMCEN
 40
0.09
  9
$DIMTSZ
 40
0.0
  9
$DIMTOL
 70
     0
  9
$DIMLIM
 70
     0
  9
$DIMTIH
 70
     1
  9
$DIMTOH
 70
     1
  9
$DIMSE1
 70
     0
  9
$DIMSE2
 70
     0
  9
$DIMTAD
 70
     0
  9
$DIMZIN
 70
     0
  9
$DIMBLK
  1

  9
$DIMASO
 70
     1
  9
$DIMSHO
 70
     1
  9
$DIMPOST
  1

  9
$DIMAPOST
  1

  9
$DIMALT
 70
     0
  9
$DIMALTD
 70
     2
  9
$DIMALTF
 40
25.4
  9
$DIMLFAC
 40
1.0
  9
$DIMTOFL
 70
     0
  9
$DIMTVP
 40
0.0
  9
$DIMTIX
 70
     0
  9
$DIMSOXD
 70
     0
  9
$DIMSAH
 70
     0
  9
$DIMBLK1
  1

  9
$DIMBLK2
  1

  9
$DIMSTYLE
  2
STANDARD
  9
$DIMCLRD
 70
     0
  9
$DIMCLRE
 70
     0
  9
$DIMCLRT
 70
     0
  9
$DIMTFAC
 40
1.0
  9
$DIMGAP
 40
0.09
  9
$LUNITS
 70
     2
  9
$LUPREC
 70
     3
  9
$SKETCHINC
 40
0.1
  9
$FILLETRAD
 40
0.5
  9
$AUNITS
 70
     0
  9
$AUPREC
 70
     0
  9
$MENU
  1
.
  9
$ELEVATION
 40
0.0
  9
$PELEVATION
 40
0.0
  9
$THICKNESS
 40
0.0
  9
$LIMCHECK
 70
     0
  9
$CHAMFERA
 40
0.0
  9
$CHAMFERB
 40
0.0
  9
$SKPOLY
 70
     0
  9
$TDCREATE
 40
2457751.783449074
  9
$TDUPDATE
 40
2457751.783564815
  9
$TDINDWG
 40
0.0000000116
  9
$TDUSRTIMER
 40
0.0000000116
  9
$USRTIMER
 70
     1
  9
$ANGBASE
 50
0.0
  9
$ANGDIR
 70
     0
  9
$PDMODE
 70
     0
  9
$PDSIZE
 40
0.0
  9
$PLINEWID
 40
0.0
  9
$COORDS
 70
     1
  9
$SPLFRAME
 70
     0
  9
$SPLINETYPE
 70
     6
  9
$SPLINESEGS
 70
     8
  9
$ATTDIA
 70
     0
  9
$ATTREQ
 70
     1
  9
$HANDLING
 70
     1
  9
$HANDSEED
  5
648
  9
$SURFTAB1
 70
     6
  9
$SURFTAB2
 70
     6
  9
$SURFTYPE
 70
     6
  9
$SURFU
 70
     6
  9
$SURFV
 70
     6
  9
$UCSNAME
  2

  9
$UCSORG
 10
0.0
 20
0.0
 30
0.0
  9
$UCSXDIR
 10
1.0
 20
0.0
 30
0.0
  9
$UCSYDIR
 10
0.0
 20
1.0
 30
0.0
  9
$PUCSNAME
  2

  9
$PUCSORG
 10
0.0
 20
0.0
 30
0.0
  9
$PUCSXDIR
 10
1.0
 20
0.0
 30
0.0
  9
$PUCSYDIR
 10
0.0
 20
1.0
 30
0.0
  9
$USERI1
 70
     0
  9
$USERI2
 70
     0
  9
$USERI3
 70
     0
  9
$USERI4
 70
     0
  9
$USERI5
 70
     0
  9
$USERR1
 40
0.0
  9
$USERR2
 40
0.0
  9
$USERR3
 40
0.0
  9
$USERR4
 40
0.0
  9
$USERR5
 40
0.0
  9
$WORLDVIEW
 70
     1
  9
$SHADEDGE
 70
     3
  9
$SHADEDIF
 70
    70
  9
$TILEMODE
 70
     1
  9
$MAXACTVP
 70
    64
  9
$PLIMCHECK
 70
     0
  9
$PEXTMIN
 10
1.000000000000000E+20
 20
1.000000000000000E+20
 30
1.000000000000000E+20
  9
$PEXTMAX
 10
-1.000000000000000E+20
 20
-1.000000000000000E+20
 30
-1.000000000000000E+20
  9
$PLIMMIN
 10
0.0
 20
0.0
  9
$PLIMMAX
 10
12.0
 20
9.0
  9
$UNITMODE
 70
     0
  9
$VISRETAIN
 70
     1
  9
$PLINEGEN
 70
     0
  9
$PSLTSCALE
 70
     1
  0
ENDSEC
  0
SECTION
  2
TABLES
  0
TABLE
  2
VPORT
 70
     1
  0
VPORT
  2
*ACTIVE
 70
     0
 10
0.0
 20
0.0
 11
1.0
 21
1.0
 12
758.9667839155893
 22
155.696878190934
 13
0.0
 23
0.0
 14
0.5
 24
0.5
 15
0.5
 25
0.5
 16
0.0
 26
0.0
 36
1.0
 17
0.0
 27
0.0
 37
0.0
 40
317.620376712229
 41
1.071757437909694
 42
50.0
 43
0.0
 44
0.0
 50
0.0
 51
0.0
 71
     0
 72
   100
 73
     1
 74
     3
 75
     0
 76
     0
 77
     0
 78
     0
  0
ENDTAB
  0
TABLE
  2
LTYPE
 70
     1
  0
LTYPE
  2
CONTINUOUS
 70
     0
  3
Solid line
 72
    65
 73
     0
 40
0.0
  0
ENDTAB
  0
TABLE
  2
LAYER
 70
     3
  0
LAYER
  2
0
 70
     0
 62
     7
  6
CONTINUOUS
  0
LAYER
  2
FAB$CUT
 70
     0
 62
     1
  6
CONTINUOUS
  0
LAYER
  2
FAB$ENGRAVE
 70
     0
 62
     5
  6
CONTINUOUS
  0
ENDTAB
  0
TABLE
  2
STYLE
 70
     1
  0
STYLE
  2
STANDARD
 70
     0
 40
0.0
 41
1.0
 50
0.0
 71
     0
 42
0.2
  3
txt
  4

  0
ENDTAB
  0
TABLE
  2
VIEW
 70
     0
  0
ENDTAB
  0
TABLE
  2
UCS
 70
     0
  0
ENDTAB
  0
TABLE
  2
APPID
 70
     1
  0
APPID
  2
ACAD
 70
     0
  0
ENDTAB
  0
TABLE
  2
DIMSTYLE
 70
     1
  0
DIMSTYLE
  2
STANDARD
 70
     0
  3

  4

  5

  6

  7

 40
1.0
 41
0.18
 42
0.0625
 43
0.38
 44
0.18
 45
0.0
 46
0.0
 47
0.0
 48
0.0
140
0.18
141
0.09
142
0.0
143
25.4
144
1.0
145
0.0
146
1.0
147
0.09
 71
     0
 72
     0
 73
     1
 74
     1
 75
     0
 76
     0
 77
     0
 78
     0
170
     0
171
     2
172
     0
173
     0
174
     0
175
     0
176
     0
177
     0
178
     0
  0
ENDTAB
  0
ENDSEC
  0
SECTION
  2
BLOCKS
  0
BLOCK
  8
0
  2
$MODEL_SPACE
 70
     0
 10
0.0
 20
0.0
 30
0.0
  3
$MODEL_SPACE
  1

  0
ENDBLK
  5
21
  8
0
  0
BLOCK
 67
     1
  8
0
  2
$PAPER_SPACE
 70
     0
 10
0.0
 20
0.0
 30
0.0
  3
$PAPER_SPACE
  1

  0
ENDBLK
  5
1D
 67
     1
  8
0
  0
ENDSEC
  0
SECTION
  2
ENTITIES
  0
POLYLINE
  5
6F
  8
FAB$CUT
 66
     1
 10
0.0
 20
0.0
 30
0.0
 70
     1
  0
VERTEX
  5
70
  8
FAB$CUT
 10
708.3013650047092
 20
283.5758013700074
 30
0.0
 42
0.1205318366575978
  0
VERTEX
  5
71
  8
FAB$CUT
 10
706.514788027995
 20
274.224909449133
 30
0.0
  0
VERTEX
  5
72
  8
FAB$CUT
 10
706.5169370030152
 20
274.0839652062466
 30
0.0
  0
VERTEX
  5
73
  8
FAB$CUT
 10
706.5234602714495
 20
273.941824898789
 30
0.0
  0
VERTEX
  5
74
  8
FAB$CUT
 10
706.5344696443551
 20
273.7985816290102
 30
0.0
  0
VERTEX
  5
75
  8
FAB$CUT
 10
706.550072934366
 20
273.6543337684826
 30
0.0
  0
VERTEX
  5
76
  8
FAB$CUT
 10
706.5703734576109
 20
273.5091848964353
 30
0.0
  0
VERTEX
  5
77
  8
FAB$CUT
 10
706.5954695298533
 20
273.363243711349
 30
0.0
  0
VERTEX
  5
78
  8
FAB$CUT
 10
706.6254539596999
 20
273.2166239147495
 30
0.0
  0
VERTEX
  5
79
  8
FAB$CUT
 10
706.6604135419677
 20
273.0694440663158
 30
0.0
  0
VERTEX
  5
7A
  8
FAB$CUT
 10
706.7004285544886
 20
272.9218274095974
 30
0.0
  0
VERTEX
  5
7B
  8
FAB$CUT
 10
706.7455722618204
 20
272.773901667852
 30
0.0
  0
VERTEX
  5
7C
  8
FAB$CUT
 10
706.7959104294814
 20
272.6257988097398
 30
0.0
  0
VERTEX
  5
7D
  8
FAB$CUT
 10
706.851500852462
 20
272.4776547848648
 30
0.0
  0
VERTEX
  5
7E
  8
FAB$CUT
 10
706.912392901846
 20
272.3296092294156
 30
0.0
  0
VERTEX
  5
7F
  8
FAB$CUT
 10
706.978627093441
 20
272.1818051424409
 30
0.0
  0
VERTEX
  5
80
  8
FAB$CUT
 10
707.0502346823156
 20
272.0343885335861
 30
0.0
  0
VERTEX
  5
81
  8
FAB$CUT
 10
707.1272372871222
 20
271.887508043415
 30
0.0
  0
VERTEX
  5
82
  8
FAB$CUT
 10
707.2096465479946
 20
271.7413145377467
 30
0.0
  0
VERTEX
  5
83
  8
FAB$CUT
 10
707.2974638216863
 20
271.5959606777367
 30
0.0
  0
VERTEX
  5
84
  8
FAB$CUT
 10
707.3906799174389
 20
271.4516004677335
 30
0.0
  0
VERTEX
  5
85
  8
FAB$CUT
 10
707.4892748768409
 20
271.3083887832274
 30
0.0
  0
VERTEX
  5
86
  8
FAB$CUT
 10
707.5932178006601
 20
271.1664808814832
 30
0.0
  0
VERTEX
  5
87
  8
FAB$CUT
 10
707.7024667253145
 20
271.0260318977063
 30
0.0
  0
VERTEX
  5
88
  8
FAB$CUT
 10
707.8169685512723
 20
270.8871963298199
 30
0.0
  0
VERTEX
  5
89
  8
FAB$CUT
 10
707.9366590252675
 20
270.7501275151373
 30
0.0
  0
VERTEX
  5
8A
  8
FAB$CUT
 10
708.0614627777671
 20
270.6149771023846
 30
0.0
  0
VERTEX
  5
8B
  8
FAB$CUT
 10
708.1912934166573
 20
270.4818945226632
 30
0.0
  0
VERTEX
  5
8C
  8
FAB$CUT
 10
708.3260536776004
 20
270.3510264630389
 30
0.0
  0
VERTEX
  5
8D
  8
FAB$CUT
 10
708.4656356310098
 20
270.2225163464978
 30
0.0
  0
VERTEX
  5
8E
  8
FAB$CUT
 10
708.6099209450446
 20
270.096503822021
 30
0.0
  0
VERTEX
  5
8F
  8
FAB$CUT
 10
708.7587812034983
 20
269.9731242684925
 30
0.0
  0
VERTEX
  5
90
  8
FAB$CUT
 10
708.9120782769273
 20
269.8525083160803
 30
0.0
  0
VERTEX
  5
91
  8
FAB$CUT
 10
709.0696647448395
 20
269.7347813885983
 30
0.0
  0
VERTEX
  5
92
  8
FAB$CUT
 10
709.2313843662752
 20
269.6200632701948
 30
0.0
  0
VERTEX
  5
93
  8
FAB$CUT
 10
709.3970725956415
 20
269.5084676994994
 30
0.0
  0
VERTEX
  5
94
  8
FAB$CUT
 10
709.5665571402252
 20
269.4001019941115
 30
0.0
  0
VERTEX
  5
95
  8
FAB$CUT
 10
709.7396585554276
 20
269.2950667080327
 30
0.0
  0
VERTEX
  5
96
  8
FAB$CUT
 10
709.916190873413
 20
269.1934553243246
 30
0.0
  0
VERTEX
  5
97
  8
FAB$CUT
 10
710.0959622605812
 20
269.0953539849407
 30
0.0
  0
VERTEX
  5
98
  8
FAB$CUT
 10
710.2787756990406
 20
269.0008412593119
 30
0.0
  0
VERTEX
  5
99
  8
FAB$CUT
 10
710.4644296870853
 20
268.9099879528945
 30
0.0
  0
VERTEX
  5
9A
  8
FAB$CUT
 10
710.6527189535703
 20
268.8228569564996
 30
0.0
  0
VERTEX
  5
9B
  8
FAB$CUT
 10
710.8434351810354
 20
268.7395031368367
 30
0.0
  0
VERTEX
  5
9C
  8
FAB$CUT
 10
711.0363677324341
 20
268.6599732683143
 30
0.0
  0
VERTEX
  5
9D
  8
FAB$CUT
 10
711.231304376409
 20
268.584306005764
 30
0.0
  0
VERTEX
  5
9E
  8
FAB$CUT
 10
711.4280320061779
 20
268.5125318973871
 30
0.0
  0
VERTEX
  5
9F
  8
FAB$CUT
 10
711.6263373472874
 20
268.4446734368776
 30
0.0
  0
VERTEX
  5
A0
  8
FAB$CUT
 10
711.8260076497222
 20
268.3807451533472
 30
0.0
  0
VERTEX
  5
A1
  8
FAB$CUT
 10
712.0268313601404
 20
268.3207537373865
 30
0.0
  0
VERTEX
  5
A2
  8
FAB$CUT
 10
712.2285987703227
 20
268.2646982013204
 30
0.0
  0
VERTEX
  5
A3
  8
FAB$CUT
 10
712.4311026382759
 20
268.2125700714883
 30
0.0
  0
VERTEX
  5
A4
  8
FAB$CUT
 10
712.6341387788042
 20
268.1643536101739
 30
0.0
  0
VERTEX
  5
A5
  8
FAB$CUT
 10
712.8375066207634
 20
268.1200260646452
 30
0.0
  0
VERTEX
  5
A6
  8
FAB$CUT
 10
713.0410097286182
 20
268.0795579406364
 30
0.0
  0
VERTEX
  5
A7
  8
FAB$CUT
 10
713.2444562863407
 20
268.0429132975115
 30
0.0
  0
VERTEX
  5
A8
  8
FAB$CUT
 10
713.4476595421066
 20
268.0100500622891
 30
0.0
  0
VERTEX
  5
A9
  8
FAB$CUT
 10
713.6504382126515
 20
267.9809203596877
 30
0.0
  0
VERTEX
  5
AA
  8
FAB$CUT
 10
714.0540261460918
 20
267.9336431094895
 30
0.0
  0
VERTEX
  5
AB
  8
FAB$CUT
 10
714.4538919614173
 20
267.9005957794412
 30
0.0
  0
VERTEX
  5
AC
  8
FAB$CUT
 10
714.8488139877855
 20
267.881222576552
 30
0.0
  0
VERTEX
  5
AD
  8
FAB$CUT
 10
715.237682764837
 20
267.8749094491329
 30
0.0
  0
VERTEX
  5
AE
  8
FAB$CUT
 10
802.4666301332581
 20
267.8749094491329
 30
0.0
  0
VERTEX
  5
AF
  8
FAB$CUT
 10
802.8554989103097
 20
267.8812225765519
 30
0.0
  0
VERTEX
  5
B0
  8
FAB$CUT
 10
803.2504209366781
 20
267.9005957794411
 30
0.0
  0
VERTEX
  5
B1
  8
FAB$CUT
 10
803.6502867520034
 20
267.9336431094895
 30
0.0
  0
VERTEX
  5
B2
  8
FAB$CUT
 10
804.0538746854438
 20
267.9809203596877
 30
0.0
  0
VERTEX
  5
B3
  8
FAB$CUT
 10
804.2566533559885
 20
268.0100500622892
 30
0.0
  0
VERTEX
  5
B4
  8
FAB$CUT
 10
804.4598566117545
 20
268.0429132975115
 30
0.0
  0
VERTEX
  5
B5
  8
FAB$CUT
 10
804.663303169477
 20
268.0795579406364
 30
0.0
  0
VERTEX
  5
B6
  8
FAB$CUT
 10
804.8668062773316
 20
268.1200260646453
 30
0.0
  0
VERTEX
  5
B7
  8
FAB$CUT
 10
805.070174119291
 20
268.164353610174
 30
0.0
  0
VERTEX
  5
B8
  8
FAB$CUT
 10
805.2732102598193
 20
268.2125700714883
 30
0.0
  0
VERTEX
  5
B9
  8
FAB$CUT
 10
805.4757141277726
 20
268.2646982013203
 30
0.0
  0
VERTEX
  5
BA
  8
FAB$CUT
 10
805.6774815379548
 20
268.3207537373864
 30
0.0
  0
VERTEX
  5
BB
  8
FAB$CUT
 10
805.8783052483728
 20
268.3807451533472
 30
0.0
  0
VERTEX
  5
BC
  8
FAB$CUT
 10
806.0779755508079
 20
268.4446734368775
 30
0.0
  0
VERTEX
  5
BD
  8
FAB$CUT
 10
806.2762808919173
 20
268.512531897387
 30
0.0
  0
VERTEX
  5
BE
  8
FAB$CUT
 10
806.4730085216863
 20
268.5843060057639
 30
0.0
  0
VERTEX
  5
BF
  8
FAB$CUT
 10
806.6679451656612
 20
268.6599732683143
 30
0.0
  0
VERTEX
  5
C0
  8
FAB$CUT
 10
806.8608777170598
 20
268.7395031368366
 30
0.0
  0
VERTEX
  5
C1
  8
FAB$CUT
 10
807.0515939445248
 20
268.8228569564995
 30
0.0
  0
VERTEX
  5
C2
  8
FAB$CUT
 10
807.23988321101
 20
268.9099879528944
 30
0.0
  0
VERTEX
  5
C3
  8
FAB$CUT
 10
807.4255371990545
 20
269.0008412593118
 30
0.0
  0
VERTEX
  5
C4
  8
FAB$CUT
 10
807.6083506375138
 20
269.0953539849406
 30
0.0
  0
VERTEX
  5
C5
  8
FAB$CUT
 10
807.7881220246821
 20
269.1934553243245
 30
0.0
  0
VERTEX
  5
C6
  8
FAB$CUT
 10
807.9646543426676
 20
269.2950667080327
 30
0.0
  0
VERTEX
  5
C7
  8
FAB$CUT
 10
808.1377557578701
 20
269.4001019941115
 30
0.0
  0
VERTEX
  5
C8
  8
FAB$CUT
 10
808.3072403024536
 20
269.5084676994994
 30
0.0
  0
VERTEX
  5
C9
  8
FAB$CUT
 10
808.47292853182
 20
269.6200632701949
 30
0.0
  0
VERTEX
  5
CA
  8
FAB$CUT
 10
808.6346481532556
 20
269.7347813885983
 30
0.0
  0
VERTEX
  5
CB
  8
FAB$CUT
 10
808.792234621168
 20
269.8525083160803
 30
0.0
  0
VERTEX
  5
CC
  8
FAB$CUT
 10
808.9455316945968
 20
269.9731242684924
 30
0.0
  0
VERTEX
  5
CD
  8
FAB$CUT
 10
809.094391953051
 20
270.0965038220209
 30
0.0
  0
VERTEX
  5
CE
  8
FAB$CUT
 10
809.2386772670856
 20
270.2225163464978
 30
0.0
  0
VERTEX
  5
CF
  8
FAB$CUT
 10
809.3782592204948
 20
270.3510264630387
 30
0.0
  0
VERTEX
  5
D0
  8
FAB$CUT
 10
809.5130194814379
 20
270.481894522663
 30
0.0
  0
VERTEX
  5
D1
  8
FAB$CUT
 10
809.642850120328
 20
270.6149771023844
 30
0.0
  0
VERTEX
  5
D2
  8
FAB$CUT
 10
809.7676538728279
 20
270.7501275151373
 30
0.0
  0
VERTEX
  5
D3
  8
FAB$CUT
 10
809.8873443468229
 20
270.8871963298199
 30
0.0
  0
VERTEX
  5
D4
  8
FAB$CUT
 10
810.0018461727807
 20
271.0260318977063
 30
0.0
  0
VERTEX
  5
D5
  8
FAB$CUT
 10
810.1110950974353
 20
271.1664808814831
 30
0.0
  0
VERTEX
  5
D6
  8
FAB$CUT
 10
810.2150380212545
 20
271.3083887832273
 30
0.0
  0
VERTEX
  5
D7
  8
FAB$CUT
 10
810.3136329806564
 20
271.4516004677334
 30
0.0
  0
VERTEX
  5
D8
  8
FAB$CUT
 10
810.4068490764091
 20
271.5959606777366
 30
0.0
  0
VERTEX
  5
D9
  8
FAB$CUT
 10
810.4946663501007
 20
271.7413145377467
 30
0.0
  0
VERTEX
  5
DA
  8
FAB$CUT
 10
810.577075610973
 20
271.887508043415
 30
0.0
  0
VERTEX
  5
DB
  8
FAB$CUT
 10
810.6540782157797
 20
272.034388533586
 30
0.0
  0
VERTEX
  5
DC
  8
FAB$CUT
 10
810.7256858046543
 20
272.1818051424409
 30
0.0
  0
VERTEX
  5
DD
  8
FAB$CUT
 10
810.7919199962491
 20
272.3296092294156
 30
0.0
  0
VERTEX
  5
DE
  8
FAB$CUT
 10
810.8528120456333
 20
272.4776547848648
 30
0.0
  0
VERTEX
  5
DF
  8
FAB$CUT
 10
810.9084024686138
 20
272.6257988097398
 30
0.0
  0
VERTEX
  5
E0
  8
FAB$CUT
 10
810.958740636275
 20
272.773901667852
 30
0.0
  0
VERTEX
  5
E1
  8
FAB$CUT
 10
811.0038843436067
 20
272.9218274095974
 30
0.0
  0
VERTEX
  5
E2
  8
FAB$CUT
 10
811.0438993561277
 20
273.0694440663158
 30
0.0
  0
VERTEX
  5
E3
  8
FAB$CUT
 10
811.0788589383955
 20
273.2166239147496
 30
0.0
  0
VERTEX
  5
E4
  8
FAB$CUT
 10
811.108843368242
 20
273.3632437113491
 30
0.0
  0
VERTEX
  5
E5
  8
FAB$CUT
 10
811.1339394404846
 20
273.5091848964353
 30
0.0
  0
VERTEX
  5
E6
  8
FAB$CUT
 10
811.1542399637297
 20
273.6543337684826
 30
0.0
  0
VERTEX
  5
E7
  8
FAB$CUT
 10
811.1698432537402
 20
273.7985816290102
 30
0.0
  0
VERTEX
  5
E8
  8
FAB$CUT
 10
811.1808526266458
 20
273.941824898789
 30
0.0
  0
VERTEX
  5
E9
  8
FAB$CUT
 10
811.1873758950799
 20
274.0839652062467
 30
0.0
  0
VERTEX
  5
EA
  8
FAB$CUT
 10
811.1895248701003
 20
274.224909449133
 30
0.0
  0
VERTEX
  5
EB
  8
FAB$CUT
 10
811.1746686350855
 20
276.1204242077732
 30
0.0
  0
VERTEX
  5
EC
  8
FAB$CUT
 10
811.1604791264322
 20
276.5513566341037
 30
0.0
  0
VERTEX
  5
ED
  8
FAB$CUT
 10
811.1392571722731
 20
276.9717673550203
 30
0.0
  0
VERTEX
  5
EE
  8
FAB$CUT
 10
811.1095311294606
 20
277.3852600617835
 30
0.0
  0
VERTEX
  5
EF
  8
FAB$CUT
 10
811.0697769415026
 20
277.7956092519962
 30
0.0
  0
VERTEX
  5
F0
  8
FAB$CUT
 10
811.0183980749762
 20
278.2067819621641
 30
0.0
  0
VERTEX
  5
F1
  8
FAB$CUT
 10
810.953701175851
 20
278.6229698084036
 30
0.0
  0
VERTEX
  5
F2
  8
FAB$CUT
 10
810.873866655509
 20
279.0486328255559
 30
0.0
  0
VERTEX
  5
F3
  8
FAB$CUT
 10
810.7769131207523
 20
279.4885571302422
 30
0.0
  0
VERTEX
  5
F4
  8
FAB$CUT
 10
810.6606541719309
 20
279.9479291651183
 30
0.0
  0
VERTEX
  5
F5
  8
FAB$CUT
 10
810.5226455712809
 20
280.4324302803645
 30
0.0
  0
VERTEX
  5
F6
  8
FAB$CUT
 10
810.3601200749127
 20
280.9483567789761
 30
0.0
  0
VERTEX
  5
F7
  8
FAB$CUT
 10
810.169906245405
 20
281.5027724510853
 30
0.0
  0
VERTEX
  5
F8
  8
FAB$CUT
 10
810.0234571132955
 20
281.9027802536525
 30
0.0
  0
VERTEX
  5
F9
  8
FAB$CUT
 10
809.8600515868367
 20
282.3211563647529
 30
0.0
  0
VERTEX
  5
FA
  8
FAB$CUT
 10
809.677221362971
 20
282.75421411121
 30
0.0
  0
VERTEX
  5
FB
  8
FAB$CUT
 10
809.5778190390992
 20
282.9748252656727
 30
0.0
  0
VERTEX
  5
FC
  8
FAB$CUT
 10
809.472760028655
 20
283.1972644980289
 30
0.0
  0
VERTEX
  5
FD
  8
FAB$CUT
 10
809.3618298264537
 20
283.4207740984047
 30
0.0
  0
VERTEX
  5
FE
  8
FAB$CUT
 10
809.2448471448562
 20
283.6445253580578
 30
0.0
  0
VERTEX
  5
FF
  8
FAB$CUT
 10
809.1216689421587
 20
283.8676192894571
 30
0.0
  0
VERTEX
  5
100
  8
FAB$CUT
 10
808.9921955760594
 20
284.0890888202011
 30
0.0
  0
VERTEX
  5
101
  8
FAB$CUT
 10
808.8563759540692
 20
284.307902635752
 30
0.0
  0
VERTEX
  5
102
  8
FAB$CUT
 10
808.7142125308033
 20
284.5229708211778
 30
0.0
  0
VERTEX
  5
103
  8
FAB$CUT
 10
808.5657659823275
 20
284.733152414966
 30
0.0
  0
VERTEX
  5
104
  8
FAB$CUT
 10
808.4111593718568
 20
284.9372649379413
 30
0.0
  0
VERTEX
  5
105
  8
FAB$CUT
 10
808.3316024290447
 20
285.0366672122185
 30
0.0
  0
VERTEX
  5
106
  8
FAB$CUT
 10
808.2505816109269
 20
285.134095897573
 30
0.0
  0
VERTEX
  5
107
  8
FAB$CUT
 10
808.1681312404955
 20
285.2293969427914
 30
0.0
  0
VERTEX
  5
108
  8
FAB$CUT
 10
808.0842900175566
 20
285.3224161937445
 30
0.0
  0
VERTEX
  5
109
  8
FAB$CUT
 10
807.9991010359334
 20
285.4129999043419
 30
0.0
  0
VERTEX
  5
10A
  8
FAB$CUT
 10
807.9126117795255
 20
285.5009952687024
 30
0.0
  0
VERTEX
  5
10B
  8
FAB$CUT
 10
807.8248740961253
 20
285.5862509717309
 30
0.0
  0
VERTEX
  5
10C
  8
FAB$CUT
 10
807.7359441480627
 20
285.6686177549564
 30
0.0
  0
VERTEX
  5
10D
  8
FAB$CUT
 10
807.6458823389131
 20
285.7479489941635
 30
0.0
  0
VERTEX
  5
10E
  8
FAB$CUT
 10
807.5547532157123
 20
285.8241012850528
 30
0.0
  0
VERTEX
  5
10F
  8
FAB$CUT
 10
807.4626253463355
 20
285.896935032903
 30
0.0
  0
VERTEX
  5
110
  8
FAB$CUT
 10
807.3695711719249
 20
285.9663150419736
 30
0.0
  0
VERTEX
  5
111
  8
FAB$CUT
 10
807.2756668345052
 20
286.0321111002075
 30
0.0
  0
VERTEX
  5
112
  8
FAB$CUT
 10
807.1809919801739
 20
286.0941985546465
 30
0.0
  0
VERTEX
  5
113
  8
FAB$CUT
 10
807.0856295385225
 20
286.1524588728978
 30
0.0
  0
VERTEX
  5
114
  8
FAB$CUT
 10
806.9896654792071
 20
286.2067801859505
 30
0.0
  0
VERTEX
  5
115
  8
FAB$CUT
 10
806.9414854748929
 20
286.2324307068798
 30
0.0
  0
VERTEX
  5
116
  8
FAB$CUT
 10
806.8931885468478
 20
286.2570578076834
 30
0.0
  0
VERTEX
  5
117
  8
FAB$CUT
 10
806.8447861749202
 20
286.2806496055928
 30
0.0
  0
VERTEX
  5
118
  8
FAB$CUT
 10
806.7962899756989
 20
286.3031947264899
 30
0.0
  0
VERTEX
  5
119
  8
FAB$CUT
 10
806.7477116926115
 20
286.324682318438
 30
0.0
  0
VERTEX
  5
11A
  8
FAB$CUT
 10
806.6990631857783
 20
286.3451020646092
 30
0.0
  0
VERTEX
  5
11B
  8
FAB$CUT
 10
806.6503564216397
 20
286.3644441955807
 30
0.0
  0
VERTEX
  5
11C
  8
FAB$CUT
 10
806.6016034623738
 20
286.382699500969
 30
0.0
  0
VERTEX
  5
11D
  8
FAB$CUT
 10
806.5528164551247
 20
286.3998593403763
 30
0.0
  0
VERTEX
  5
11E
  8
FAB$CUT
 10
806.5040076210582
 20
286.4159156536235
 30
0.0
  0
VERTEX
  5
11F
  8
FAB$CUT
 10
806.4551892442664
 20
286.430860970243
 30
0.0
  0
VERTEX
  5
120
  8
FAB$CUT
 10
806.4063736605412
 20
286.444688418213
 30
0.0
  0
VERTEX
  5
121
  8
FAB$CUT
 10
806.3575732460365
 20
286.4573917319094
 30
0.0
  0
VERTEX
  5
122
  8
FAB$CUT
 10
806.3088004058419
 20
286.4689652592573
 30
0.0
  0
VERTEX
  5
123
  8
FAB$CUT
 10
806.260067562487
 20
286.4794039680675
 30
0.0
  0
VERTEX
  5
124
  8
FAB$CUT
 10
806.211387144402
 20
286.4887034515391
 30
0.0
  0
VERTEX
  5
125
  8
FAB$CUT
 10
806.1627715743508
 20
286.4968599329208
 30
0.0
  0
VERTEX
  5
126
  8
FAB$CUT
 10
806.1142332578648
 20
286.5038702693154
 30
0.0
  0
VERTEX
  5
127
  8
FAB$CUT
 10
806.0657845716943
 20
286.5097319546219
 30
0.0
  0
VERTEX
  5
128
  8
FAB$CUT
 10
806.0174378523037
 20
286.51444312161
 30
0.0
  0
VERTEX
  5
129
  8
FAB$CUT
 10
805.9692053844288
 20
286.518002543119
 30
0.0
  0
VERTEX
  5
12A
  8
FAB$CUT
 10
805.9210993897212
 20
286.5204096323847
 30
0.0
  0
VERTEX
  5
12B
  8
FAB$CUT
 10
805.8731320154992
 20
286.5216644424908
 30
0.0
  0
VERTEX
  5
12C
  8
FAB$CUT
 10
805.8253153236266
 20
286.5217676649485
 30
0.0
  0
VERTEX
  5
12D
  8
FAB$CUT
 10
805.777661279542
 20
286.5207206274119
 30
0.0
  0
VERTEX
  5
12E
  8
FAB$CUT
 10
805.7301817414577
 20
286.5185252905322
 30
0.0
  0
VERTEX
  5
12F
  8
FAB$CUT
 10
805.6828884497465
 20
286.5151842439629
 30
0.0
  0
VERTEX
  5
130
  8
FAB$CUT
 10
805.6357930165386
 20
286.5107007015277
 30
0.0
  0
VERTEX
  5
131
  8
FAB$CUT
 10
805.5889069155472
 20
286.5050784955619
 30
0.0
  0
VERTEX
  5
132
  8
FAB$CUT
 10
805.5422414721364
 20
286.4983220704466
 30
0.0
  0
VERTEX
  5
133
  8
FAB$CUT
 10
805.4958078536554
 20
286.4904364753498
 30
0.0
  0
VERTEX
  5
134
  8
FAB$CUT
 10
805.4496170600491
 20
286.4814273561962
 30
0.0
  0
VERTEX
  5
135
  8
FAB$CUT
 10
805.0422097741787
 20
286.4036565093451
 30
0.0
  0
VERTEX
  5
136
  8
FAB$CUT
 10
804.6340993269741
 20
286.339142429194
 30
0.0
  0
VERTEX
  5
137
  8
FAB$CUT
 10
804.225306122828
 20
286.2874244494635
 30
0.0
  0
VERTEX
  5
138
  8
FAB$CUT
 10
803.8158505661324
 20
286.2480419038743
 30
0.0
  0
VERTEX
  5
139
  8
FAB$CUT
 10
803.4057530612798
 20
286.2205341261468
 30
0.0
  0
VERTEX
  5
13A
  8
FAB$CUT
 10
802.9950340126627
 20
286.2044404500018
 30
0.0
  0
VERTEX
  5
13B
  8
FAB$CUT
 10
802.5837138246732
 20
286.1993002091596
 30
0.0
  0
VERTEX
  5
13C
  8
FAB$CUT
 10
802.1718129017036
 20
286.2046527373408
 30
0.0
  0
VERTEX
  5
13D
  8
FAB$CUT
 10
801.7593516481465
 20
286.220037368266
 30
0.0
  0
VERTEX
  5
13E
  8
FAB$CUT
 10
801.3463504683943
 20
286.2449934356559
 30
0.0
  0
VERTEX
  5
13F
  8
FAB$CUT
 10
800.9328297668392
 20
286.279060273231
 30
0.0
  0
VERTEX
  5
140
  8
FAB$CUT
 10
800.5188099478736
 20
286.3217772147117
 30
0.0
  0
VERTEX
  5
141
  8
FAB$CUT
 10
800.1043114158898
 20
286.3726835938188
 30
0.0
  0
VERTEX
  5
142
  8
FAB$CUT
 10
799.6893545752802
 20
286.4313187442727
 30
0.0
  0
VERTEX
  5
143
  8
FAB$CUT
 10
798.8581475857529
 20
286.5699326941036
 30
0.0
  0
VERTEX
  5
144
  8
FAB$CUT
 10
797.6144584973028
 20
286.8207477942033
 30
0.0
  0
VERTEX
  5
145
  8
FAB$CUT
 10
793.8677641071175
 20
287.6575148898479
 30
0.0
  0
VERTEX
  5
146
  8
FAB$CUT
 10
793.2417723112019
 20
287.7757910895643
 30
0.0
  0
VERTEX
  5
147
  8
FAB$CUT
 10
792.6155267127656
 20
287.8795110944538
 30
0.0
  0
VERTEX
  5
148
  8
FAB$CUT
 10
791.9890974284583
 20
287.9654861510516
 30
0.0
  0
VERTEX
  5
149
  8
FAB$CUT
 10
791.675835815556
 20
288.0008228382835
 30
0.0
  0
VERTEX
  5
14A
  8
FAB$CUT
 10
791.3625545749295
 20
288.0305275058931
 30
0.0
  0
VERTEX
  5
14B
  8
FAB$CUT
 10
791.0492624711601
 20
288.0542015596976
 30
0.0
  0
VERTEX
  5
14C
  8
FAB$CUT
 10
790.7359682688287
 20
288.0714464055137
 30
0.0
  0
VERTEX
  5
14D
  8
FAB$CUT
 10
790.4226807325169
 20
288.0818634491584
 30
0.0
  0
VERTEX
  5
14E
  8
FAB$CUT
 10
790.1094086268055
 20
288.0850540964486
 30
0.0
  0
VERTEX
  5
14F
  8
FAB$CUT
 10
789.796160716276
 20
288.0806197532013
 30
0.0
  0
VERTEX
  5
150
  8
FAB$CUT
 10
789.4829457655094
 20
288.0681618252333
 30
0.0
  0
VERTEX
  5
151
  8
FAB$CUT
 10
789.169772539087
 20
288.0472817183615
 30
0.0
  0
VERTEX
  5
152
  8
FAB$CUT
 10
788.85664980159
 20
288.0175808384031
 30
0.0
  0
VERTEX
  5
153
  8
FAB$CUT
 10
788.5435844659276
 20
287.9788429685227
 30
0.0
  0
VERTEX
  5
154
  8
FAB$CUT
 10
788.2305760383204
 20
287.9315814012775
 30
0.0
  0
VERTEX
  5
155
  8
FAB$CUT
 10
787.9176221733171
 20
287.8764918065726
 30
0.0
  0
VERTEX
  5
156
  8
FAB$CUT
 10
787.6047205254665
 20
287.8142698543134
 30
0.0
  0
VERTEX
  5
157
  8
FAB$CUT
 10
787.2918687493174
 20
287.7456112144046
 30
0.0
  0
VERTEX
  5
158
  8
FAB$CUT
 10
786.9790644994182
 20
287.6712115567516
 30
0.0
  0
VERTEX
  5
159
  8
FAB$CUT
 10
786.353589196565
 20
287.507971867833
 30
0.0
  0
VERTEX
  5
15A
  8
FAB$CUT
 10
783.2282668038636
 20
286.5838401263218
 30
0.0
  0
VERTEX
  5
15B
  8
FAB$CUT
 10
782.6034818043635
 20
286.4163846333225
 30
0.0
  0
VERTEX
  5
15C
  8
FAB$CUT
 10
781.9787461827859
 20
286.267705263653
 30
0.0
  0
VERTEX
  5
15D
  8
FAB$CUT
 10
781.66639102509
 20
286.2021457998297
 30
0.0
  0
VERTEX
  5
15E
  8
FAB$CUT
 10
781.3540411755207
 20
286.1433673765542
 30
0.0
  0
VERTEX
  5
15F
  8
FAB$CUT
 10
781.0416942886268
 20
286.0920656637317
 30
0.0
  0
VERTEX
  5
160
  8
FAB$CUT
 10
780.7293480189571
 20
286.0489363312672
 30
0.0
  0
VERTEX
  5
161
  8
FAB$CUT
 10
780.4170000210604
 20
286.0146750490659
 30
0.0
  0
VERTEX
  5
162
  8
FAB$CUT
 10
780.1046479494851
 20
285.9899774870329
 30
0.0
  0
VERTEX
  5
163
  8
FAB$CUT
 10
779.79228945878
 20
285.9755393150732
 30
0.0
  0
VERTEX
  5
164
  8
FAB$CUT
 10
779.6361070733003
 20
285.9723848972163
 30
0.0
  0
VERTEX
  5
165
  8
FAB$CUT
 10
779.4799222034941
 20
285.9720562030921
 30
0.0
  0
VERTEX
  5
166
  8
FAB$CUT
 10
779.3237345561797
 20
285.9746401914388
 30
0.0
  0
VERTEX
  5
167
  8
FAB$CUT
 10
779.1675438381757
 20
285.9802238209945
 30
0.0
  0
VERTEX
  5
168
  8
FAB$CUT
 10
779.0113497563009
 20
285.9888940504975
 30
0.0
  0
VERTEX
  5
169
  8
FAB$CUT
 10
778.8551520173737
 20
286.0007378386858
 30
0.0
  0
VERTEX
  5
16A
  8
FAB$CUT
 10
778.6989503899352
 20
286.0158087573099
 30
0.0
  0
VERTEX
  5
16B
  8
FAB$CUT
 10
778.542744889416
 20
286.0340268301691
 30
0.0
  0
VERTEX
  5
16C
  8
FAB$CUT
 10
778.386535592969
 20
286.0552786940753
 30
0.0
  0
VERTEX
  5
16D
  8
FAB$CUT
 10
778.2303225777475
 20
286.0794509858403
 30
0.0
  0
VERTEX
  5
16E
  8
FAB$CUT
 10
777.917885699592
 20
286.1361034001933
 30
0.0
  0
VERTEX
  5
16F
  8
FAB$CUT
 10
777.6054348721736
 20
286.2030771677222
 30
0.0
  0
VERTEX
  5
170
  8
FAB$CUT
 10
777.2929707127164
 20
286.279465382921
 30
0.0
  0
VERTEX
  5
171
  8
FAB$CUT
 10
776.9804938384443
 20
286.3643611402837
 30
0.0
  0
VERTEX
  5
172
  8
FAB$CUT
 10
776.6680048665813
 20
286.4568575343042
 30
0.0
  0
VERTEX
  5
173
  8
FAB$CUT
 10
776.3555044143516
 20
286.5560476594767
 30
0.0
  0
VERTEX
  5
174
  8
FAB$CUT
 10
775.7304715376877
 20
286.7708814812534
 30
0.0
  0
VERTEX
  5
175
  8
FAB$CUT
 10
773.2300042611623
 20
287.7165849132368
 30
0.0
  0
VERTEX
  5
176
  8
FAB$CUT
 10
772.6048281885239
 20
287.9383265872121
 30
0.0
  0
VERTEX
  5
177
  8
FAB$CUT
 10
771.9796382900672
 20
288.1396840994832
 30
0.0
  0
VERTEX
  5
178
  8
FAB$CUT
 10
771.667039699217
 20
288.2304515312147
 30
0.0
  0
VERTEX
  5
179
  8
FAB$CUT
 10
771.3544395035839
 20
288.3134022060022
 30
0.0
  0
VERTEX
  5
17A
  8
FAB$CUT
 10
771.0418383203923
 20
288.3876292183396
 30
0.0
  0
VERTEX
  5
17B
  8
FAB$CUT
 10
770.7292367668663
 20
288.452225662721
 30
0.0
  0
VERTEX
  5
17C
  8
FAB$CUT
 10
770.4166354602296
 20
288.5062846336405
 30
0.0
  0
VERTEX
  5
17D
  8
FAB$CUT
 10
770.2603350923773
 20
288.5290791585813
 30
0.0
  0
VERTEX
  5
17E
  8
FAB$CUT
 10
770.1040350177065
 20
288.5488992255919
 30
0.0
  0
VERTEX
  5
17F
  8
FAB$CUT
 10
769.94773531337
 20
288.5656314714839
 30
0.0
  0
VERTEX
  5
180
  8
FAB$CUT
 10
769.7914360565208
 20
288.5791625330693
 30
0.0
  0
VERTEX
  5
181
  8
FAB$CUT
 10
769.6351373243119
 20
288.5893790471596
 30
0.0
  0
VERTEX
  5
182
  8
FAB$CUT
 10
769.4788391938965
 20
288.5961676505667
 30
0.0
  0
VERTEX
  5
183
  8
FAB$CUT
 10
769.3225417424276
 20
288.5994149801022
 30
0.0
  0
VERTEX
  5
184
  8
FAB$CUT
 10
769.1662450470578
 20
288.5990076725781
 30
0.0
  0
VERTEX
  5
185
  8
FAB$CUT
 10
769.0099491849405
 20
288.5948323648059
 30
0.0
  0
VERTEX
  5
186
  8
FAB$CUT
 10
768.8536542332286
 20
288.5867756935975
 30
0.0
  0
VERTEX
  5
187
  8
FAB$CUT
 10
768.6973602536443
 20
288.5747648121589
 30
0.0
  0
VERTEX
  5
188
  8
FAB$CUT
 10
768.541067246188
 20
288.558888939274
 30
0.0
  0
VERTEX
  5
189
  8
FAB$CUT
 10
768.3847751954288
 20
288.5392778101206
 30
0.0
  0
VERTEX
  5
18A
  8
FAB$CUT
 10
768.2284840859363
 20
288.5160611598768
 30
0.0
  0
VERTEX
  5
18B
  8
FAB$CUT
 10
768.0721939022799
 20
288.4893687237206
 30
0.0
  0
VERTEX
  5
18C
  8
FAB$CUT
 10
767.9159046290288
 20
288.4593302368302
 30
0.0
  0
VERTEX
  5
18D
  8
FAB$CUT
 10
767.7596162507524
 20
288.4260754343835
 30
0.0
  0
VERTEX
  5
18E
  8
FAB$CUT
 10
767.6033287520202
 20
288.3897340515585
 30
0.0
  0
VERTEX
  5
18F
  8
FAB$CUT
 10
767.2907563314659
 20
288.3083104854861
 30
0.0
  0
VERTEX
  5
190
  8
FAB$CUT
 10
766.9781872439212
 20
288.2160974200373
 30
0.0
  0
VERTEX
  5
191
  8
FAB$CUT
 10
766.6656213659414
 20
288.1141327366363
 30
0.0
  0
VERTEX
  5
192
  8
FAB$CUT
 10
766.3530585740815
 20
288.0034543167075
 30
0.0
  0
VERTEX
  5
193
  8
FAB$CUT
 10
766.0404987448969
 20
287.8851000416752
 30
0.0
  0
VERTEX
  5
194
  8
FAB$CUT
 10
765.7279417549427
 20
287.7601077929637
 30
0.0
  0
VERTEX
  5
195
  8
FAB$CUT
 10
765.1028357989463
 20
287.4943609002001
 30
0.0
  0
VERTEX
  5
196
  8
FAB$CUT
 10
762.6025008552203
 20
286.3734306668392
 30
0.0
  0
VERTEX
  5
197
  8
FAB$CUT
 10
761.977434401562
 20
286.1202276998946
 30
0.0
  0
VERTEX
  5
198
  8
FAB$CUT
 10
761.6649030881276
 20
286.0033890029654
 30
0.0
  0
VERTEX
  5
199
  8
FAB$CUT
 10
761.3523728856965
 20
285.8944426722971
 30
0.0
  0
VERTEX
  5
19A
  8
FAB$CUT
 10
761.039843670824
 20
285.7944265893144
 30
0.0
  0
VERTEX
  5
19B
  8
FAB$CUT
 10
760.7273153200651
 20
285.7043786354412
 30
0.0
  0
VERTEX
  5
19C
  8
FAB$CUT
 10
760.4147877099754
 20
285.6253366921022
 30
0.0
  0
VERTEX
  5
19D
  8
FAB$CUT
 10
760.258524144105
 20
285.5902673123281
 30
0.0
  0
VERTEX
  5
19E
  8
FAB$CUT
 10
760.10226071711
 20
285.5583386407216
 30
0.0
  0
VERTEX
  5
19F
  8
FAB$CUT
 10
759.9459974135598
 20
285.5296804124607
 30
0.0
  0
VERTEX
  5
1A0
  8
FAB$CUT
 10
759.7897342180239
 20
285.5044223627235
 30
0.0
  0
VERTEX
  5
1A1
  8
FAB$CUT
 10
759.6334711150718
 20
285.4826942266881
 30
0.0
  0
VERTEX
  5
1A2
  8
FAB$CUT
 10
759.4772080892725
 20
285.4646257395324
 30
0.0
  0
VERTEX
  5
1A3
  8
FAB$CUT
 10
759.3209451251957
 20
285.4503466364345
 30
0.0
  0
VERTEX
  5
1A4
  8
FAB$CUT
 10
759.1646822074108
 20
285.4399866525725
 30
0.0
  0
VERTEX
  5
1A5
  8
FAB$CUT
 10
759.0084193204873
 20
285.4336755231244
 30
0.0
  0
VERTEX
  5
1A6
  8
FAB$CUT
 10
758.8521564489943
 20
285.4315429832682
 30
0.0
  0
VERTEX
  5
1A7
  8
FAB$CUT
 10
758.6958935775014
 20
285.4336755231226
 30
0.0
  0
VERTEX
  5
1A8
  8
FAB$CUT
 10
758.539630690578
 20
285.439986652569
 30
0.0
  0
VERTEX
  5
1A9
  8
FAB$CUT
 10
758.3833677727935
 20
285.4503466364293
 30
0.0
  0
VERTEX
  5
1AA
  8
FAB$CUT
 10
758.2271048087172
 20
285.4646257395254
 30
0.0
  0
VERTEX
  5
1AB
  8
FAB$CUT
 10
758.0708417829185
 20
285.4826942266794
 30
0.0
  0
VERTEX
  5
1AC
  8
FAB$CUT
 10
757.9145786799669
 20
285.5044223627131
 30
0.0
  0
VERTEX
  5
1AD
  8
FAB$CUT
 10
757.7583154844318
 20
285.5296804124484
 30
0.0
  0
VERTEX
  5
1AE
  8
FAB$CUT
 10
757.6020521808824
 20
285.5583386407076
 30
0.0
  0
VERTEX
  5
1AF
  8
FAB$CUT
 10
757.4457887538883
 20
285.5902673123124
 30
0.0
  0
VERTEX
  5
1B0
  8
FAB$CUT
 10
757.2895251880188
 20
285.6253366920848
 30
0.0
  0
VERTEX
  5
1B1
  8
FAB$CUT
 10
756.9769975779317
 20
285.7043786354204
 30
0.0
  0
VERTEX
  5
1B2
  8
FAB$CUT
 10
756.6644692271757
 20
285.7944265892901
 30
0.0
  0
VERTEX
  5
1B3
  8
FAB$CUT
 10
756.3519400123064
 20
285.8944426722693
 30
0.0
  0
VERTEX
  5
1B4
  8
FAB$CUT
 10
756.0394098098786
 20
286.003389002934
 30
0.0
  0
VERTEX
  5
1B5
  8
FAB$CUT
 10
755.7268784964477
 20
286.1202276998598
 30
0.0
  0
VERTEX
  5
1B6
  8
FAB$CUT
 10
755.1018120427973
 20
286.3734306667974
 30
0.0
  0
VERTEX
  5
1B7
  8
FAB$CUT
 10
752.6014770991063
 20
287.4943609001306
 30
0.0
  0
VERTEX
  5
1B8
  8
FAB$CUT
 10
751.9763711431183
 20
287.7601077928871
 30
0.0
  0
VERTEX
  5
1B9
  8
FAB$CUT
 10
751.6638141531679
 20
287.8851000415951
 30
0.0
  0
VERTEX
  5
1BA
  8
FAB$CUT
 10
751.351254323987
 20
288.003454316624
 30
0.0
  0
VERTEX
  5
1BB
  8
FAB$CUT
 10
751.0386915321305
 20
288.1141327365493
 30
0.0
  0
VERTEX
  5
1BC
  8
FAB$CUT
 10
750.726125654154
 20
288.2160974199468
 30
0.0
  0
VERTEX
  5
1BD
  8
FAB$CUT
 10
750.4135565666122
 20
288.3083104853922
 30
0.0
  0
VERTEX
  5
1BE
  8
FAB$CUT
 10
750.1009841460605
 20
288.3897340514611
 30
0.0
  0
VERTEX
  5
1BF
  8
FAB$CUT
 10
749.9446966473294
 20
288.4260754342843
 30
0.0
  0
VERTEX
  5
1C0
  8
FAB$CUT
 10
749.788408269054
 20
288.4593302367292
 30
0.0
  0
VERTEX
  5
1C1
  8
FAB$CUT
 10
749.6321189958037
 20
288.4893687236179
 30
0.0
  0
VERTEX
  5
1C2
  8
FAB$CUT
 10
749.4758288121479
 20
288.5160611597723
 30
0.0
  0
VERTEX
  5
1C3
  8
FAB$CUT
 10
749.3195377026561
 20
288.5392778100144
 30
0.0
  0
VERTEX
  5
1C4
  8
FAB$CUT
 10
749.1632456518976
 20
288.5588889391661
 30
0.0
  0
VERTEX
  5
1C5
  8
FAB$CUT
 10
749.0069526444418
 20
288.5747648120493
 30
0.0
  0
VERTEX
  5
1C6
  8
FAB$CUT
 10
748.8506586648581
 20
288.5867756934861
 30
0.0
  0
VERTEX
  5
1C7
  8
FAB$CUT
 10
748.6943637131465
 20
288.5948323646927
 30
0.0
  0
VERTEX
  5
1C8
  8
FAB$CUT
 10
748.5380678510294
 20
288.5990076724631
 30
0.0
  0
VERTEX
  5
1C9
  8
FAB$CUT
 10
748.3817711556596
 20
288.5994149799856
 30
0.0
  0
VERTEX
  5
1CA
  8
FAB$CUT
 10
748.2254737041904
 20
288.5961676504483
 30
0.0
  0
VERTEX
  5
1CB
  8
FAB$CUT
 10
748.0691755737748
 20
288.5893790470394
 30
0.0
  0
VERTEX
  5
1CC
  8
FAB$CUT
 10
747.9128768415658
 20
288.5791625329474
 30
0.0
  0
VERTEX
  5
1CD
  8
FAB$CUT
 10
747.7565775847162
 20
288.5656314713603
 30
0.0
  0
VERTEX
  5
1CE
  8
FAB$CUT
 10
747.600277880379
 20
288.5488992254665
 30
0.0
  0
VERTEX
  5
1CF
  8
FAB$CUT
 10
747.4439778057074
 20
288.5290791584541
 30
0.0
  0
VERTEX
  5
1D0
  8
FAB$CUT
 10
747.2876774378544
 20
288.5062846335115
 30
0.0
  0
VERTEX
  5
1D1
  8
FAB$CUT
 10
746.9750761312162
 20
288.4522256625887
 30
0.0
  0
VERTEX
  5
1D2
  8
FAB$CUT
 10
746.6624745776882
 20
288.3876292182038
 30
0.0
  0
VERTEX
  5
1D3
  8
FAB$CUT
 10
746.3498733944942
 20
288.3134022058628
 30
0.0
  0
VERTEX
  5
1D4
  8
FAB$CUT
 10
746.0372731988587
 20
288.2304515310718
 30
0.0
  0
VERTEX
  5
1D5
  8
FAB$CUT
 10
745.7246746080056
 20
288.1396840993368
 30
0.0
  0
VERTEX
  5
1D6
  8
FAB$CUT
 10
745.0994847095424
 20
287.9383265870588
 30
0.0
  0
VERTEX
  5
1D7
  8
FAB$CUT
 10
744.4743086368971
 20
287.7165849130765
 30
0.0
  0
VERTEX
  5
1D8
  8
FAB$CUT
 10
741.9738413603422
 20
286.7708814810651
 30
0.0
  0
VERTEX
  5
1D9
  8
FAB$CUT
 10
741.3488084836717
 20
286.5560476592815
 30
0.0
  0
VERTEX
  5
1DA
  8
FAB$CUT
 10
741.0363080314389
 20
286.4568575341056
 30
0.0
  0
VERTEX
  5
1DB
  8
FAB$CUT
 10
740.7238190595731
 20
286.3643611400815
 30
0.0
  0
VERTEX
  5
1DC
  8
FAB$CUT
 10
740.4113421852985
 20
286.2794653827153
 30
0.0
  0
VERTEX
  5
1DD
  8
FAB$CUT
 10
740.098878025839
 20
286.203077167513
 30
0.0
  0
VERTEX
  5
1DE
  8
FAB$CUT
 10
739.7864271984186
 20
286.1361033999806
 30
0.0
  0
VERTEX
  5
1DF
  8
FAB$CUT
 10
739.4739903202612
 20
286.0794509856241
 30
0.0
  0
VERTEX
  5
1E0
  8
FAB$CUT
 10
739.3177773050388
 20
286.0552786938574
 30
0.0
  0
VERTEX
  5
1E1
  8
FAB$CUT
 10
739.1615680085913
 20
286.0340268299495
 30
0.0
  0
VERTEX
  5
1E2
  8
FAB$CUT
 10
739.0053625080715
 20
286.0158087570885
 30
0.0
  0
VERTEX
  5
1E3
  8
FAB$CUT
 10
738.8491608806326
 20
286.0007378384628
 30
0.0
  0
VERTEX
  5
1E4
  8
FAB$CUT
 10
738.6929631417049
 20
285.9888940502727
 30
0.0
  0
VERTEX
  5
1E5
  8
FAB$CUT
 10
738.5367690598298
 20
285.980223820768
 30
0.0
  0
VERTEX
  5
1E6
  8
FAB$CUT
 10
738.3805783418256
 20
285.9746401912105
 30
0.0
  0
VERTEX
  5
1E7
  8
FAB$CUT
 10
738.2243906945112
 20
285.972056202862
 30
0.0
  0
VERTEX
  5
1E8
  8
FAB$CUT
 10
738.0682058247048
 20
285.9723848969845
 30
0.0
  0
VERTEX
  5
1E9
  8
FAB$CUT
 10
737.9120234392253
 20
285.9755393148397
 30
0.0
  0
VERTEX
  5
1EA
  8
FAB$CUT
 10
737.5996649485207
 20
285.9899774867959
 30
0.0
  0
VERTEX
  5
1EB
  8
FAB$CUT
 10
737.2873128769462
 20
286.0146750488254
 30
0.0
  0
VERTEX
  5
1EC
  8
FAB$CUT
 10
736.9749648790505
 20
286.0489363310232
 30
0.0
  0
VERTEX
  5
1ED
  8
FAB$CUT
 10
736.6626186093822
 20
286.0920656634842
 30
0.0
  0
VERTEX
  5
1EE
  8
FAB$CUT
 10
736.3502717224899
 20
286.1433673763032
 30
0.0
  0
VERTEX
  5
1EF
  8
FAB$CUT
 10
736.0379218729224
 20
286.2021457995752
 30
0.0
  0
VERTEX
  5
1F0
  8
FAB$CUT
 10
735.7255667152283
 20
286.267705263395
 30
0.0
  0
VERTEX
  5
1F1
  8
FAB$CUT
 10
735.1008310936554
 20
286.4163846330575
 30
0.0
  0
VERTEX
  5
1F2
  8
FAB$CUT
 10
734.4760460941606
 20
286.5838401260498
 30
0.0
  0
VERTEX
  5
1F3
  8
FAB$CUT
 10
731.3507237014877
 20
287.5079718675262
 30
0.0
  0
VERTEX
  5
1F4
  8
FAB$CUT
 10
730.7252483986396
 20
287.6712115564378
 30
0.0
  0
VERTEX
  5
1F5
  8
FAB$CUT
 10
730.4124441487427
 20
287.7456112140874
 30
0.0
  0
VERTEX
  5
1F6
  8
FAB$CUT
 10
730.0995923725957
 20
287.8142698539927
 30
0.0
  0
VERTEX
  5
1F7
  8
FAB$CUT
 10
729.786690724747
 20
287.8764918062486
 30
0.0
  0
VERTEX
  5
1F8
  8
FAB$CUT
 10
729.4737368597456
 20
287.9315814009499
 30
0.0
  0
VERTEX
  5
1F9
  8
FAB$CUT
 10
729.1607284321399
 20
287.9788429681915
 30
0.0
  0
VERTEX
  5
1FA
  8
FAB$CUT
 10
728.8476630964785
 20
288.0175808380684
 30
0.0
  0
VERTEX
  5
1FB
  8
FAB$CUT
 10
728.5345403589824
 20
288.0472817180234
 30
0.0
  0
VERTEX
  5
1FC
  8
FAB$CUT
 10
728.2213671325608
 20
288.0681618248916
 30
0.0
  0
VERTEX
  5
1FD
  8
FAB$CUT
 10
727.9081521817945
 20
288.0806197528561
 30
0.0
  0
VERTEX
  5
1FE
  8
FAB$CUT
 10
727.5949042712652
 20
288.0850540961
 30
0.0
  0
VERTEX
  5
1FF
  8
FAB$CUT
 10
727.2816321655539
 20
288.0818634488062
 30
0.0
  0
VERTEX
  5
200
  8
FAB$CUT
 10
726.9683446292416
 20
288.071446405158
 30
0.0
  0
VERTEX
  5
201
  8
FAB$CUT
 10
726.6550504269098
 20
288.0542015593384
 30
0.0
  0
VERTEX
  5
202
  8
FAB$CUT
 10
726.3417583231395
 20
288.0305275055305
 30
0.0
  0
VERTEX
  5
203
  8
FAB$CUT
 10
726.0284770825122
 20
288.0008228379173
 30
0.0
  0
VERTEX
  5
204
  8
FAB$CUT
 10
725.7152154696087
 20
287.965486150682
 30
0.0
  0
VERTEX
  5
205
  8
FAB$CUT
 10
725.0887861852987
 20
287.8795110940772
 30
0.0
  0
VERTEX
  5
206
  8
FAB$CUT
 10
724.4625405868592
 20
287.7757910891808
 30
0.0
  0
VERTEX
  5
207
  8
FAB$CUT
 10
723.8365487909399
 20
287.6575148894574
 30
0.0
  0
VERTEX
  5
208
  8
FAB$CUT
 10
720.0898544007287
 20
286.820747793771
 30
0.0
  0
VERTEX
  5
209
  8
FAB$CUT
 10
718.8461653122707
 20
286.5699326936573
 30
0.0
  0
VERTEX
  5
20A
  8
FAB$CUT
 10
718.0156633640149
 20
286.4311722206767
 30
0.0
  0
VERTEX
  5
20B
  8
FAB$CUT
 10
717.1911444691556
 20
286.3206052222527
 30
0.0
  0
VERTEX
  5
20C
  8
FAB$CUT
 10
716.782502001388
 20
286.2767712673793
 30
0.0
  0
VERTEX
  5
20D
  8
FAB$CUT
 10
716.3770032985358
 20
286.241038070801
 30
0.0
  0
VERTEX
  5
20E
  8
FAB$CUT
 10
715.9751976944541
 20
286.2137564290698
 30
0.0
  0
VERTEX
  5
20F
  8
FAB$CUT
 10
715.5776345229986
 20
286.1952771387377
 30
0.0
  0
VERTEX
  5
210
  8
FAB$CUT
 10
715.1848631180244
 20
286.1859509963566
 30
0.0
  0
VERTEX
  5
211
  8
FAB$CUT
 10
714.7974328133872
 20
286.1861287984784
 30
0.0
  0
VERTEX
  5
212
  8
FAB$CUT
 10
714.4158929429423
 20
286.1961613416552
 30
0.0
  0
VERTEX
  5
213
  8
FAB$CUT
 10
714.0407928405448
 20
286.2163994224389
 30
0.0
  0
VERTEX
  5
214
  8
FAB$CUT
 10
713.6726818400505
 20
286.2471938373816
 30
0.0
  0
VERTEX
  5
215
  8
FAB$CUT
 10
713.3121092753146
 20
286.2888953830352
 30
0.0
  0
VERTEX
  5
216
  8
FAB$CUT
 10
713.1348215731858
 20
286.3139459538011
 30
0.0
  0
VERTEX
  5
217
  8
FAB$CUT
 10
712.9596244801926
 20
286.3418548559516
 30
0.0
  0
VERTEX
  5
218
  8
FAB$CUT
 10
712.7865866630666
 20
286.3726659390559
 30
0.0
  0
VERTEX
  5
219
  8
FAB$CUT
 10
712.6157767885397
 20
286.4064230526828
 30
0.0
  0
VERTEX
  5
21A
  8
FAB$CUT
 10
712.3535525588027
 20
286.4571068031366
 30
0.0
  0
VERTEX
  5
21B
  8
FAB$CUT
 10
712.2413499344773
 20
286.4751667031943
 30
0.0
  0
VERTEX
  5
21C
  8
FAB$CUT
 10
712.1176219547807
 20
286.4921173833761
 30
0.0
  0
VERTEX
  5
21D
  8
FAB$CUT
 10
711.9829197210258
 20
286.5068694165932
 30
0.0
  0
VERTEX
  5
21E
  8
FAB$CUT
 10
711.837862902508
 20
286.5182654990968
 30
0.0
  0
VERTEX
  5
21F
  8
FAB$CUT
 10
711.761672684022
 20
286.5223227143848
 30
0.0
  0
VERTEX
  5
220
  8
FAB$CUT
 10
711.6831753702442
 20
286.5250721571828
 30
0.0
  0
VERTEX
  5
221
  8
FAB$CUT
 10
711.6024836037537
 20
286.5263470967947
 30
0.0
  0
VERTEX
  5
222
  8
FAB$CUT
 10
711.5197210083983
 20
286.5259758343551
 30
0.0
  0
VERTEX
  5
223
  8
FAB$CUT
 10
711.4350232811698
 20
286.5237818874843
 30
0.0
  0
VERTEX
  5
224
  8
FAB$CUT
 10
711.3485392548314
 20
286.5195842847659
 30
0.0
  0
VERTEX
  5
225
  8
FAB$CUT
 10
711.2604319175972
 20
286.5131979800254
 30
0.0
  0
VERTEX
  5
226
  8
FAB$CUT
 10
711.1708793736209
 20
286.5044343963887
 30
0.0
  0
VERTEX
  5
227
  8
FAB$CUT
 10
711.0800757254776
 20
286.4931021097717
 30
0.0
  0
VERTEX
  5
228
  8
FAB$CUT
 10
710.9882318573195
 20
286.4790076807456
 30
0.0
  0
VERTEX
  5
229
  8
FAB$CUT
 10
710.8955760949872
 20
286.46195664258
 30
0.0
  0
VERTEX
  5
22A
  8
FAB$CUT
 10
710.8023547172153
 20
286.4417546516262
 30
0.0
  0
VERTEX
  5
22B
  8
FAB$CUT
 10
710.708832290256
 20
286.4182088040216
 30
0.0
  0
VERTEX
  5
22C
  8
FAB$CUT
 10
710.6620458972301
 20
286.4051224070582
 30
0.0
  0
VERTEX
  5
22D
  8
FAB$CUT
 10
710.6152917969284
 20
286.3911291199243
 30
0.0
  0
VERTEX
  5
22E
  8
FAB$CUT
 10
710.5686082224544
 20
286.3762059226782
 30
0.0
  0
VERTEX
  5
22F
  8
FAB$CUT
 10
710.5220345304128
 20
286.3603301931135
 30
0.0
  0
VERTEX
  5
230
  8
FAB$CUT
 10
710.475611182652
 20
286.3434797668738
 30
0.0
  0
VERTEX
  5
231
  8
FAB$CUT
 10
710.4293797232054
 20
286.32563299979
 30
0.0
  0
VERTEX
  5
232
  8
FAB$CUT
 10
710.3833827502237
 20
286.3067688323048
 30
0.0
  0
VERTEX
  5
233
  8
FAB$CUT
 10
710.3376638827135
 20
286.286866855829
 30
0.0
  0
VERTEX
  5
234
  8
FAB$CUT
 10
710.2922677219085
 20
286.2659073808529
 30
0.0
  0
VERTEX
  5
235
  8
FAB$CUT
 10
710.2472398071138
 20
286.2438715066074
 30
0.0
  0
VERTEX
  5
236
  8
FAB$CUT
 10
710.2026202713997
 20
286.220747320808
 30
0.0
  0
VERTEX
  5
237
  8
FAB$CUT
 10
710.1584244672869
 20
286.1965482493636
 30
0.0
  0
VERTEX
  5
238
  8
FAB$CUT
 10
710.1146610533157
 20
286.171294504774
 30
0.0
  0
VERTEX
  5
239
  8
FAB$CUT
 10
710.07133817138
 20
286.1450069014583
 30
0.0
  0
VERTEX
  5
23A
  8
FAB$CUT
 10
710.0284634420792
 20
286.1177068211515
 30
0.0
  0
VERTEX
  5
23B
  8
FAB$CUT
 10
709.9860439610896
 20
286.0894161778729
 30
0.0
  0
VERTEX
  5
23C
  8
FAB$CUT
 10
709.9440862965397
 20
286.0601573825675
 30
0.0
  0
VERTEX
  5
23D
  8
FAB$CUT
 10
709.902596487371
 20
286.0299533075233
 30
0.0
  0
VERTEX
  5
23E
  8
FAB$CUT
 10
709.8615800426652
 20
285.9988272506631
 30
0.0
  0
VERTEX
  5
23F
  8
FAB$CUT
 10
709.8210419419141
 20
285.9668028998072
 30
0.0
  0
VERTEX
  5
240
  8
FAB$CUT
 10
709.7809866362071
 20
285.9339042970039
 30
0.0
  0
VERTEX
  5
241
  8
FAB$CUT
 10
709.7414180503057
 20
285.9001558030172
 30
0.0
  0
VERTEX
  5
242
  8
FAB$CUT
 10
709.7023395855756
 20
285.8655820620613
 30
0.0
  0
VERTEX
  5
243
  8
FAB$CUT
 10
709.6637541237443
 20
285.8302079668671
 30
0.0
  0
VERTEX
  5
244
  8
FAB$CUT
 10
709.5880711655233
 20
285.7571593206363
 30
0.0
  0
VERTEX
  5
245
  8
FAB$CUT
 10
709.51438202797
 20
285.6812126775553
 30
0.0
  0
VERTEX
  5
246
  8
FAB$CUT
 10
709.4426916151
 20
285.6025726750444
 30
0.0
  0
VERTEX
  5
247
  8
FAB$CUT
 10
709.3729971259249
 20
285.5214447593174
 30
0.0
  0
VERTEX
  5
248
  8
FAB$CUT
 10
709.3052883331468
 20
285.4380342217081
 30
0.0
  0
VERTEX
  5
249
  8
FAB$CUT
 10
709.2395478918615
 20
285.3525452928827
 30
0.0
  0
VERTEX
  5
24A
  8
FAB$CUT
 10
709.1757516728767
 20
285.2651802999175
 30
0.0
  0
VERTEX
  5
24B
  8
FAB$CUT
 10
709.1138691153283
 20
285.1761388900438
 30
0.0
  0
VERTEX
  5
24C
  8
FAB$CUT
 10
709.0538635934246
 20
285.085617323741
 30
0.0
  0
VERTEX
  5
24D
  8
FAB$CUT
 10
708.9956927923581
 20
284.9938078387902
 30
0.0
  0
VERTEX
  5
24E
  8
FAB$CUT
 10
708.939309088698
 20
284.9008980859155
 30
0.0
  0
VERTEX
  5
24F
  8
FAB$CUT
 10
708.8316882157643
 20
284.7125025559262
 30
0.0
  0
VERTEX
  5
250
  8
FAB$CUT
 10
708.7305281459063
 20
284.5218232032918
 30
0.0
  0
VERTEX
  5
251
  8
FAB$CUT
 10
708.6352947462965
 20
284.3301546720519
 30
0.0
  0
VERTEX
  5
252
  8
FAB$CUT
 10
708.5454032938156
 20
284.1386874779398
 30
0.0
  0
SEQEND
  5
253
  8
FAB$CUT
  0
LINE
  5
254
  8
FAB$CUT
 10
694.2800581221807
 20
243.4249618903827
 30
0.0
 11
675.895049660212
 21
256.8755646503309
 31
0.0
  0
LINE
  5
255
  8
FAB$CUT
 10
696.167510290385
 20
245.7612433814207
 30
0.0
 11
677.6664216076479
 21
259.2967712552777
 31
0.0
  0
POLYLINE
  5
256
  8
FAB$CUT
 66
     1
 10
0.0
 20
0.0
 30
0.0
 70
     1
  0
VERTEX
  5
257
  8
FAB$CUT
 10
831.2356848958613
 20
177.0198365712564
 30
0.0
  0
VERTEX
  5
258
  8
FAB$CUT
 10
831.2356848958613
 20
183.3698365712564
 30
0.0
  0
VERTEX
  5
259
  8
FAB$CUT
 10
828.0606848958613
 20
183.3698365712564
 30
0.0
  0
VERTEX
  5
25A
  8
FAB$CUT
 10
828.0606848958613
 20
177.0198365712564
 30
0.0
  0
SEQEND
  5
25B
  8
FAB$CUT
  0
POLYLINE
  5
25D
  8
FAB$ENGRAVE
 66
     1
 10
0.0
 20
0.0
 30
0.0
 70
     1
  0
VERTEX
  5
25E
  8
FAB$ENGRAVE
 10
790.0876848958613
 20
202.1658365712564
 30
0.0
  0
VERTEX
  5
25F
  8
FAB$ENGRAVE
 10
790.0876848958615
 20
158.2238365712564
 30
0.0
  0
VERTEX
  5
260
  8
FAB$ENGRAVE
 10
824.8856848958616
 20
158.2238365712565
 30
0.0
  0
VERTEX
  5
261
  8
FAB$ENGRAVE
 10
824.8856848958613
 20
202.1658365712565
 30
0.0
  0
SEQEND
  5
262
  8
FAB$ENGRAVE
  0
POLYLINE
  5
263
  8
FAB$CUT
 66
     1
 10
0.0
 20
0.0
 30
0.0
 70
     1
  0
VERTEX
  5
264
  8
FAB$CUT
 10
783.7376848958614
 20
177.0198365712564
 30
0.0
  0
VERTEX
  5
265
  8
FAB$CUT
 10
783.7376848958614
 20
183.3698365712564
 30
0.0
  0
VERTEX
  5
266
  8
FAB$CUT
 10
786.9126848958614
 20
183.3698365712564
 30
0.0
  0
VERTEX
  5
267
  8
FAB$CUT
 10
786.9126848958614
 20
177.0198365712564
 30
0.0
  0
SEQEND
  5
268
  8
FAB$CUT
  0
POLYLINE
  5
269
  8
FAB$CUT
 66
     1
 10
0.0
 20
0.0
 30
0.0
 70
     1
  0
VERTEX
  5
26A
  8
FAB$CUT
 10
754.2736848958615
 20
177.0198365712564
 30
0.0
  0
VERTEX
  5
26B
  8
FAB$CUT
 10
754.2736848958615
 20
183.3698365712564
 30
0.0
  0
VERTEX
  5
26C
  8
FAB$CUT
 10
751.0986848958615
 20
183.3698365712564
 30
0.0
  0
VERTEX
  5
26D
  8
FAB$CUT
 10
751.0986848958615
 20
177.0198365712564
 30
0.0
  0
SEQEND
  5
26E
  8
FAB$CUT
  0
POLYLINE
  5
26F
  8
FAB$CUT
 66
     1
 10
0.0
 20
0.0
 30
0.0
 70
     1
  0
VERTEX
  5
270
  8
FAB$CUT
 10
714.2537799872069
 20
215.4333156155728
 30
0.0
  0
VERTEX
  5
271
  8
FAB$CUT
 10
714.2537799872069
 20
209.0833156155728
 30
0.0
  0
VERTEX
  5
272
  8
FAB$CUT
 10
717.4287799872069
 20
209.0833156155728
 30
0.0
  0
VERTEX
  5
273
  8
FAB$CUT
 10
717.4287799872069
 20
215.4333156155728
 30
0.0
  0
SEQEND
  5
274
  8
FAB$CUT
  0
POLYLINE
  5
275
  8
FAB$CUT
 66
     1
 10
0.0
 20
0.0
 30
0.0
 70
     1
  0
VERTEX
  5
276
  8
FAB$CUT
 10
685.805779987207
 20
215.4333156155728
 30
0.0
  0
VERTEX
  5
277
  8
FAB$CUT
 10
685.805779987207
 20
209.0833156155728
 30
0.0
  0
VERTEX
  5
278
  8
FAB$CUT
 10
682.630779987207
 20
209.0833156155728
 30
0.0
  0
VERTEX
  5
279
  8
FAB$CUT
 10
682.630779987207
 20
215.4333156155728
 30
0.0
  0
SEQEND
  5
27A
  8
FAB$CUT
  0
POLYLINE
  5
27B
  8
FAB$CUT
 66
     1
 10
0.0
 20
0.0
 30
0.0
 70
     1
  0
VERTEX
  5
27C
  8
FAB$CUT
 10
685.805779987207
 20
173.0833156155728
 30
0.0
  0
VERTEX
  5
27D
  8
FAB$CUT
 10
685.805779987207
 20
179.4333156155728
 30
0.0
  0
VERTEX
  5
27E
  8
FAB$CUT
 10
682.630779987207
 20
179.4333156155728
 30
0.0
  0
VERTEX
  5
27F
  8
FAB$CUT
 10
682.630779987207
 20
173.0833156155728
 30
0.0
  0
SEQEND
  5
280
  8
FAB$CUT
  0
POLYLINE
  5
281
  8
FAB$CUT
 66
     1
 10
0.0
 20
0.0
 30
0.0
 70
     1
  0
VERTEX
  5
282
  8
FAB$CUT
 10
714.2537799872069
 20
173.0833156155728
 30
0.0
  0
VERTEX
  5
283
  8
FAB$CUT
 10
714.2537799872069
 20
179.4333156155728
 30
0.0
  0
VERTEX
  5
284
  8
FAB$CUT
 10
717.4287799872069
 20
179.4333156155728
 30
0.0
  0
VERTEX
  5
285
  8
FAB$CUT
 10
717.4287799872069
 20
173.0833156155728
 30
0.0
  0
SEQEND
  5
286
  8
FAB$CUT
  0
POLYLINE
  5
287
  8
FAB$CUT
 66
     1
 10
0.0
 20
0.0
 30
0.0
 70
     1
  0
VERTEX
  5
288
  8
FAB$CUT
 10
660.0817839155891
 20
81.05962982663732
 30
0.0
  0
VERTEX
  5
289
  8
FAB$CUT
 10
660.0817839155891
 20
74.7096298266373
 30
0.0
  0
VERTEX
  5
28A
  8
FAB$CUT
 10
663.256783915589
 20
74.7096298266373
 30
0.0
  0
VERTEX
  5
28B
  8
FAB$CUT
 10
663.256783915589
 20
81.05962982663732
 30
0.0
  0
SEQEND
  5
28C
  8
FAB$CUT
  0
POLYLINE
  5
28D
  8
FAB$CUT
 66
     1
 10
0.0
 20
0.0
 30
0.0
 70
     1
  0
VERTEX
  5
28E
  8
FAB$CUT
 10
857.8517839155895
 20
81.05962982663732
 30
0.0
  0
VERTEX
  5
28F
  8
FAB$CUT
 10
857.8517839155895
 20
74.7096298266373
 30
0.0
  0
VERTEX
  5
290
  8
FAB$CUT
 10
854.6767839155896
 20
74.7096298266373
 30
0.0
  0
VERTEX
  5
291
  8
FAB$CUT
 10
854.6767839155896
 20
81.05962982663732
 30
0.0
  0
SEQEND
  5
292
  8
FAB$CUT
  0
POLYLINE
  5
293
  8
FAB$CUT
 66
     1
 10
0.0
 20
0.0
 30
0.0
 70
     1
  0
VERTEX
  5
294
  8
FAB$CUT
 10
827.4007100990256
 20
146.4646298266374
 30
0.0
  0
VERTEX
  5
295
  8
FAB$CUT
 10
833.7507100990256
 20
146.4646298266374
 30
0.0
  0
VERTEX
  5
296
  8
FAB$CUT
 10
833.7507100990256
 20
143.2896298266374
 30
0.0
  0
VERTEX
  5
297
  8
FAB$CUT
 10
827.4007100990256
 20
143.2896298266374
 30
0.0
  0
SEQEND
  5
298
  8
FAB$CUT
  0
LINE
  5
299
  8
FAB$CUT
 10
667.4416515855919
 20
192.7583156155729
 30
0.0
 11
592.2272745344169
 21
192.7583156155729
 31
0.0
  0
LINE
  5
29A
  8
FAB$CUT
 10
667.432023022759
 20
195.7583156155729
 30
0.0
 11
592.5321411126389
 21
195.7583156155729
 31
0.0
  0
LINE
  5
29B
  8
FAB$CUT
 10
701.5297799867997
 20
144.4723362763356
 30
0.0
 11
701.5297799867997
 21
128.1955333939403
 31
0.0
  0
LINE
  5
29C
  8
FAB$CUT
 10
698.5297799867997
 20
144.4627077134903
 30
0.0
 11
698.5297799867997
 21
126.9002015220375
 31
0.0
  0
POLYLINE
  5
29D
  8
FAB$CUT
 66
     1
 10
0.0
 20
0.0
 30
0.0
 70
     1
  0
VERTEX
  5
29E
  8
FAB$CUT
 10
735.3179932580052
 20
24.81853812122434
 30
0.0
  0
VERTEX
  5
29F
  8
FAB$CUT
 10
704.7486955563761
 20
24.81853812122436
 30
0.0
  0
VERTEX
  5
2A0
  8
FAB$CUT
 10
704.5030105288907
 20
24.8210017242887
 30
0.0
  0
VERTEX
  5
2A1
  8
FAB$CUT
 10
704.2552405978213
 20
24.82848005416766
 30
0.0
  0
VERTEX
  5
2A2
  8
FAB$CUT
 10
704.0055480530815
 20
24.84110129199968
 30
0.0
  0
VERTEX
  5
2A3
  8
FAB$CUT
 10
703.7541043697303
 20
24.85898903509557
 30
0.0
  0
VERTEX
  5
2A4
  8
FAB$CUT
 10
703.5010901004836
 20
24.88226172593681
 30
0.0
  0
VERTEX
  5
2A5
  8
FAB$CUT
 10
703.2466947216093
 20
24.91103207454192
 30
0.0
  0
VERTEX
  5
2A6
  8
FAB$CUT
 10
702.991116430366
 20
24.94540647747945
 30
0.0
  0
VERTEX
  5
2A7
  8
FAB$CUT
 10
702.7345618924345
 20
24.98548443705861
 30
0.0
  0
VERTEX
  5
2A8
  8
FAB$CUT
 10
702.4772459381219
 20
25.03135798446253
 30
0.0
  0
VERTEX
  5
2A9
  8
FAB$CUT
 10
702.2193912064753
 20
25.0831111107969
 30
0.0
  0
VERTEX
  5
2AA
  8
FAB$CUT
 10
701.9612277368589
 20
25.14081921020631
 30
0.0
  0
VERTEX
  5
2AB
  8
FAB$CUT
 10
701.7029925079636
 20
25.20454853935404
 30
0.0
  0
VERTEX
  5
2AC
  8
FAB$CUT
 10
701.4449289246999
 20
25.27435569766696
 30
0.0
  0
VERTEX
  5
2AD
  8
FAB$CUT
 10
701.1872862539016
 20
25.35028713280758
 30
0.0
  0
VERTEX
  5
2AE
  8
FAB$CUT
 10
700.9303190102835
 20
25.4323786758502
 30
0.0
  0
VERTEX
  5
2AF
  8
FAB$CUT
 10
700.6742862946095
 20
25.52065511060006
 30
0.0
  0
VERTEX
  5
2B0
  8
FAB$CUT
 10
700.4194510865668
 20
25.61512978140435
 30
0.0
  0
VERTEX
  5
2B1
  8
FAB$CUT
 10
700.166079495359
 20
25.71580424365683
 30
0.0
  0
VERTEX
  5
2B2
  8
FAB$CUT
 10
699.9144399715575
 20
25.82266796099479
 30
0.0
  0
VERTEX
  5
2B3
  8
FAB$CUT
 10
699.6648024842532
 20
25.93569805292684
 30
0.0
  0
VERTEX
  5
2B4
  8
FAB$CUT
 10
699.4174376680219
 20
26.05485909631322
 30
0.0
  0
VERTEX
  5
2B5
  8
FAB$CUT
 10
699.172615944673
 20
26.18010298375005
 30
0.0
  0
VERTEX
  5
2B6
  8
FAB$CUT
 10
698.930606625146
 20
26.31136884148688
 30
0.0
  0
VERTEX
  5
2B7
  8
FAB$CUT
 10
698.6916769972798
 20
26.44858300903785
 30
0.0
  0
VERTEX
  5
2B8
  8
FAB$CUT
 10
698.456091405475
 20
26.59165908213618
 30
0.0
  0
VERTEX
  5
2B9
  8
FAB$CUT
 10
698.2241103285107
 20
26.74049802013424
 30
0.0
  0
VERTEX
  5
2BA
  8
FAB$CUT
 10
697.995989461937
 20
26.89498831837661
 30
0.0
  0
VERTEX
  5
2BB
  8
FAB$CUT
 10
697.7719788115692
 20
27.05500624547594
 30
0.0
  0
VERTEX
  5
2BC
  8
FAB$CUT
 10
697.5523218046166
 20
27.22041614481274
 30
0.0
  0
VERTEX
  5
2BD
  8
FAB$CUT
 10
697.3372544249276
 20
27.3910707989668
 30
0.0
  0
VERTEX
  5
2BE
  8
FAB$CUT
 10
697.1270043786914
 20
27.56681185518019
 30
0.0
  0
VERTEX
  5
2BF
  8
FAB$CUT
 10
696.9217902967118
 20
27.7474703093589
 30
0.0
  0
VERTEX
  5
2C0
  8
FAB$CUT
 10
696.7218209790875
 20
27.932867045551
 30
0.0
  0
VERTEX
  5
2C1
  8
FAB$CUT
 10
696.527294687753
 20
28.12281342730244
 30
0.0
  0
VERTEX
  5
2C2
  8
FAB$CUT
 10
696.3383984919136
 20
28.31711193679603
 30
0.0
  0
VERTEX
  5
2C3
  8
FAB$CUT
 10
696.1553076708996
 20
28.51555685723207
 30
0.0
  0
VERTEX
  5
2C4
  8
FAB$CUT
 10
695.9781851784307
 20
28.71793499351714
 30
0.0
  0
VERTEX
  5
2C5
  8
FAB$CUT
 10
695.8071811716737
 20
28.92402642599637
 30
0.0
  0
VERTEX
  5
2C6
  8
FAB$CUT
 10
695.6424326078561
 20
29.13360529169936
 30
0.0
  0
VERTEX
  5
2C7
  8
FAB$CUT
 10
695.4840629105404
 20
29.34644058737296
 30
0.0
  0
VERTEX
  5
2C8
  8
FAB$CUT
 10
695.3321817069825
 20
29.56229698844797
 30
0.0
  0
VERTEX
  5
2C9
  8
FAB$CUT
 10
695.1868846373362
 20
29.78093567803288
 30
0.0
  0
VERTEX
  5
2CA
  8
FAB$CUT
 10
695.0482532357712
 20
30.00211518004363
 30
0.0
  0
VERTEX
  5
2CB
  8
FAB$CUT
 10
694.9163548829281
 20
30.22559219066436
 30
0.0
  0
VERTEX
  5
2CC
  8
FAB$CUT
 10
694.7912428284858
 20
30.45112240248509
 30
0.0
  0
VERTEX
  5
2CD
  8
FAB$CUT
 10
694.6729562820188
 20
30.67846131587593
 30
0.0
  0
VERTEX
  5
2CE
  8
FAB$CUT
 10
694.5615205697497
 20
30.90736503242718
 30
0.0
  0
VERTEX
  5
2CF
  8
FAB$CUT
 10
694.4569473542896
 20
31.13759102560567
 30
0.0
  0
VERTEX
  5
2D0
  8
FAB$CUT
 10
694.3592349139864
 20
31.36889888414274
 30
0.0
  0
VERTEX
  5
2D1
  8
FAB$CUT
 10
694.2683684780943
 20
31.60105102407161
 30
0.0
  0
VERTEX
  5
2D2
  8
FAB$CUT
 10
694.1843206136291
 20
31.83381336576403
 30
0.0
  0
VERTEX
  5
2D3
  8
FAB$CUT
 10
694.107051659477
 20
32.06695597277071
 30
0.0
  0
VERTEX
  5
2D4
  8
FAB$CUT
 10
694.0365102031126
 20
32.3002536497392
 30
0.0
  0
VERTEX
  5
2D5
  8
FAB$CUT
 10
693.9726335951078
 20
32.53348649715994
 30
0.0
  0
VERTEX
  5
2D6
  8
FAB$CUT
 10
693.915348496522
 20
32.7664404211685
 30
0.0
  0
VERTEX
  5
2D7
  8
FAB$CUT
 10
693.8645714542125
 20
32.99890759710296
 30
0.0
  0
VERTEX
  5
2D8
  8
FAB$CUT
 10
693.8202094991342
 20
33.23068688597506
 30
0.0
  0
VERTEX
  5
2D9
  8
FAB$CUT
 10
693.782160762747
 20
33.46158420345456
 30
0.0
  0
VERTEX
  5
2DA
  8
FAB$CUT
 10
693.750315106785
 20
33.69141284138573
 30
0.0
  0
VERTEX
  5
2DB
  8
FAB$CUT
 10
693.7245547617852
 20
33.91999374224737
 30
0.0
  0
VERTEX
  5
2DC
  8
FAB$CUT
 10
693.7047549699791
 20
34.14715572733037
 30
0.0
  0
VERTEX
  5
2DD
  8
FAB$CUT
 10
693.6907846283846
 20
34.37273567973784
 30
0.0
  0
VERTEX
  5
2DE
  8
FAB$CUT
 10
693.6825069281814
 20
34.59657868360837
 30
0.0
  0
VERTEX
  5
2DF
  8
FAB$CUT
 10
693.6797799867497
 20
34.81853812122441
 30
0.0
  0
VERTEX
  5
2E0
  8
FAB$CUT
 10
693.6797799867497
 20
118.6277153391754
 30
0.0
  0
VERTEX
  5
2E1
  8
FAB$CUT
 10
693.6825069281814
 20
118.8496747767915
 30
0.0
  0
VERTEX
  5
2E2
  8
FAB$CUT
 10
693.6907846283846
 20
119.073517780662
 30
0.0
  0
VERTEX
  5
2E3
  8
FAB$CUT
 10
693.7047549699793
 20
119.2990977330695
 30
0.0
  0
VERTEX
  5
2E4
  8
FAB$CUT
 10
693.7245547617852
 20
119.5262597181525
 30
0.0
  0
VERTEX
  5
2E5
  8
FAB$CUT
 10
693.7503151067854
 20
119.7548406190141
 30
0.0
  0
VERTEX
  5
2E6
  8
FAB$CUT
 10
693.782160762747
 20
119.9846692569453
 30
0.0
  0
VERTEX
  5
2E7
  8
FAB$CUT
 10
693.8202094991343
 20
120.2155665744248
 30
0.0
  0
VERTEX
  5
2E8
  8
FAB$CUT
 10
693.8645714542128
 20
120.4473458632969
 30
0.0
  0
VERTEX
  5
2E9
  8
FAB$CUT
 10
693.9153484965221
 20
120.6798130392313
 30
0.0
  0
VERTEX
  5
2EA
  8
FAB$CUT
 10
693.972633595108
 20
120.9127669632399
 30
0.0
  0
VERTEX
  5
2EB
  8
FAB$CUT
 10
694.0365102031125
 20
121.1459998106606
 30
0.0
  0
VERTEX
  5
2EC
  8
FAB$CUT
 10
694.1070516594772
 20
121.3792974876291
 30
0.0
  0
VERTEX
  5
2ED
  8
FAB$CUT
 10
694.1843206136292
 20
121.6124400946358
 30
0.0
  0
VERTEX
  5
2EE
  8
FAB$CUT
 10
694.2683684780944
 20
121.8452024363282
 30
0.0
  0
VERTEX
  5
2EF
  8
FAB$CUT
 10
694.3592349139864
 20
122.0773545762571
 30
0.0
  0
VERTEX
  5
2F0
  8
FAB$CUT
 10
694.4569473542898
 20
122.3086624347942
 30
0.0
  0
VERTEX
  5
2F1
  8
FAB$CUT
 10
694.5615205697499
 20
122.5388884279727
 30
0.0
  0
VERTEX
  5
2F2
  8
FAB$CUT
 10
694.672956282019
 20
122.7677921445239
 30
0.0
  0
VERTEX
  5
2F3
  8
FAB$CUT
 10
694.791242828486
 20
122.9951310579148
 30
0.0
  0
VERTEX
  5
2F4
  8
FAB$CUT
 10
694.9163548829282
 20
123.2206612697355
 30
0.0
  0
VERTEX
  5
2F5
  8
FAB$CUT
 10
695.0482532357714
 20
123.4441382803562
 30
0.0
  0
VERTEX
  5
2F6
  8
FAB$CUT
 10
695.1868846373366
 20
123.665317782367
 30
0.0
  0
VERTEX
  5
2F7
  8
FAB$CUT
 10
695.3321817069829
 20
123.8839564719519
 30
0.0
  0
VERTEX
  5
2F8
  8
FAB$CUT
 10
695.4840629105406
 20
124.0998128730269
 30
0.0
  0
VERTEX
  5
2F9
  8
FAB$CUT
 10
695.6424326078566
 20
124.3126481687005
 30
0.0
  0
VERTEX
  5
2FA
  8
FAB$CUT
 10
695.807181171674
 20
124.5222270344035
 30
0.0
  0
VERTEX
  5
2FB
  8
FAB$CUT
 10
695.9781851784311
 20
124.7283184668827
 30
0.0
  0
VERTEX
  5
2FC
  8
FAB$CUT
 10
696.1553076708999
 20
124.9306966031678
 30
0.0
  0
VERTEX
  5
2FD
  8
FAB$CUT
 10
696.338398491914
 20
125.1291415236038
 30
0.0
  0
VERTEX
  5
2FE
  8
FAB$CUT
 10
696.5272946877534
 20
125.3234400330974
 30
0.0
  0
VERTEX
  5
2FF
  8
FAB$CUT
 10
696.7218209790879
 20
125.5133864148489
 30
0.0
  0
VERTEX
  5
300
  8
FAB$CUT
 10
696.9217902967121
 20
125.6987831510409
 30
0.0
  0
VERTEX
  5
301
  8
FAB$CUT
 10
697.1270043786917
 20
125.8794416052197
 30
0.0
  0
VERTEX
  5
302
  8
FAB$CUT
 10
697.337254424928
 20
126.0551826614331
 30
0.0
  0
VERTEX
  5
303
  8
FAB$CUT
 10
697.552321804617
 20
126.2258373155871
 30
0.0
  0
VERTEX
  5
304
  8
FAB$CUT
 10
697.7719788115695
 20
126.3912472149239
 30
0.0
  0
VERTEX
  5
305
  8
FAB$CUT
 10
697.9959894619375
 20
126.5512651420232
 30
0.0
  0
VERTEX
  5
306
  8
FAB$CUT
 10
698.224110328511
 20
126.7057554402656
 30
0.0
  0
VERTEX
  5
307
  8
FAB$CUT
 10
698.4560914054754
 20
126.8545943782637
 30
0.0
  0
VERTEX
  5
308
  8
FAB$CUT
 10
698.6916769972801
 20
126.997670451362
 30
0.0
  0
VERTEX
  5
309
  8
FAB$CUT
 10
698.9306066251463
 20
127.1348846189129
 30
0.0
  0
VERTEX
  5
30A
  8
FAB$CUT
 10
699.1726159446732
 20
127.2661504766498
 30
0.0
  0
VERTEX
  5
30B
  8
FAB$CUT
 10
699.4174376680221
 20
127.3913943640866
 30
0.0
  0
VERTEX
  5
30C
  8
FAB$CUT
 10
699.6648024842534
 20
127.510555407473
 30
0.0
  0
VERTEX
  5
30D
  8
FAB$CUT
 10
699.9144399715581
 20
127.6235854994051
 30
0.0
  0
VERTEX
  5
30E
  8
FAB$CUT
 10
700.1660794953592
 20
127.730449216743
 30
0.0
  0
VERTEX
  5
30F
  8
FAB$CUT
 10
700.4194510865672
 20
127.8311236789955
 30
0.0
  0
VERTEX
  5
310
  8
FAB$CUT
 10
700.6742862946098
 20
127.9255983497998
 30
0.0
  0
VERTEX
  5
311
  8
FAB$CUT
 10
700.9303190102836
 20
128.0138747845496
 30
0.0
  0
VERTEX
  5
312
  8
FAB$CUT
 10
701.1872862539016
 20
128.0959663275922
 30
0.0
  0
VERTEX
  5
313
  8
FAB$CUT
 10
701.4449289246998
 20
128.1718977627328
 30
0.0
  0
VERTEX
  5
314
  8
FAB$CUT
 10
701.7029925079638
 20
128.2417049210458
 30
0.0
  0
VERTEX
  5
315
  8
FAB$CUT
 10
701.9612277368592
 20
128.3054342501935
 30
0.0
  0
VERTEX
  5
316
  8
FAB$CUT
 10
702.2193912064757
 20
128.3631423496029
 30
0.0
  0
VERTEX
  5
317
  8
FAB$CUT
 10
702.477245938122
 20
128.4148954759373
 30
0.0
  0
VERTEX
  5
318
  8
FAB$CUT
 10
702.7345618924348
 20
128.4607690233412
 30
0.0
  0
VERTEX
  5
319
  8
FAB$CUT
 10
702.9911164303662
 20
128.5008469829204
 30
0.0
  0
VERTEX
  5
31A
  8
FAB$CUT
 10
703.2466947216096
 20
128.5352213858579
 30
0.0
  0
VERTEX
  5
31B
  8
FAB$CUT
 10
703.5010901004839
 20
128.563991734463
 30
0.0
  0
VERTEX
  5
31C
  8
FAB$CUT
 10
703.7541043697304
 20
128.5872644253042
 30
0.0
  0
VERTEX
  5
31D
  8
FAB$CUT
 10
704.0055480530817
 20
128.6051521684001
 30
0.0
  0
VERTEX
  5
31E
  8
FAB$CUT
 10
704.2552405978215
 20
128.6177734062321
 30
0.0
  0
VERTEX
  5
31F
  8
FAB$CUT
 10
704.503010528891
 20
128.6252517361111
 30
0.0
  0
VERTEX
  5
320
  8
FAB$CUT
 10
704.7486955563762
 20
128.6277153391754
 30
0.0
  0
VERTEX
  5
321
  8
FAB$CUT
 10
735.3179932580052
 20
128.6277153391754
 30
0.0
  0
VERTEX
  5
322
  8
FAB$CUT
 10
735.5636782854906
 20
128.6252517361111
 30
0.0
  0
VERTEX
  5
323
  8
FAB$CUT
 10
735.8114482165599
 20
128.6177734062321
 30
0.0
  0
VERTEX
  5
324
  8
FAB$CUT
 10
736.0611407612998
 20
128.6051521684001
 30
0.0
  0
VERTEX
  5
325
  8
FAB$CUT
 10
736.3125844446511
 20
128.5872644253042
 30
0.0
  0
VERTEX
  5
326
  8
FAB$CUT
 10
736.5655987138978
 20
128.5639917344629
 30
0.0
  0
VERTEX
  5
327
  8
FAB$CUT
 10
736.819994092772
 20
128.5352213858579
 30
0.0
  0
VERTEX
  5
328
  8
FAB$CUT
 10
737.0755723840155
 20
128.5008469829203
 30
0.0
  0
VERTEX
  5
329
  8
FAB$CUT
 10
737.3321269219468
 20
128.4607690233412
 30
0.0
  0
VERTEX
  5
32A
  8
FAB$CUT
 10
737.5894428762596
 20
128.4148954759372
 30
0.0
  0
VERTEX
  5
32B
  8
FAB$CUT
 10
737.8472976079061
 20
128.3631423496029
 30
0.0
  0
VERTEX
  5
32C
  8
FAB$CUT
 10
738.1054610775225
 20
128.3054342501935
 30
0.0
  0
VERTEX
  5
32D
  8
FAB$CUT
 10
738.3636963064178
 20
128.2417049210457
 30
0.0
  0
VERTEX
  5
32E
  8
FAB$CUT
 10
738.6217598896817
 20
128.1718977627328
 30
0.0
  0
VERTEX
  5
32F
  8
FAB$CUT
 10
738.8794025604798
 20
128.0959663275922
 30
0.0
  0
VERTEX
  5
330
  8
FAB$CUT
 10
739.136369804098
 20
128.0138747845496
 30
0.0
  0
VERTEX
  5
331
  8
FAB$CUT
 10
739.3924025197718
 20
127.9255983497997
 30
0.0
  0
VERTEX
  5
332
  8
FAB$CUT
 10
739.6472377278144
 20
127.8311236789954
 30
0.0
  0
VERTEX
  5
333
  8
FAB$CUT
 10
739.9006093190224
 20
127.730449216743
 30
0.0
  0
VERTEX
  5
334
  8
FAB$CUT
 10
740.1522488428238
 20
127.623585499405
 30
0.0
  0
VERTEX
  5
335
  8
FAB$CUT
 10
740.4018863301281
 20
127.510555407473
 30
0.0
  0
VERTEX
  5
336
  8
FAB$CUT
 10
740.6492511463595
 20
127.3913943640866
 30
0.0
  0
VERTEX
  5
337
  8
FAB$CUT
 10
740.8940728697085
 20
127.2661504766498
 30
0.0
  0
VERTEX
  5
338
  8
FAB$CUT
 10
741.1360821892355
 20
127.1348846189129
 30
0.0
  0
VERTEX
  5
339
  8
FAB$CUT
 10
741.3750118171014
 20
126.9976704513619
 30
0.0
  0
VERTEX
  5
33A
  8
FAB$CUT
 10
741.6105974089061
 20
126.8545943782636
 30
0.0
  0
VERTEX
  5
33B
  8
FAB$CUT
 10
741.8425784858705
 20
126.7057554402655
 30
0.0
  0
VERTEX
  5
33C
  8
FAB$CUT
 10
742.0706993524442
 20
126.5512651420232
 30
0.0
  0
VERTEX
  5
33D
  8
FAB$CUT
 10
742.294710002812
 20
126.3912472149239
 30
0.0
  0
VERTEX
  5
33E
  8
FAB$CUT
 10
742.5143670097649
 20
126.2258373155871
 30
0.0
  0
VERTEX
  5
33F
  8
FAB$CUT
 10
742.7294343894537
 20
126.055182661433
 30
0.0
  0
VERTEX
  5
340
  8
FAB$CUT
 10
742.93968443569
 20
125.8794416052196
 30
0.0
  0
VERTEX
  5
341
  8
FAB$CUT
 10
743.1448985176694
 20
125.6987831510409
 30
0.0
  0
VERTEX
  5
342
  8
FAB$CUT
 10
743.3448678352938
 20
125.5133864148488
 30
0.0
  0
VERTEX
  5
343
  8
FAB$CUT
 10
743.5393941266282
 20
125.3234400330974
 30
0.0
  0
VERTEX
  5
344
  8
FAB$CUT
 10
743.7282903224677
 20
125.1291415236038
 30
0.0
  0
VERTEX
  5
345
  8
FAB$CUT
 10
743.9113811434817
 20
124.9306966031677
 30
0.0
  0
VERTEX
  5
346
  8
FAB$CUT
 10
744.0885036359504
 20
124.7283184668827
 30
0.0
  0
VERTEX
  5
347
  8
FAB$CUT
 10
744.2595076427075
 20
124.5222270344034
 30
0.0
  0
VERTEX
  5
348
  8
FAB$CUT
 10
744.424256206525
 20
124.3126481687004
 30
0.0
  0
VERTEX
  5
349
  8
FAB$CUT
 10
744.5826259038406
 20
124.0998128730268
 30
0.0
  0
VERTEX
  5
34A
  8
FAB$CUT
 10
744.7345071073986
 20
123.8839564719519
 30
0.0
  0
VERTEX
  5
34B
  8
FAB$CUT
 10
744.8798041770449
 20
123.665317782367
 30
0.0
  0
VERTEX
  5
34C
  8
FAB$CUT
 10
745.01843557861
 20
123.4441382803562
 30
0.0
  0
VERTEX
  5
34D
  8
FAB$CUT
 10
745.1503339314531
 20
123.2206612697355
 30
0.0
  0
VERTEX
  5
34E
  8
FAB$CUT
 10
745.2754459858955
 20
122.9951310579147
 30
0.0
  0
VERTEX
  5
34F
  8
FAB$CUT
 10
745.3937325323625
 20
122.7677921445239
 30
0.0
  0
VERTEX
  5
350
  8
FAB$CUT
 10
745.5051682446315
 20
122.5388884279726
 30
0.0
  0
VERTEX
  5
351
  8
FAB$CUT
 10
745.6097414600916
 20
122.3086624347942
 30
0.0
  0
VERTEX
  5
352
  8
FAB$CUT
 10
745.7074539003951
 20
122.0773545762571
 30
0.0
  0
VERTEX
  5
353
  8
FAB$CUT
 10
745.7983203362869
 20
121.8452024363282
 30
0.0
  0
VERTEX
  5
354
  8
FAB$CUT
 10
745.8823682007521
 20
121.6124400946358
 30
0.0
  0
VERTEX
  5
355
  8
FAB$CUT
 10
745.9596371549043
 20
121.3792974876291
 30
0.0
  0
VERTEX
  5
356
  8
FAB$CUT
 10
746.030178611269
 20
121.1459998106607
 30
0.0
  0
VERTEX
  5
357
  8
FAB$CUT
 10
746.0940552192734
 20
120.9127669632399
 30
0.0
  0
VERTEX
  5
358
  8
FAB$CUT
 10
746.1513403178593
 20
120.6798130392313
 30
0.0
  0
VERTEX
  5
359
  8
FAB$CUT
 10
746.2021173601687
 20
120.4473458632969
 30
0.0
  0
VERTEX
  5
35A
  8
FAB$CUT
 10
746.2464793152471
 20
120.2155665744248
 30
0.0
  0
VERTEX
  5
35B
  8
FAB$CUT
 10
746.2845280516343
 20
119.9846692569453
 30
0.0
  0
VERTEX
  5
35C
  8
FAB$CUT
 10
746.3163737075962
 20
119.7548406190141
 30
0.0
  0
VERTEX
  5
35D
  8
FAB$CUT
 10
746.3421340525962
 20
119.5262597181524
 30
0.0
  0
VERTEX
  5
35E
  8
FAB$CUT
 10
746.3619338444021
 20
119.2990977330695
 30
0.0
  0
VERTEX
  5
35F
  8
FAB$CUT
 10
746.3759041859968
 20
119.073517780662
 30
0.0
  0
VERTEX
  5
360
  8
FAB$CUT
 10
746.3841818862002
 20
118.8496747767915
 30
0.0
  0
VERTEX
  5
361
  8
FAB$CUT
 10
746.3869088276316
 20
118.6277153391754
 30
0.0
  0
VERTEX
  5
362
  8
FAB$CUT
 10
746.3869088276316
 20
34.81853812122431
 30
0.0
  0
VERTEX
  5
363
  8
FAB$CUT
 10
746.3841818861999
 20
34.59657868360824
 30
0.0
  0
VERTEX
  5
364
  8
FAB$CUT
 10
746.3759041859968
 20
34.37273567973772
 30
0.0
  0
VERTEX
  5
365
  8
FAB$CUT
 10
746.361933844402
 20
34.14715572733027
 30
0.0
  0
VERTEX
  5
366
  8
FAB$CUT
 10
746.342134052596
 20
33.91999374224725
 30
0.0
  0
VERTEX
  5
367
  8
FAB$CUT
 10
746.3163737075961
 20
33.69141284138562
 30
0.0
  0
VERTEX
  5
368
  8
FAB$CUT
 10
746.2845280516343
 20
33.46158420345445
 30
0.0
  0
VERTEX
  5
369
  8
FAB$CUT
 10
746.246479315247
 20
33.23068688597495
 30
0.0
  0
VERTEX
  5
36A
  8
FAB$CUT
 10
746.2021173601686
 20
32.99890759710286
 30
0.0
  0
VERTEX
  5
36B
  8
FAB$CUT
 10
746.1513403178593
 20
32.7664404211684
 30
0.0
  0
VERTEX
  5
36C
  8
FAB$CUT
 10
746.0940552192734
 20
32.53348649715985
 30
0.0
  0
VERTEX
  5
36D
  8
FAB$CUT
 10
746.0301786112689
 20
32.3002536497391
 30
0.0
  0
VERTEX
  5
36E
  8
FAB$CUT
 10
745.9596371549044
 20
32.06695597277062
 30
0.0
  0
VERTEX
  5
36F
  8
FAB$CUT
 10
745.8823682007522
 20
31.83381336576395
 30
0.0
  0
VERTEX
  5
370
  8
FAB$CUT
 10
745.7983203362871
 20
31.60105102407153
 30
0.0
  0
VERTEX
  5
371
  8
FAB$CUT
 10
745.7074539003951
 20
31.36889888414266
 30
0.0
  0
VERTEX
  5
372
  8
FAB$CUT
 10
745.6097414600916
 20
31.13759102560558
 30
0.0
  0
VERTEX
  5
373
  8
FAB$CUT
 10
745.5051682446317
 20
30.9073650324271
 30
0.0
  0
VERTEX
  5
374
  8
FAB$CUT
 10
745.3937325323625
 20
30.67846131587585
 30
0.0
  0
VERTEX
  5
375
  8
FAB$CUT
 10
745.2754459858954
 20
30.45112240248502
 30
0.0
  0
VERTEX
  5
376
  8
FAB$CUT
 10
745.1503339314531
 20
30.22559219066428
 30
0.0
  0
VERTEX
  5
377
  8
FAB$CUT
 10
745.01843557861
 20
30.00211518004356
 30
0.0
  0
VERTEX
  5
378
  8
FAB$CUT
 10
744.8798041770448
 20
29.78093567803281
 30
0.0
  0
VERTEX
  5
379
  8
FAB$CUT
 10
744.7345071073986
 20
29.56229698844791
 30
0.0
  0
VERTEX
  5
37A
  8
FAB$CUT
 10
744.5826259038407
 20
29.34644058737289
 30
0.0
  0
VERTEX
  5
37B
  8
FAB$CUT
 10
744.424256206525
 20
29.13360529169931
 30
0.0
  0
VERTEX
  5
37C
  8
FAB$CUT
 10
744.2595076427076
 20
28.92402642599631
 30
0.0
  0
VERTEX
  5
37D
  8
FAB$CUT
 10
744.0885036359505
 20
28.7179349935171
 30
0.0
  0
VERTEX
  5
37E
  8
FAB$CUT
 10
743.9113811434815
 20
28.51555685723202
 30
0.0
  0
VERTEX
  5
37F
  8
FAB$CUT
 10
743.7282903224677
 20
28.31711193679598
 30
0.0
  0
VERTEX
  5
380
  8
FAB$CUT
 10
743.5393941266279
 20
28.12281342730239
 30
0.0
  0
VERTEX
  5
381
  8
FAB$CUT
 10
743.3448678352937
 20
27.93286704555096
 30
0.0
  0
VERTEX
  5
382
  8
FAB$CUT
 10
743.1448985176694
 20
27.74747030935886
 30
0.0
  0
VERTEX
  5
383
  8
FAB$CUT
 10
742.93968443569
 20
27.56681185518015
 30
0.0
  0
VERTEX
  5
384
  8
FAB$CUT
 10
742.7294343894536
 20
27.39107079896677
 30
0.0
  0
VERTEX
  5
385
  8
FAB$CUT
 10
742.5143670097649
 20
27.22041614481271
 30
0.0
  0
VERTEX
  5
386
  8
FAB$CUT
 10
742.2947100028119
 20
27.05500624547591
 30
0.0
  0
VERTEX
  5
387
  8
FAB$CUT
 10
742.0706993524443
 20
26.89498831837659
 30
0.0
  0
VERTEX
  5
388
  8
FAB$CUT
 10
741.8425784858706
 20
26.74049802013421
 30
0.0
  0
VERTEX
  5
389
  8
FAB$CUT
 10
741.6105974089062
 20
26.59165908213615
 30
0.0
  0
VERTEX
  5
38A
  8
FAB$CUT
 10
741.3750118171015
 20
26.44858300903782
 30
0.0
  0
VERTEX
  5
38B
  8
FAB$CUT
 10
741.1360821892354
 20
26.31136884148685
 30
0.0
  0
VERTEX
  5
38C
  8
FAB$CUT
 10
740.8940728697083
 20
26.18010298375002
 30
0.0
  0
VERTEX
  5
38D
  8
FAB$CUT
 10
740.6492511463595
 20
26.05485909631319
 30
0.0
  0
VERTEX
  5
38E
  8
FAB$CUT
 10
740.4018863301281
 20
25.93569805292681
 30
0.0
  0
VERTEX
  5
38F
  8
FAB$CUT
 10
740.1522488428237
 20
25.82266796099476
 30
0.0
  0
VERTEX
  5
390
  8
FAB$CUT
 10
739.9006093190224
 20
25.7158042436568
 30
0.0
  0
VERTEX
  5
391
  8
FAB$CUT
 10
739.6472377278146
 20
25.61512978140434
 30
0.0
  0
VERTEX
  5
392
  8
FAB$CUT
 10
739.3924025197717
 20
25.52065511060004
 30
0.0
  0
VERTEX
  5
393
  8
FAB$CUT
 10
739.1363698040981
 20
25.43237867585018
 30
0.0
  0
VERTEX
  5
394
  8
FAB$CUT
 10
738.87940256048
 20
25.35028713280757
 30
0.0
  0
VERTEX
  5
395
  8
FAB$CUT
 10
738.6217598896818
 20
25.27435569766694
 30
0.0
  0
VERTEX
  5
396
  8
FAB$CUT
 10
738.3636963064179
 20
25.20454853935403
 30
0.0
  0
VERTEX
  5
397
  8
FAB$CUT
 10
738.1054610775224
 20
25.14081921020629
 30
0.0
  0
VERTEX
  5
398
  8
FAB$CUT
 10
737.8472976079061
 20
25.08311111079689
 30
0.0
  0
VERTEX
  5
399
  8
FAB$CUT
 10
737.5894428762596
 20
25.03135798446251
 30
0.0
  0
VERTEX
  5
39A
  8
FAB$CUT
 10
737.3321269219467
 20
24.9854844370586
 30
0.0
  0
VERTEX
  5
39B
  8
FAB$CUT
 10
737.0755723840155
 20
24.94540647747943
 30
0.0
  0
VERTEX
  5
39C
  8
FAB$CUT
 10
736.8199940927722
 20
24.91103207454191
 30
0.0
  0
VERTEX
  5
39D
  8
FAB$CUT
 10
736.5655987138979
 20
24.88226172593679
 30
0.0
  0
VERTEX
  5
39E
  8
FAB$CUT
 10
736.3125844446512
 20
24.85898903509555
 30
0.0
  0
VERTEX
  5
39F
  8
FAB$CUT
 10
736.0611407613
 20
24.84110129199966
 30
0.0
  0
VERTEX
  5
3A0
  8
FAB$CUT
 10
735.81144821656
 20
24.82848005416765
 30
0.0
  0
VERTEX
  5
3A1
  8
FAB$CUT
 10
735.5636782854904
 20
24.82100172428869
 30
0.0
  0
SEQEND
  5
3A2
  8
FAB$CUT
  0
CIRCLE
  5
3A3
  8
FAB$CUT
 10
700.0297799867498
 20
150.6426280036245
 30
0.0
 40
6.350000000000023
  0
LINE
  5
3A4
  8
FAB$CUT
 10
850.5015448084196
 20
195.7583156155729
 30
0.0
 11
925.4014267185397
 21
195.7583156155729
 31
0.0
  0
LINE
  5
3A5
  8
FAB$CUT
 10
850.4919162455867
 20
192.7583156155729
 30
0.0
 11
925.7062932967617
 21
192.7583156155729
 31
0.0
  0
POLYLINE
  5
3A6
  8
FAB$ENGRAVE
 66
     1
 10
0.0
 20
0.0
 30
0.0
 70
     1
  0
VERTEX
  5
3A7
  8
FAB$ENGRAVE
 10
682.8869088276316
 20
24.81853812122436
 30
0.0
  0
VERTEX
  5
3A8
  8
FAB$ENGRAVE
 10
746.3869088276316
 20
24.81853812122436
 30
0.0
  0
VERTEX
  5
3A9
  8
FAB$ENGRAVE
 10
746.3869088276316
 20
66.72853812122436
 30
0.0
  0
VERTEX
  5
3AA
  8
FAB$ENGRAVE
 10
682.8869088276316
 20
66.72853812122436
 30
0.0
  0
SEQEND
  5
3AB
  8
FAB$ENGRAVE
  0
POLYLINE
  5
3AC
  8
FAB$ENGRAVE
 66
     1
 10
0.0
 20
0.0
 30
0.0
 70
     1
  0
VERTEX
  5
3AD
  8
FAB$ENGRAVE
 10
682.9796776114065
 20
88.42566454330043
 30
0.0
  0
VERTEX
  5
3AE
  8
FAB$ENGRAVE
 10
789.6596776114064
 20
88.42566454330061
 30
0.0
  0
VERTEX
  5
3AF
  8
FAB$ENGRAVE
 10
789.6596776114064
 20
118.9056645433006
 30
0.0
  0
VERTEX
  5
3B0
  8
FAB$ENGRAVE
 10
682.9796776114065
 20
118.9056645433004
 30
0.0
  0
SEQEND
  5
3B1
  8
FAB$ENGRAVE
  0
POLYLINE
  5
3B2
  8
FAB$ENGRAVE
 66
     1
 10
0.0
 20
0.0
 30
0.0
 70
     1
  0
VERTEX
  5
3B3
  8
FAB$ENGRAVE
 10
757.4486848958614
 20
199.3718365712564
 30
0.0
  0
VERTEX
  5
3B4
  8
FAB$ENGRAVE
 10
757.4486848958614
 20
161.0178365712564
 30
0.0
  0
VERTEX
  5
3B5
  8
FAB$ENGRAVE
 10
780.5626848958615
 20
161.0178365712564
 30
0.0
  0
VERTEX
  5
3B6
  8
FAB$ENGRAVE
 10
780.5626848958615
 20
199.3718365712564
 30
0.0
  0
SEQEND
  5
3B7
  8
FAB$ENGRAVE
  0
POLYLINE
  5
3B8
  8
FAB$ENGRAVE
 66
     1
 10
0.0
 20
0.0
 30
0.0
 70
     1
  0
VERTEX
  5
3B9
  8
FAB$ENGRAVE
 10
851.6767839155895
 20
159.9683156155728
 30
0.0
  0
VERTEX
  5
3BA
  8
FAB$ENGRAVE
 10
925.3367839155894
 20
159.9683156155728
 30
0.0
  0
VERTEX
  5
3BB
  8
FAB$ENGRAVE
 10
925.3367839155894
 20
228.5483156155727
 30
0.0
  0
VERTEX
  5
3BC
  8
FAB$ENGRAVE
 10
851.6767839155895
 20
228.5483156155727
 30
0.0
  0
SEQEND
  5
3BD
  8
FAB$ENGRAVE
  0
POLYLINE
  5
3BE
  8
FAB$ENGRAVE
 66
     1
 10
0.0
 20
0.0
 30
0.0
 70
     1
  0
VERTEX
  5
3BF
  8
FAB$ENGRAVE
 10
592.5967839155893
 20
159.9683156155728
 30
0.0
  0
VERTEX
  5
3C0
  8
FAB$ENGRAVE
 10
666.2567839155893
 20
159.9683156155728
 30
0.0
  0
VERTEX
  5
3C1
  8
FAB$ENGRAVE
 10
666.2567839155893
 20
228.5483156155727
 30
0.0
  0
VERTEX
  5
3C2
  8
FAB$ENGRAVE
 10
592.5967839155893
 20
228.5483156155727
 30
0.0
  0
SEQEND
  5
3C3
  8
FAB$ENGRAVE
  0
POLYLINE
  5
3C4
  8
FAB$ENGRAVE
 66
     1
 10
0.0
 20
0.0
 30
0.0
 70
     1
  0
VERTEX
  5
3C5
  8
FAB$ENGRAVE
 10
720.8667839155894
 20
214.8731412851639
 30
0.0
  0
VERTEX
  5
3C6
  8
FAB$ENGRAVE
 10
797.0667839155893
 20
214.8731412851639
 30
0.0
  0
VERTEX
  5
3C7
  8
FAB$ENGRAVE
 10
797.0667839155893
 20
265.6731412851639
 30
0.0
  0
VERTEX
  5
3C8
  8
FAB$ENGRAVE
 10
720.8667839155894
 20
265.6731412851639
 30
0.0
  0
SEQEND
  5
3C9
  8
FAB$ENGRAVE
  0
CIRCLE
  5
3CA
  8
FAB$CUT
 10
844.3216245182855
 20
194.2583156155728
 30
0.0
 40
6.350000000000023
  0
CIRCLE
  5
3CB
  8
FAB$CUT
 10
673.6119433128933
 20
194.2583156155727
 30
0.0
 40
6.350000000000023
  0
CIRCLE
  5
3CC
  8
FAB$CUT
 10
728.3597839155891
 20
299.8361412851638
 30
0.0
 40
3.175000000000068
  0
CIRCLE
  5
3CD
  8
FAB$CUT
 10
758.9667839155892
 20
297.2961412851639
 30
0.0
 40
3.174999999999955
  0
CIRCLE
  5
3CE
  8
FAB$CUT
 10
789.5737839155893
 20
299.8361412851637
 30
0.0
 40
3.174999999999841
  0
LINE
  5
3CF
  8
FAB$ENGRAVE
 10
797.0667839155894
 20
291.073141285164
 30
0.0
 11
797.0667839155892
 21
311.3910713235028
 31
0.0
  0
LINE
  5
3D0
  8
FAB$ENGRAVE
 10
720.8667839155894
 20
291.0731412851637
 30
0.0
 11
797.0667839155894
 21
291.073141285164
 31
0.0
  0
LINE
  5
3D1
  8
FAB$ENGRAVE
 10
720.8667839155893
 20
311.3910713235027
 30
0.0
 11
720.8667839155894
 21
291.0731412851637
 31
0.0
  0
POLYLINE
  5
3D2
  8
FAB$CUT
 66
     1
 10
0.0
 20
0.0
 30
0.0
  0
VERTEX
  5
3D3
  8
FAB$CUT
 10
758.9667839155893
 20
2.954629826637341
 30
0.0
  0
VERTEX
  5
3D4
  8
FAB$CUT
 10
788.9172720550957
 20
2.606924564870006
 30
0.0
  0
VERTEX
  5
3D5
  8
FAB$CUT
 10
803.8450774611601
 20
2.08328734303318
 30
0.0
  0
VERTEX
  5
3D6
  8
FAB$CUT
 10
834.4722547833147
 20
0.2121235110593124
 30
0.0
  0
VERTEX
  5
3D7
  8
FAB$CUT
 10
838.2496479920728
 20
0.0630451869251922
 30
0.0
  0
VERTEX
  5
3D8
  8
FAB$CUT
 10
841.9529879653289
 20
0.0006150967041241
 30
0.0
  0
VERTEX
  5
3D9
  8
FAB$CUT
 10
845.5612794170729
 20
0.0472723215617709
 30
0.0
  0
VERTEX
  5
3DA
  8
FAB$CUT
 10
847.3232209204999
 20
0.118520890009382
 30
0.0
  0
VERTEX
  5
3DB
  8
FAB$CUT
 10
849.0535270612952
 20
0.2254559426637953
 30
0.0
  0
VERTEX
  5
3DC
  8
FAB$CUT
 10
850.7495734287077
 20
0.3708823646707188
 30
0.0
  0
VERTEX
  5
3DD
  8
FAB$CUT
 10
852.4087356119858
 20
0.5576050411758601
 30
0.0
  0
VERTEX
  5
3DE
  8
FAB$CUT
 10
854.0283892003787
 20
0.7884288573249272
 30
0.0
  0
VERTEX
  5
3DF
  8
FAB$CUT
 10
855.6059097831351
 20
1.066158698263628
 30
0.0
  0
VERTEX
  5
3E0
  8
FAB$CUT
 10
856.3780500690398
 20
1.223489904637125
 30
0.0
  0
VERTEX
  5
3E1
  8
FAB$CUT
 10
857.1386729495036
 20
1.39359944913767
 30
0.0
  0
VERTEX
  5
3E2
  8
FAB$CUT
 10
857.8874503731827
 20
1.576837942408478
 30
0.0
  0
VERTEX
  5
3E3
  8
FAB$CUT
 10
858.6240542887331
 20
1.773555995092762
 30
0.0
  0
VERTEX
  5
3E4
  8
FAB$CUT
 10
859.3481566448108
 20
1.984104217833735
 30
0.0
  0
VERTEX
  5
3E5
  8
FAB$CUT
 10
860.0594293900724
 20
2.20883322127461
 30
0.0
  0
VERTEX
  5
3E6
  8
FAB$CUT
 10
860.7575444731733
 20
2.448093616058602
 30
0.0
  0
VERTEX
  5
3E7
  8
FAB$CUT
 10
861.44217384277
 20
2.702236012828923
 30
0.0
  0
VERTEX
  5
3E8
  8
FAB$CUT
 10
862.1129894475184
 20
2.971611022228788
 30
0.0
  0
VERTEX
  5
3E9
  8
FAB$CUT
 10
862.769663236075
 20
3.256569254901409
 30
0.0
  0
VERTEX
  5
3EA
  8
FAB$CUT
 10
863.4118671570955
 20
3.557461321490001
 30
0.0
  0
VERTEX
  5
3EB
  8
FAB$CUT
 10
864.039273159236
 20
3.874637832637776
 30
0.0
  0
VERTEX
  5
3EC
  8
FAB$CUT
 10
864.6515531911527
 20
4.208449398987949
 30
0.0
  0
VERTEX
  5
3ED
  8
FAB$CUT
 10
865.2483792015018
 20
4.559246631183733
 30
0.0
  0
VERTEX
  5
3EE
  8
FAB$CUT
 10
865.8294231389394
 20
4.92738013986834
 30
0.0
  0
VERTEX
  5
3EF
  8
FAB$CUT
 10
866.1139243142713
 20
5.118057563719956
 30
0.0
  0
VERTEX
  5
3F0
  8
FAB$CUT
 10
866.3943569521214
 20
5.313200535684984
 30
0.0
  0
VERTEX
  5
3F1
  8
FAB$CUT
 10
866.6706800460715
 20
5.512852882093823
 30
0.0
  0
VERTEX
  5
3F2
  8
FAB$CUT
 10
866.942852589704
 20
5.717058429276879
 30
0.0
  0
VERTEX
  5
3F3
  8
FAB$CUT
 10
867.2108335766005
 20
5.925861003564551
 30
0.0
  0
VERTEX
  5
3F4
  8
FAB$CUT
 10
867.4745820003432
 20
6.139304431287239
 30
0.0
  0
VERTEX
  5
3F5
  8
FAB$CUT
 10
867.734056854514
 20
6.357432538775347
 30
0.0
  0
VERTEX
  5
3F6
  8
FAB$CUT
 10
867.9892171326953
 20
6.580289152359278
 30
0.0
  0
VERTEX
  5
3F7
  8
FAB$CUT
 10
868.2400218284686
 20
6.807918098369431
 30
0.0
  0
VERTEX
  5
3F8
  8
FAB$CUT
 10
868.4864299354163
 20
7.040363203136207
 30
0.0
  0
VERTEX
  5
3F9
  8
FAB$CUT
 10
868.7284004471202
 20
7.277668292990009
 30
0.0
  0
VERTEX
  5
3FA
  8
FAB$CUT
 10
868.9658923571621
 20
7.519877194261241
 30
0.0
  0
VERTEX
  5
3FB
  8
FAB$CUT
 10
869.1988646591246
 20
7.767033733280303
 30
0.0
  0
VERTEX
  5
3FC
  8
FAB$CUT
 10
869.4272763465892
 20
8.019181736377595
 30
0.0
  0
VERTEX
  5
3FD
  8
FAB$CUT
 10
869.6510864131382
 20
8.27636502988352
 30
0.0
  0
VERTEX
  5
3FE
  8
FAB$CUT
 10
869.8702538523535
 20
8.53862744012848
 30
0.0
  0
VERTEX
  5
3FF
  8
FAB$CUT
 10
870.084737657817
 20
8.806012793442875
 30
0.0
  0
VERTEX
  5
400
  8
FAB$CUT
 10
870.2944968231108
 20
9.07856491615711
 30
0.0
  0
VERTEX
  5
401
  8
FAB$CUT
 10
870.4995056402654
 20
9.356311723151475
 30
0.0
  0
VERTEX
  5
402
  8
FAB$CUT
 10
870.6997995951056
 20
9.63921748350583
 30
0.0
  0
VERTEX
  5
403
  8
FAB$CUT
 10
870.895429471904
 20
9.927230554849924
 30
0.0
  0
VERTEX
  5
404
  8
FAB$CUT
 10
871.086446054934
 20
10.22029929481351
 30
0.0
  0
VERTEX
  5
405
  8
FAB$CUT
 10
871.2729001284683
 20
10.51837206102633
 30
0.0
  0
VERTEX
  5
406
  8
FAB$CUT
 10
871.4548424767802
 20
10.82139721111814
 30
0.0
  0
VERTEX
  5
407
  8
FAB$CUT
 10
871.6323238841424
 20
11.12932310271869
 30
0.0
  0
VERTEX
  5
408
  8
FAB$CUT
 10
871.8053951348282
 20
11.44209809345773
 30
0.0
  0
VERTEX
  5
409
  8
FAB$CUT
 10
872.1385103032625
 20
12.08198880287027
 30
0.0
  0
VERTEX
  5
40A
  8
FAB$CUT
 10
872.454594256267
 20
12.74065620039377
 30
0.0
  0
VERTEX
  5
40B
  8
FAB$CUT
 10
872.7540532680262
 20
13.41768714706621
 30
0.0
  0
VERTEX
  5
40C
  8
FAB$CUT
 10
873.0372936127242
 20
14.1126685039256
 30
0.0
  0
VERTEX
  5
40D
  8
FAB$CUT
 10
873.3047215645449
 20
14.82518713200995
 30
0.0
  0
VERTEX
  5
40E
  8
FAB$CUT
 10
873.556743397673
 20
15.55482989235724
 30
0.0
  0
VERTEX
  5
40F
  8
FAB$CUT
 10
873.7937653862923
 20
16.30118364600547
 30
0.0
  0
VERTEX
  5
410
  8
FAB$CUT
 10
874.0161938045871
 20
17.06383525399264
 30
0.0
  0
VERTEX
  5
411
  8
FAB$CUT
 10
874.2244349267419
 20
17.84237157735676
 30
0.0
  0
VERTEX
  5
412
  8
FAB$CUT
 10
874.4188950269404
 20
18.63637947713582
 30
0.0
  0
VERTEX
  5
413
  8
FAB$CUT
 10
874.599980379367
 20
19.44544581436782
 30
0.0
  0
VERTEX
  5
414
  8
FAB$CUT
 10
874.7680972582061
 20
20.26915745009076
 30
0.0
  0
VERTEX
  5
415
  8
FAB$CUT
 10
875.067050691858
 20
21.95886406116144
 30
0.0
  0
VERTEX
  5
416
  8
FAB$CUT
 10
875.3190055213695
 20
23.70219419865186
 30
0.0
  0
VERTEX
  5
417
  8
FAB$CUT
 10
875.5272119402143
 20
25.495842750866
 30
0.0
  0
VERTEX
  5
418
  8
FAB$CUT
 10
875.6949201418662
 20
27.33650460610787
 30
0.0
  0
VERTEX
  5
419
  8
FAB$CUT
 10
875.8253803197986
 20
29.22087465268142
 30
0.0
  0
VERTEX
  5
41A
  8
FAB$CUT
 10
875.9218426674847
 20
31.14564777889068
 30
0.0
  0
VERTEX
  5
41B
  8
FAB$CUT
 10
876.025774646014
 20
35.10318282343222
 30
0.0
  0
VERTEX
  5
41C
  8
FAB$CUT
 10
875.9686731529587
 20
43.35766495351912
 30
0.0
  0
VERTEX
  5
41D
  8
FAB$CUT
 10
875.4936931914626
 20
64.73986548474784
 30
0.0
  0
VERTEX
  5
41E
  8
FAB$CUT
 10
875.5497565136686
 20
68.93266333490797
 30
0.0
  0
VERTEX
  5
41F
  8
FAB$CUT
 10
875.7126841013667
 20
73.04083419035803
 30
0.0
  0
VERTEX
  5
420
  8
FAB$CUT
 10
875.9876819147619
 20
77.06268303574984
 30
0.0
  0
VERTEX
  5
421
  8
FAB$CUT
 10
876.3757967965432
 20
81.00146403137923
 30
0.0
  0
VERTEX
  5
422
  8
FAB$CUT
 10
876.8780755893991
 20
84.86043133754205
 30
0.0
  0
VERTEX
  5
423
  8
FAB$CUT
 10
877.4955651360183
 20
88.6428391145341
 30
0.0
  0
VERTEX
  5
424
  8
FAB$CUT
 10
878.2293122790893
 20
92.35194152265122
 30
0.0
  0
VERTEX
  5
425
  8
FAB$CUT
 10
879.080363861301
 20
95.99099272218923
 30
0.0
  0
VERTEX
  5
426
  8
FAB$CUT
 10
879.5502059554246
 20
97.78526604383353
 30
0.0
  0
VERTEX
  5
427
  8
FAB$CUT
 10
880.0497667253419
 20
99.56324687344399
 30
0.0
  0
VERTEX
  5
428
  8
FAB$CUT
 10
880.5791770263886
 20
101.3253419810576
 30
0.0
  0
VERTEX
  5
429
  8
FAB$CUT
 10
881.1385677139008
 20
103.0719581367113
 30
0.0
  0
VERTEX
  5
42A
  8
FAB$CUT
 10
881.7280696432146
 20
104.8035021104421
 30
0.0
  0
VERTEX
  5
42B
  8
FAB$CUT
 10
882.347813669666
 20
106.520380672287
 30
0.0
  0
VERTEX
  5
42C
  8
FAB$CUT
 10
882.9979306485914
 20
108.2230005922829
 30
0.0
  0
VERTEX
  5
42D
  8
FAB$CUT
 10
883.6785514353265
 20
109.9117686404668
 30
0.0
  0
VERTEX
  5
42E
  8
FAB$CUT
 10
884.3898068852077
 20
111.5870915868758
 30
0.0
  0
VERTEX
  5
42F
  8
FAB$CUT
 10
885.1318278535709
 20
113.2493762015468
 30
0.0
  0
VERTEX
  5
430
  8
FAB$CUT
 10
885.9047451957523
 20
114.8990292545167
 30
0.0
  0
VERTEX
  5
431
  8
FAB$CUT
 10
886.7086897670879
 20
116.5364575158225
 30
0.0
  0
VERTEX
  5
432
  8
FAB$CUT
 10
887.5437924229138
 20
118.1620677555013
 30
0.0
  0
VERTEX
  5
433
  8
FAB$CUT
 10
888.410184018566
 20
119.77626674359
 30
0.0
  0
VERTEX
  5
434
  8
FAB$CUT
 10
889.3079954093807
 20
121.3794612501256
 30
0.0
  0
VERTEX
  5
435
  8
FAB$CUT
 10
890.2373574506939
 20
122.972058045145
 30
0.0
  0
VERTEX
  5
436
  8
FAB$CUT
 10
892.1912569061603
 20
126.1270855807834
 30
0.0
  0
VERTEX
  5
437
  8
FAB$CUT
 10
894.2686839727207
 20
129.2452433152036
 30
0.0
  0
VERTEX
  5
438
  8
FAB$CUT
 10
896.4494592183983
 20
132.3329844307153
 30
0.0
  0
VERTEX
  5
439
  8
FAB$CUT
 10
910.3366399869608
 20
150.6178893825908
 30
0.0
  0
VERTEX
  5
43A
  8
FAB$CUT
 10
912.5569612529771
 20
153.6913177936853
 30
0.0
  0
VERTEX
  5
43B
  8
FAB$CUT
 10
914.6852332028303
 20
156.7910734795691
 30
0.0
  0
VERTEX
  5
43C
  8
FAB$CUT
 10
916.6970311496104
 20
159.9242494269545
 30
0.0
  0
VERTEX
  5
43D
  8
FAB$CUT
 10
917.6516196571886
 20
161.5055865570579
 30
0.0
  0
VERTEX
  5
43E
  8
FAB$CUT
 10
918.5679304064072
 20
163.0979386225538
 30
0.0
  0
VERTEX
  5
43F
  8
FAB$CUT
 10
919.4429103114026
 20
164.7021922467812
 30
0.0
  0
VERTEX
  5
440
  8
FAB$CUT
 10
920.2735062863107
 20
166.3192340530792
 30
0.0
  0
VERTEX
  5
441
  8
FAB$CUT
 10
921.0566652452682
 20
167.9499506647867
 30
0.0
  0
VERTEX
  5
442
  8
FAB$CUT
 10
921.789334102411
 20
169.5952287052429
 30
0.0
  0
VERTEX
  5
443
  8
FAB$CUT
 10
922.4684597718755
 20
171.2559547977867
 30
0.0
  0
VERTEX
  5
444
  8
FAB$CUT
 10
923.0909891677978
 20
172.9330155657572
 30
0.0
  0
VERTEX
  5
445
  8
FAB$CUT
 10
923.3800761738482
 20
173.7779485228209
 30
0.0
  0
VERTEX
  5
446
  8
FAB$CUT
 10
923.6538692043143
 20
174.6272976324934
 30
0.0
  0
VERTEX
  5
447
  8
FAB$CUT
 10
923.9119866234631
 20
175.4811737226921
 30
0.0
  0
VERTEX
  5
448
  8
FAB$CUT
 10
924.1540467955615
 20
176.3396876213343
 30
0.0
  0
VERTEX
  5
449
  8
FAB$CUT
 10
924.3797381467159
 20
177.2028765329783
 30
0.0
  0
VERTEX
  5
44A
  8
FAB$CUT
 10
924.5890293503905
 20
178.0704831687456
 30
0.0
  0
VERTEX
  5
44B
  8
FAB$CUT
 10
924.781959141889
 20
178.9421766163984
 30
0.0
  0
VERTEX
  5
44C
  8
FAB$CUT
 10
924.958566256515
 20
179.8176259636991
 30
0.0
  0
VERTEX
  5
44D
  8
FAB$CUT
 10
925.118889429572
 20
180.69650029841
 30
0.0
  0
VERTEX
  5
44E
  8
FAB$CUT
 10
925.2629673963637
 20
181.5784687082933
 30
0.0
  0
VERTEX
  5
44F
  8
FAB$CUT
 10
925.3908388921936
 20
182.4632002811115
 30
0.0
  0
VERTEX
  5
450
  8
FAB$CUT
 10
925.5025426523653
 20
183.3503641046267
 30
0.0
  0
VERTEX
  5
451
  8
FAB$CUT
 10
925.5981174121823
 20
184.2396292666013
 30
0.0
  0
VERTEX
  5
452
  8
FAB$CUT
 10
925.6776019069484
 20
185.1306648547977
 30
0.0
  0
VERTEX
  5
453
  8
FAB$CUT
 10
925.7410348719673
 20
186.0231399569781
 30
0.0
  0
VERTEX
  5
454
  8
FAB$CUT
 10
925.788455042542
 20
186.9167236609048
 30
0.0
  0
VERTEX
  5
455
  8
FAB$CUT
 10
925.8199011539767
 20
187.8110850543401
 30
0.0
  0
VERTEX
  5
456
  8
FAB$CUT
 10
925.8354119415748
 20
188.7058932250464
 30
0.0
  0
VERTEX
  5
457
  8
FAB$CUT
 10
925.8350261406397
 20
189.600817260786
 30
0.0
  0
VERTEX
  5
458
  8
FAB$CUT
 10
925.8187824864754
 20
190.4955262493211
 30
0.0
  0
VERTEX
  5
459
  8
FAB$CUT
 10
925.7867197143852
 20
191.389689278414
 30
0.0
  0
VERTEX
  5
45A
  8
FAB$CUT
 10
925.7388765596727
 20
192.2829754358272
 30
0.0
  0
VERTEX
  5
45B
  8
FAB$CUT
 10
925.6752917576414
 20
193.1750538093229
 30
0.0
  0
VERTEX
  5
45C
  8
FAB$CUT
 10
925.5960040435953
 20
194.0655934866633
 30
0.0
  0
VERTEX
  5
45D
  8
FAB$CUT
 10
925.5010521528377
 20
194.9542635556109
 30
0.0
  0
VERTEX
  5
45E
  8
FAB$CUT
 10
925.3904748206721
 20
195.8407331039278
 30
0.0
  0
VERTEX
  5
45F
  8
FAB$CUT
 10
925.2643107824023
 20
196.7246712193766
 30
0.0
  0
VERTEX
  5
460
  8
FAB$CUT
 10
925.1225987733319
 20
197.6057469897193
 30
0.0
  0
VERTEX
  5
461
  8
FAB$CUT
 10
924.9653775287643
 20
198.4836295027184
 30
0.0
  0
VERTEX
  5
462
  8
FAB$CUT
 10
924.7926857840034
 20
199.357987846136
 30
0.0
  0
VERTEX
  5
463
  8
FAB$CUT
 10
924.6045622743525
 20
200.2284911077347
 30
0.0
  0
VERTEX
  5
464
  8
FAB$CUT
 10
924.4010457351151
 20
201.0948083752766
 30
0.0
  0
VERTEX
  5
465
  8
FAB$CUT
 10
924.1821749015951
 20
201.9566087365241
 30
0.0
  0
VERTEX
  5
466
  8
FAB$CUT
 10
923.947988509096
 20
202.8135612792395
 30
0.0
  0
VERTEX
  5
467
  8
FAB$CUT
 10
923.6985252929214
 20
203.665335091185
 30
0.0
  0
VERTEX
  5
468
  8
FAB$CUT
 10
923.433823988375
 20
204.5115992601231
 30
0.0
  0
VERTEX
  5
469
  8
FAB$CUT
 10
923.1539233307602
 20
205.3520228738159
 30
0.0
  0
VERTEX
  5
46A
  8
FAB$CUT
 10
922.8588620553805
 20
206.1862750200259
 30
0.0
  0
VERTEX
  5
46B
  8
FAB$CUT
 10
922.5486788975397
 20
207.0140247865153
 30
0.0
  0
VERTEX
  5
46C
  8
FAB$CUT
 10
922.2234125925415
 20
207.8349412610463
 30
0.0
  0
VERTEX
  5
46D
  8
FAB$CUT
 10
921.8831018756894
 20
208.6486935313815
 30
0.0
  0
VERTEX
  5
46E
  8
FAB$CUT
 10
921.5277854822866
 20
209.4549506852829
 30
0.0
  0
VERTEX
  5
46F
  8
FAB$CUT
 10
921.1575021476372
 20
210.2533818105131
 30
0.0
  0
VERTEX
  5
470
  8
FAB$CUT
 10
920.7722906070446
 20
211.0436559948342
 30
0.0
  0
VERTEX
  5
471
  8
FAB$CUT
 10
920.3721895958124
 20
211.8254423260085
 30
0.0
  0
VERTEX
  5
472
  8
FAB$CUT
 10
919.9572378492442
 20
212.5984098917984
 30
0.0
  0
VERTEX
  5
473
  8
FAB$CUT
 10
919.5274741026435
 20
213.3622277799662
 30
0.0
  0
VERTEX
  5
474
  8
FAB$CUT
 10
919.0829370913141
 20
214.1165650782743
 30
0.0
  0
VERTEX
  5
475
  8
FAB$CUT
 10
918.6236655505595
 20
214.8610908744848
 30
0.0
  0
VERTEX
  5
476
  8
FAB$CUT
 10
918.1496982156832
 20
215.5954742563601
 30
0.0
  0
VERTEX
  5
477
  8
FAB$CUT
 10
917.661073821989
 20
216.3193843116625
 30
0.0
  0
VERTEX
  5
478
  8
FAB$CUT
 10
917.1578311047804
 20
217.0324901281544
 30
0.0
  0
VERTEX
  5
479
  8
FAB$CUT
 10
916.6400087993609
 20
217.734460793598
 30
0.0
  0
VERTEX
  5
47A
  8
FAB$CUT
 10
916.1076456410342
 20
218.4249653957556
 30
0.0
  0
VERTEX
  5
47B
  8
FAB$CUT
 10
915.5607803651037
 20
219.1036730223896
 30
0.0
  0
VERTEX
  5
47C
  8
FAB$CUT
 10
914.9994517068733
 20
219.7702527612622
 30
0.0
  0
VERTEX
  5
47D
  8
FAB$CUT
 10
914.4236984016463
 20
220.4243737001358
 30
0.0
  0
VERTEX
  5
47E
  8
FAB$CUT
 10
913.8335591847265
 20
221.0657049267726
 30
0.0
  0
VERTEX
  5
47F
  8
FAB$CUT
 10
913.2290727914174
 20
221.6939155289351
 30
0.0
  0
VERTEX
  5
480
  8
FAB$CUT
 10
912.6102779570226
 20
222.3086745943854
 30
0.0
  0
VERTEX
  5
481
  8
FAB$CUT
 10
911.9772134168459
 20
222.909651210886
 30
0.0
  0
VERTEX
  5
482
  8
FAB$CUT
 10
911.3299179061904
 20
223.496514466199
 30
0.0
  0
VERTEX
  5
483
  8
FAB$CUT
 10
910.6684301603601
 20
224.0689334480869
 30
0.0
  0
VERTEX
  5
484
  8
FAB$CUT
 10
909.9927889146586
 20
224.6265772443118
 30
0.0
  0
VERTEX
  5
485
  8
FAB$CUT
 10
909.3030329043894
 20
225.1691149426362
 30
0.0
  0
VERTEX
  5
486
  8
FAB$CUT
 10
908.599200864856
 20
225.6962156308223
 30
0.0
  0
VERTEX
  5
487
  8
FAB$CUT
 10
907.8813315313621
 20
226.2075483966325
 30
0.0
  0
VERTEX
  5
488
  8
FAB$CUT
 10
907.1494636392111
 20
226.702782327829
 30
0.0
  0
VERTEX
  5
489
  8
FAB$CUT
 10
906.4037018613158
 20
227.181734311325
 30
0.0
  0
VERTEX
  5
48A
  8
FAB$CUT
 10
905.6444146210237
 20
227.6448124306363
 30
0.0
  0
VERTEX
  5
48B
  8
FAB$CUT
 10
904.8720362792915
 20
228.0925725684298
 30
0.0
  0
VERTEX
  5
48C
  8
FAB$CUT
 10
904.0870011970758
 20
228.5255706073722
 30
0.0
  0
VERTEX
  5
48D
  8
FAB$CUT
 10
903.2897437353333
 20
228.9443624301302
 30
0.0
  0
VERTEX
  5
48E
  8
FAB$CUT
 10
902.4806982550205
 20
229.3495039193705
 30
0.0
  0
VERTEX
  5
48F
  8
FAB$CUT
 10
901.660299117094
 20
229.74155095776
 30
0.0
  0
VERTEX
  5
490
  8
FAB$CUT
 10
900.8289806825106
 20
230.1210594279654
 30
0.0
  0
VERTEX
  5
491
  8
FAB$CUT
 10
899.1353233671992
 20
230.8446841944907
 30
0.0
  0
VERTEX
  5
492
  8
FAB$CUT
 10
897.4032011967392
 20
231.5248252802804
 30
0.0
  0
VERTEX
  5
493
  8
FAB$CUT
 10
895.6360890587837
 20
232.1659297466683
 30
0.0
  0
VERTEX
  5
494
  8
FAB$CUT
 10
893.8374618409854
 20
232.7724446549884
 30
0.0
  0
VERTEX
  5
495
  8
FAB$CUT
 10
890.1595617164724
 20
233.8994940427612
 30
0.0
  0
VERTEX
  5
496
  8
FAB$CUT
 10
871.0606181053465
 20
238.971368351099
 30
0.0
  0
VERTEX
  5
497
  8
FAB$CUT
 10
867.2935344939744
 20
240.1221041213621
 30
0.0
  0
VERTEX
  5
498
  8
FAB$CUT
 10
865.4391675968893
 20
240.7434230187387
 30
0.0
  0
VERTEX
  5
499
  8
FAB$CUT
 10
863.6088838224085
 20
241.4013053393905
 30
0.0
  0
VERTEX
  5
49A
  8
FAB$CUT
 10
861.8061580581852
 20
242.1001981446516
 30
0.0
  0
VERTEX
  5
49B
  8
FAB$CUT
 10
860.0344651918722
 20
242.8445484958559
 30
0.0
  0
VERTEX
  5
49C
  8
FAB$CUT
 10
858.2972801111224
 20
243.6388034543372
 30
0.0
  0
VERTEX
  5
49D
  8
FAB$CUT
 10
857.4427138927254
 20
244.0560348679737
 30
0.0
  0
VERTEX
  5
49E
  8
FAB$CUT
 10
856.598077703589
 20
244.4874100814297
 30
0.0
  0
VERTEX
  5
49F
  8
FAB$CUT
 10
855.7638059046699
 20
244.9334849773719
 30
0.0
  0
VERTEX
  5
4A0
  8
FAB$CUT
 10
854.9403328569248
 20
245.394815438467
 30
0.0
  0
VERTEX
  5
4A1
  8
FAB$CUT
 10
854.1280929213101
 20
245.871957347382
 30
0.0
  0
VERTEX
  5
4A2
  8
FAB$CUT
 10
853.3275204587826
 20
246.3654665867834
 30
0.0
  0
VERTEX
  5
4A3
  8
FAB$CUT
 10
852.5390498302991
 20
246.875899039338
 30
0.0
  0
VERTEX
  5
4A4
  8
FAB$CUT
 10
851.7631153968157
 20
247.4038105877126
 30
0.0
  0
VERTEX
  5
4A5
  8
FAB$CUT
 10
851.0001515192894
 20
247.9497571145739
 30
0.0
  0
VERTEX
  5
4A6
  8
FAB$CUT
 10
850.2505925586767
 20
248.5142945025887
 30
0.0
  0
VERTEX
  5
4A7
  8
FAB$CUT
 10
849.5147610381795
 20
249.0977878384876
 30
0.0
  0
VERTEX
  5
4A8
  8
FAB$CUT
 10
848.7925321299804
 20
249.6998390252576
 30
0.0
  0
VERTEX
  5
4A9
  8
FAB$CUT
 10
848.0836691685074
 20
250.3198591699496
 30
0.0
  0
VERTEX
  5
4AA
  8
FAB$CUT
 10
847.3879354881888
 20
250.9572593796145
 30
0.0
  0
VERTEX
  5
4AB
  8
FAB$CUT
 10
846.705094423452
 20
251.6114507613031
 30
0.0
  0
VERTEX
  5
4AC
  8
FAB$CUT
 10
846.0349093087252
 20
252.2818444220663
 30
0.0
  0
VERTEX
  5
4AD
  8
FAB$CUT
 10
845.3771434784363
 20
252.9678514689551
 30
0.0
  0
VERTEX
  5
4AE
  8
FAB$CUT
 10
844.7315602670133
 20
253.6688830090204
 30
0.0
  0
VERTEX
  5
4AF
  8
FAB$CUT
 10
844.097923008884
 20
254.3843501493129
 30
0.0
  0
VERTEX
  5
4B0
  8
FAB$CUT
 10
843.4759950384764
 20
255.1136639968836
 30
0.0
  0
VERTEX
  5
4B1
  8
FAB$CUT
 10
842.2663202985382
 20
256.6114762420633
 30
0.0
  0
VERTEX
  5
4B2
  8
FAB$CUT
 10
841.1006427226223
 20
258.1576086009665
 30
0.0
  0
VERTEX
  5
4B3
  8
FAB$CUT
 10
839.9770689861521
 20
259.7473499300002
 30
0.0
  0
VERTEX
  5
4B4
  8
FAB$CUT
 10
838.8937057645512
 20
261.3759890855717
 30
0.0
  0
VERTEX
  5
4B5
  8
FAB$CUT
 10
837.848659733243
 20
263.0388149240882
 30
0.0
  0
VERTEX
  5
4B6
  8
FAB$CUT
 10
836.8400375676513
 20
264.7311163019567
 30
0.0
  0
VERTEX
  5
4B7
  8
FAB$CUT
 10
835.8659459431993
 20
266.4481820755842
 30
0.0
  0
VERTEX
  5
4B8
  8
FAB$CUT
 10
834.0137810194093
 20
269.9377622357453
 30
0.0
  0
VERTEX
  5
4B9
  8
FAB$CUT
 10
832.2770183652613
 20
273.4698662558283
 30
0.0
  0
VERTEX
  5
4BA
  8
FAB$CUT
 10
829.0891134794439
 20
280.5108892807885
 30
0.0
  0
VERTEX
  5
4BB
  8
FAB$CUT
 10
823.4316806925967
 20
293.4448991050817
 30
0.0
  0
VERTEX
  5
4BC
  8
FAB$CUT
 10
822.0786292208139
 20
296.2193739798151
 30
0.0
  0
VERTEX
  5
4BD
  8
FAB$CUT
 10
821.4008862084913
 20
297.51184599022
 30
0.0
  0
VERTEX
  5
4BE
  8
FAB$CUT
 10
820.7198072457793
 20
298.7348595245265
 30
0.0
  0
VERTEX
  5
4BF
  8
FAB$CUT
 10
820.0338252100727
 20
299.8848749298432
 30
0.0
  0
VERTEX
  5
4C0
  8
FAB$CUT
 10
819.3426777866509
 20
300.9630385160841
 30
0.0
  0
VERTEX
  5
4C1
  8
FAB$CUT
 10
818.995187019313
 20
301.4759001897434
 30
0.0
  0
VERTEX
  5
4C2
  8
FAB$CUT
 10
818.6464288627653
 20
301.9716680838644
 30
0.0
  0
VERTEX
  5
4C3
  8
FAB$CUT
 10
818.2964113029145
 20
302.4506319235241
 30
0.0
  0
VERTEX
  5
4C4
  8
FAB$CUT
 10
817.9451423256669
 20
302.9130814337994
 30
0.0
  0
VERTEX
  5
4C5
  8
FAB$CUT
 10
817.5926299169287
 20
303.3593063397674
 30
0.0
  0
VERTEX
  5
4C6
  8
FAB$CUT
 10
817.2388820626065
 20
303.7895963665047
 30
0.0
  0
VERTEX
  5
4C7
  8
FAB$CUT
 10
816.8839067486065
 20
304.2042412390884
 30
0.0
  0
VERTEX
  5
4C8
  8
FAB$CUT
 10
816.5277119608351
 20
304.6035306825955
 30
0.0
  0
VERTEX
  5
4C9
  8
FAB$CUT
 10
816.1703056851986
 20
304.9877544221028
 30
0.0
  0
VERTEX
  5
4CA
  8
FAB$CUT
 10
815.8116959076036
 20
305.3572021826872
 30
0.0
  0
VERTEX
  5
4CB
  8
FAB$CUT
 10
815.4518906139564
 20
305.7121636894257
 30
0.0
  0
VERTEX
  5
4CC
  8
FAB$CUT
 10
815.0908977901631
 20
306.0529286673951
 30
0.0
  0
VERTEX
  5
4CD
  8
FAB$CUT
 10
814.7287254221303
 20
306.3797868416724
 30
0.0
  0
VERTEX
  5
4CE
  8
FAB$CUT
 10
814.3653814957645
 20
306.6930279373345
 30
0.0
  0
VERTEX
  5
4CF
  8
FAB$CUT
 10
814.000873996972
 20
306.9929416794583
 30
0.0
  0
VERTEX
  5
4D0
  8
FAB$CUT
 10
813.635210911659
 20
307.2798177931209
 30
0.0
  0
VERTEX
  5
4D1
  8
FAB$CUT
 10
813.268400225732
 20
307.5539460033989
 30
0.0
  0
VERTEX
  5
4D2
  8
FAB$CUT
 10
812.9004499250974
 20
307.8156160353695
 30
0.0
  0
VERTEX
  5
4D3
  8
FAB$CUT
 10
812.5313679956615
 20
308.0651176141096
 30
0.0
  0
VERTEX
  5
4D4
  8
FAB$CUT
 10
812.1611624233308
 20
308.3027404646958
 30
0.0
  0
VERTEX
  5
4D5
  8
FAB$CUT
 10
811.7898411940114
 20
308.5287743122054
 30
0.0
  0
VERTEX
  5
4D6
  8
FAB$CUT
 10
811.4174122936099
 20
308.7435088817151
 30
0.0
  0
VERTEX
  5
4D7
  8
FAB$CUT
 10
811.0438837080326
 20
308.9472338983019
 30
0.0
  0
VERTEX
  5
4D8
  8
FAB$CUT
 10
810.6692634231858
 20
309.1402390870427
 30
0.0
  0
VERTEX
  5
4D9
  8
FAB$CUT
 10
810.293559424976
 20
309.3228141730144
 30
0.0
  0
VERTEX
  5
4DA
  8
FAB$CUT
 10
809.9167796993097
 20
309.4952488812939
 30
0.0
  0
VERTEX
  5
4DB
  8
FAB$CUT
 10
809.538932232093
 20
309.6578329369582
 30
0.0
  0
VERTEX
  5
4DC
  8
FAB$CUT
 10
809.1600250092323
 20
309.8108560650843
 30
0.0
  0
VERTEX
  5
4DD
  8
FAB$CUT
 10
808.7800660166341
 20
309.9546079907489
 30
0.0
  0
VERTEX
  5
4DE
  8
FAB$CUT
 10
808.3990632402048
 20
310.089378439029
 30
0.0
  0
VERTEX
  5
4DF
  8
FAB$CUT
 10
808.0170246658506
 20
310.2154571350015
 30
0.0
  0
VERTEX
  5
4E0
  8
FAB$CUT
 10
807.6339582794781
 20
310.3331338037434
 30
0.0
  0
VERTEX
  5
4E1
  8
FAB$CUT
 10
807.2498720669934
 20
310.4426981703315
 30
0.0
  0
VERTEX
  5
4E2
  8
FAB$CUT
 10
806.8647740143031
 20
310.5444399598429
 30
0.0
  0
VERTEX
  5
4E3
  8
FAB$CUT
 10
806.4786721073135
 20
310.6386488973544
 30
0.0
  0
VERTEX
  5
4E4
  8
FAB$CUT
 10
806.0915743319308
 20
310.7256147079429
 30
0.0
  0
VERTEX
  5
4E5
  8
FAB$CUT
 10
805.3144231196123
 20
310.8789758486586
 30
0.0
  0
VERTEX
  5
4E6
  8
FAB$CUT
 10
804.5333842645986
 20
311.0068411826055
 30
0.0
  0
VERTEX
  5
4E7
  8
FAB$CUT
 10
803.7485216541404
 20
311.1115285103988
 30
0.0
  0
VERTEX
  5
4E8
  8
FAB$CUT
 10
802.959899175489
 20
311.195355632654
 30
0.0
  0
VERTEX
  5
4E9
  8
FAB$CUT
 10
802.1675807158953
 20
311.2606403499864
 30
0.0
  0
VERTEX
  5
4EA
  8
FAB$CUT
 10
801.3716301626102
 20
311.3097004630114
 30
0.0
  0
VERTEX
  5
4EB
  8
FAB$CUT
 10
799.7690883239698
 20
311.3684180786003
 30
0.0
  0
VERTEX
  5
4EC
  8
FAB$CUT
 10
758.9667839155893
 20
311.3931412851639
 30
0.0
  0
SEQEND
  5
4ED
  8
FAB$CUT
  0
CIRCLE
  5
4EE
  8
FAB$CUT
 10
700.0297799872069
 20
240.7208691106923
 30
0.0
 40
6.350000000000023
  0
POLYLINE
  5
4EF
  8
FAB$ENGRAVE
 66
     1
 10
0.0
 20
0.0
 30
0.0
 70
     1
  0
VERTEX
  5
4F0
  8
FAB$ENGRAVE
 10
711.078779987207
 20
158.6983156155728
 30
0.0
  0
VERTEX
  5
4F1
  8
FAB$ENGRAVE
 10
711.078779987207
 20
229.8183156155728
 30
0.0
  0
VERTEX
  5
4F2
  8
FAB$ENGRAVE
 10
688.9807799872069
 20
229.8183156155728
 30
0.0
  0
VERTEX
  5
4F3
  8
FAB$ENGRAVE
 10
688.9807799872069
 20
158.6983156155728
 30
0.0
  0
SEQEND
  5
4F4
  8
FAB$ENGRAVE
  0
POLYLINE
  5
4F5
  8
FAB$CUT
 66
     1
 10
0.0
 20
0.0
 30
0.0
  0
VERTEX
  5
4F6
  8
FAB$CUT
 10
758.9667839155893
 20
2.954629826637341
 30
0.0
  0
VERTEX
  5
4F7
  8
FAB$CUT
 10
729.016295776083
 20
2.606924564870006
 30
0.0
  0
VERTEX
  5
4F8
  8
FAB$CUT
 10
714.0884903700187
 20
2.08328734303318
 30
0.0
  0
VERTEX
  5
4F9
  8
FAB$CUT
 10
683.461313047864
 20
0.2121235110593124
 30
0.0
  0
VERTEX
  5
4FA
  8
FAB$CUT
 10
679.6839198391059
 20
0.0630451869251922
 30
0.0
  0
VERTEX
  5
4FB
  8
FAB$CUT
 10
675.9805798658499
 20
0.0006150967041241
 30
0.0
  0
VERTEX
  5
4FC
  8
FAB$CUT
 10
672.3722884141059
 20
0.0472723215617709
 30
0.0
  0
VERTEX
  5
4FD
  8
FAB$CUT
 10
670.6103469106789
 20
0.118520890009382
 30
0.0
  0
VERTEX
  5
4FE
  8
FAB$CUT
 10
668.8800407698836
 20
0.2254559426637953
 30
0.0
  0
VERTEX
  5
4FF
  8
FAB$CUT
 10
667.1839944024712
 20
0.3708823646707188
 30
0.0
  0
VERTEX
  5
500
  8
FAB$CUT
 10
665.5248322191931
 20
0.5576050411758601
 30
0.0
  0
VERTEX
  5
501
  8
FAB$CUT
 10
663.9051786308002
 20
0.7884288573249272
 30
0.0
  0
VERTEX
  5
502
  8
FAB$CUT
 10
662.3276580480438
 20
1.066158698263628
 30
0.0
  0
VERTEX
  5
503
  8
FAB$CUT
 10
661.5555177621391
 20
1.223489904637125
 30
0.0
  0
VERTEX
  5
504
  8
FAB$CUT
 10
660.7948948816752
 20
1.39359944913767
 30
0.0
  0
VERTEX
  5
505
  8
FAB$CUT
 10
660.0461174579962
 20
1.576837942408478
 30
0.0
  0
VERTEX
  5
506
  8
FAB$CUT
 10
659.3095135424458
 20
1.773555995092762
 30
0.0
  0
VERTEX
  5
507
  8
FAB$CUT
 10
658.585411186368
 20
1.984104217833735
 30
0.0
  0
VERTEX
  5
508
  8
FAB$CUT
 10
657.8741384411064
 20
2.20883322127461
 30
0.0
  0
VERTEX
  5
509
  8
FAB$CUT
 10
657.1760233580055
 20
2.448093616058602
 30
0.0
  0
VERTEX
  5
50A
  8
FAB$CUT
 10
656.4913939884087
 20
2.702236012828923
 30
0.0
  0
VERTEX
  5
50B
  8
FAB$CUT
 10
655.8205783836602
 20
2.971611022228788
 30
0.0
  0
VERTEX
  5
50C
  8
FAB$CUT
 10
655.1639045951036
 20
3.256569254901409
 30
0.0
  0
VERTEX
  5
50D
  8
FAB$CUT
 10
654.5217006740831
 20
3.557461321490001
 30
0.0
  0
VERTEX
  5
50E
  8
FAB$CUT
 10
653.8942946719426
 20
3.874637832637776
 30
0.0
  0
VERTEX
  5
50F
  8
FAB$CUT
 10
653.2820146400259
 20
4.208449398987949
 30
0.0
  0
VERTEX
  5
510
  8
FAB$CUT
 10
652.6851886296768
 20
4.559246631183733
 30
0.0
  0
VERTEX
  5
511
  8
FAB$CUT
 10
652.1041446922392
 20
4.92738013986834
 30
0.0
  0
VERTEX
  5
512
  8
FAB$CUT
 10
651.8196435169073
 20
5.118057563719956
 30
0.0
  0
VERTEX
  5
513
  8
FAB$CUT
 10
651.5392108790572
 20
5.313200535684984
 30
0.0
  0
VERTEX
  5
514
  8
FAB$CUT
 10
651.2628877851071
 20
5.512852882093823
 30
0.0
  0
VERTEX
  5
515
  8
FAB$CUT
 10
650.9907152414746
 20
5.717058429276879
 30
0.0
  0
VERTEX
  5
516
  8
FAB$CUT
 10
650.7227342545781
 20
5.925861003564551
 30
0.0
  0
VERTEX
  5
517
  8
FAB$CUT
 10
650.4589858308354
 20
6.139304431287239
 30
0.0
  0
VERTEX
  5
518
  8
FAB$CUT
 10
650.1995109766646
 20
6.357432538775347
 30
0.0
  0
VERTEX
  5
519
  8
FAB$CUT
 10
649.9443506984833
 20
6.580289152359278
 30
0.0
  0
VERTEX
  5
51A
  8
FAB$CUT
 10
649.69354600271
 20
6.807918098369431
 30
0.0
  0
VERTEX
  5
51B
  8
FAB$CUT
 10
649.4471378957624
 20
7.040363203136207
 30
0.0
  0
VERTEX
  5
51C
  8
FAB$CUT
 10
649.2051673840587
 20
7.277668292990009
 30
0.0
  0
VERTEX
  5
51D
  8
FAB$CUT
 10
648.9676754740165
 20
7.519877194261241
 30
0.0
  0
VERTEX
  5
51E
  8
FAB$CUT
 10
648.7347031720542
 20
7.767033733280303
 30
0.0
  0
VERTEX
  5
51F
  8
FAB$CUT
 10
648.5062914845896
 20
8.019181736377595
 30
0.0
  0
VERTEX
  5
520
  8
FAB$CUT
 10
648.2824814180407
 20
8.27636502988352
 30
0.0
  0
VERTEX
  5
521
  8
FAB$CUT
 10
648.0633139788254
 20
8.53862744012848
 30
0.0
  0
VERTEX
  5
522
  8
FAB$CUT
 10
647.8488301733619
 20
8.806012793442875
 30
0.0
  0
VERTEX
  5
523
  8
FAB$CUT
 10
647.639071008068
 20
9.07856491615711
 30
0.0
  0
VERTEX
  5
524
  8
FAB$CUT
 10
647.4340621909132
 20
9.356311723151475
 30
0.0
  0
VERTEX
  5
525
  8
FAB$CUT
 10
647.233768236073
 20
9.63921748350583
 30
0.0
  0
VERTEX
  5
526
  8
FAB$CUT
 10
647.0381383592746
 20
9.927230554849924
 30
0.0
  0
VERTEX
  5
527
  8
FAB$CUT
 10
646.8471217762446
 20
10.22029929481351
 30
0.0
  0
VERTEX
  5
528
  8
FAB$CUT
 10
646.6606677027103
 20
10.51837206102633
 30
0.0
  0
VERTEX
  5
529
  8
FAB$CUT
 10
646.4787253543986
 20
10.82139721111814
 30
0.0
  0
VERTEX
  5
52A
  8
FAB$CUT
 10
646.3012439470363
 20
11.12932310271869
 30
0.0
  0
VERTEX
  5
52B
  8
FAB$CUT
 10
646.1281726963505
 20
11.44209809345773
 30
0.0
  0
VERTEX
  5
52C
  8
FAB$CUT
 10
645.7950575279162
 20
12.08198880287027
 30
0.0
  0
VERTEX
  5
52D
  8
FAB$CUT
 10
645.4789735749118
 20
12.74065620039377
 30
0.0
  0
VERTEX
  5
52E
  8
FAB$CUT
 10
645.1795145631527
 20
13.41768714706621
 30
0.0
  0
VERTEX
  5
52F
  8
FAB$CUT
 10
644.8962742184547
 20
14.1126685039256
 30
0.0
  0
VERTEX
  5
530
  8
FAB$CUT
 10
644.6288462666339
 20
14.82518713200995
 30
0.0
  0
VERTEX
  5
531
  8
FAB$CUT
 10
644.3768244335058
 20
15.55482989235724
 30
0.0
  0
VERTEX
  5
532
  8
FAB$CUT
 10
644.1398024448865
 20
16.30118364600547
 30
0.0
  0
VERTEX
  5
533
  8
FAB$CUT
 10
643.9173740265917
 20
17.06383525399264
 30
0.0
  0
VERTEX
  5
534
  8
FAB$CUT
 10
643.709132904437
 20
17.84237157735676
 30
0.0
  0
VERTEX
  5
535
  8
FAB$CUT
 10
643.5146728042384
 20
18.63637947713582
 30
0.0
  0
VERTEX
  5
536
  8
FAB$CUT
 10
643.3335874518118
 20
19.44544581436782
 30
0.0
  0
VERTEX
  5
537
  8
FAB$CUT
 10
643.1654705729727
 20
20.26915745009076
 30
0.0
  0
VERTEX
  5
538
  8
FAB$CUT
 10
642.8665171393208
 20
21.95886406116144
 30
0.0
  0
VERTEX
  5
539
  8
FAB$CUT
 10
642.6145623098091
 20
23.70219419865186
 30
0.0
  0
VERTEX
  5
53A
  8
FAB$CUT
 10
642.4063558909643
 20
25.495842750866
 30
0.0
  0
VERTEX
  5
53B
  8
FAB$CUT
 10
642.2386476893124
 20
27.33650460610787
 30
0.0
  0
VERTEX
  5
53C
  8
FAB$CUT
 10
642.10818751138
 20
29.22087465268142
 30
0.0
  0
VERTEX
  5
53D
  8
FAB$CUT
 10
642.0117251636939
 20
31.14564777889068
 30
0.0
  0
VERTEX
  5
53E
  8
FAB$CUT
 10
641.9077931851647
 20
35.10318282343222
 30
0.0
  0
VERTEX
  5
53F
  8
FAB$CUT
 10
641.9648946782199
 20
43.35766495351912
 30
0.0
  0
VERTEX
  5
540
  8
FAB$CUT
 10
642.439874639716
 20
64.73986548474784
 30
0.0
  0
VERTEX
  5
541
  8
FAB$CUT
 10
642.38381131751
 20
68.93266333490797
 30
0.0
  0
VERTEX
  5
542
  8
FAB$CUT
 10
642.2208837298119
 20
73.04083419035803
 30
0.0
  0
VERTEX
  5
543
  8
FAB$CUT
 10
641.9458859164167
 20
77.06268303574984
 30
0.0
  0
VERTEX
  5
544
  8
FAB$CUT
 10
641.5577710346354
 20
81.00146403137923
 30
0.0
  0
VERTEX
  5
545
  8
FAB$CUT
 10
641.0554922417795
 20
84.86043133754205
 30
0.0
  0
VERTEX
  5
546
  8
FAB$CUT
 10
640.4380026951602
 20
88.6428391145341
 30
0.0
  0
VERTEX
  5
547
  8
FAB$CUT
 10
639.7042555520892
 20
92.35194152265122
 30
0.0
  0
VERTEX
  5
548
  8
FAB$CUT
 10
638.8532039698775
 20
95.99099272218923
 30
0.0
  0
VERTEX
  5
549
  8
FAB$CUT
 10
638.3833618757537
 20
97.78526604383353
 30
0.0
  0
VERTEX
  5
54A
  8
FAB$CUT
 10
637.8838011058365
 20
99.56324687344399
 30
0.0
  0
VERTEX
  5
54B
  8
FAB$CUT
 10
637.3543908047898
 20
101.3253419810576
 30
0.0
  0
VERTEX
  5
54C
  8
FAB$CUT
 10
636.7950001172776
 20
103.0719581367113
 30
0.0
  0
VERTEX
  5
54D
  8
FAB$CUT
 10
636.2054981879638
 20
104.8035021104421
 30
0.0
  0
VERTEX
  5
54E
  8
FAB$CUT
 10
635.5857541615123
 20
106.520380672287
 30
0.0
  0
VERTEX
  5
54F
  8
FAB$CUT
 10
634.935637182587
 20
108.2230005922829
 30
0.0
  0
VERTEX
  5
550
  8
FAB$CUT
 10
634.2550163958518
 20
109.9117686404668
 30
0.0
  0
VERTEX
  5
551
  8
FAB$CUT
 10
633.5437609459707
 20
111.5870915868758
 30
0.0
  0
VERTEX
  5
552
  8
FAB$CUT
 10
632.8017399776074
 20
113.2493762015468
 30
0.0
  0
VERTEX
  5
553
  8
FAB$CUT
 10
632.0288226354261
 20
114.8990292545167
 30
0.0
  0
VERTEX
  5
554
  8
FAB$CUT
 10
631.2248780640905
 20
116.5364575158225
 30
0.0
  0
VERTEX
  5
555
  8
FAB$CUT
 10
630.3897754082648
 20
118.1620677555013
 30
0.0
  0
VERTEX
  5
556
  8
FAB$CUT
 10
629.5233838126126
 20
119.77626674359
 30
0.0
  0
VERTEX
  5
557
  8
FAB$CUT
 10
628.6255724217979
 20
121.3794612501256
 30
0.0
  0
VERTEX
  5
558
  8
FAB$CUT
 10
627.6962103804846
 20
122.972058045145
 30
0.0
  0
VERTEX
  5
559
  8
FAB$CUT
 10
625.7423109250182
 20
126.1270855807834
 30
0.0
  0
VERTEX
  5
55A
  8
FAB$CUT
 10
623.6648838584578
 20
129.2452433152036
 30
0.0
  0
VERTEX
  5
55B
  8
FAB$CUT
 10
621.4841086127802
 20
132.3329844307153
 30
0.0
  0
VERTEX
  5
55C
  8
FAB$CUT
 10
607.5969278442178
 20
150.6178893825908
 30
0.0
  0
VERTEX
  5
55D
  8
FAB$CUT
 10
605.3766065782015
 20
153.6913177936853
 30
0.0
  0
VERTEX
  5
55E
  8
FAB$CUT
 10
603.2483346283483
 20
156.7910734795691
 30
0.0
  0
VERTEX
  5
55F
  8
FAB$CUT
 10
601.2365366815682
 20
159.9242494269545
 30
0.0
  0
VERTEX
  5
560
  8
FAB$CUT
 10
600.28194817399
 20
161.5055865570579
 30
0.0
  0
VERTEX
  5
561
  8
FAB$CUT
 10
599.3656374247714
 20
163.0979386225538
 30
0.0
  0
VERTEX
  5
562
  8
FAB$CUT
 10
598.490657519776
 20
164.7021922467812
 30
0.0
  0
VERTEX
  5
563
  8
FAB$CUT
 10
597.6600615448679
 20
166.3192340530792
 30
0.0
  0
VERTEX
  5
564
  8
FAB$CUT
 10
596.8769025859104
 20
167.9499506647867
 30
0.0
  0
VERTEX
  5
565
  8
FAB$CUT
 10
596.1442337287676
 20
169.5952287052429
 30
0.0
  0
VERTEX
  5
566
  8
FAB$CUT
 10
595.4651080593031
 20
171.2559547977867
 30
0.0
  0
VERTEX
  5
567
  8
FAB$CUT
 10
594.8425786633808
 20
172.9330155657572
 30
0.0
  0
VERTEX
  5
568
  8
FAB$CUT
 10
594.5534916573304
 20
173.7779485228209
 30
0.0
  0
VERTEX
  5
569
  8
FAB$CUT
 10
594.2796986268643
 20
174.6272976324934
 30
0.0
  0
VERTEX
  5
56A
  8
FAB$CUT
 10
594.0215812077156
 20
175.4811737226921
 30
0.0
  0
VERTEX
  5
56B
  8
FAB$CUT
 10
593.7795210356172
 20
176.3396876213343
 30
0.0
  0
VERTEX
  5
56C
  8
FAB$CUT
 10
593.5538296844628
 20
177.2028765329783
 30
0.0
  0
VERTEX
  5
56D
  8
FAB$CUT
 10
593.3445384807882
 20
178.0704831687456
 30
0.0
  0
VERTEX
  5
56E
  8
FAB$CUT
 10
593.1516086892898
 20
178.9421766163984
 30
0.0
  0
VERTEX
  5
56F
  8
FAB$CUT
 10
592.9750015746638
 20
179.8176259636991
 30
0.0
  0
VERTEX
  5
570
  8
FAB$CUT
 10
592.8146784016068
 20
180.69650029841
 30
0.0
  0
VERTEX
  5
571
  8
FAB$CUT
 10
592.6706004348151
 20
181.5784687082933
 30
0.0
  0
VERTEX
  5
572
  8
FAB$CUT
 10
592.5427289389852
 20
182.4632002811115
 30
0.0
  0
VERTEX
  5
573
  8
FAB$CUT
 10
592.4310251788136
 20
183.3503641046267
 30
0.0
  0
VERTEX
  5
574
  8
FAB$CUT
 10
592.3354504189965
 20
184.2396292666013
 30
0.0
  0
VERTEX
  5
575
  8
FAB$CUT
 10
592.2559659242303
 20
185.1306648547977
 30
0.0
  0
VERTEX
  5
576
  8
FAB$CUT
 10
592.1925329592116
 20
186.0231399569781
 30
0.0
  0
VERTEX
  5
577
  8
FAB$CUT
 10
592.1451127886367
 20
186.9167236609048
 30
0.0
  0
VERTEX
  5
578
  8
FAB$CUT
 10
592.1136666772019
 20
187.8110850543401
 30
0.0
  0
VERTEX
  5
579
  8
FAB$CUT
 10
592.0981558896038
 20
188.7058932250464
 30
0.0
  0
VERTEX
  5
57A
  8
FAB$CUT
 10
592.0985416905389
 20
189.600817260786
 30
0.0
  0
VERTEX
  5
57B
  8
FAB$CUT
 10
592.1147853447033
 20
190.4955262493211
 30
0.0
  0
VERTEX
  5
57C
  8
FAB$CUT
 10
592.1468481167934
 20
191.389689278414
 30
0.0
  0
VERTEX
  5
57D
  8
FAB$CUT
 10
592.1946912715059
 20
192.2829754358272
 30
0.0
  0
VERTEX
  5
57E
  8
FAB$CUT
 10
592.2582760735372
 20
193.1750538093229
 30
0.0
  0
VERTEX
  5
57F
  8
FAB$CUT
 10
592.3375637875833
 20
194.0655934866633
 30
0.0
  0
VERTEX
  5
580
  8
FAB$CUT
 10
592.4325156783409
 20
194.9542635556109
 30
0.0
  0
VERTEX
  5
581
  8
FAB$CUT
 10
592.5430930105065
 20
195.8407331039278
 30
0.0
  0
VERTEX
  5
582
  8
FAB$CUT
 10
592.6692570487763
 20
196.7246712193766
 30
0.0
  0
VERTEX
  5
583
  8
FAB$CUT
 10
592.8109690578467
 20
197.6057469897193
 30
0.0
  0
VERTEX
  5
584
  8
FAB$CUT
 10
592.9681903024143
 20
198.4836295027184
 30
0.0
  0
VERTEX
  5
585
  8
FAB$CUT
 10
593.1408820471752
 20
199.357987846136
 30
0.0
  0
VERTEX
  5
586
  8
FAB$CUT
 10
593.3290055568261
 20
200.2284911077347
 30
0.0
  0
VERTEX
  5
587
  8
FAB$CUT
 10
593.5325220960635
 20
201.0948083752766
 30
0.0
  0
VERTEX
  5
588
  8
FAB$CUT
 10
593.7513929295835
 20
201.9566087365241
 30
0.0
  0
VERTEX
  5
589
  8
FAB$CUT
 10
593.9855793220826
 20
202.8135612792395
 30
0.0
  0
VERTEX
  5
58A
  8
FAB$CUT
 10
594.2350425382572
 20
203.665335091185
 30
0.0
  0
VERTEX
  5
58B
  8
FAB$CUT
 10
594.4997438428036
 20
204.5115992601231
 30
0.0
  0
VERTEX
  5
58C
  8
FAB$CUT
 10
594.7796445004184
 20
205.3520228738159
 30
0.0
  0
VERTEX
  5
58D
  8
FAB$CUT
 10
595.0747057757981
 20
206.1862750200259
 30
0.0
  0
VERTEX
  5
58E
  8
FAB$CUT
 10
595.3848889336389
 20
207.0140247865153
 30
0.0
  0
VERTEX
  5
58F
  8
FAB$CUT
 10
595.7101552386371
 20
207.8349412610463
 30
0.0
  0
VERTEX
  5
590
  8
FAB$CUT
 10
596.0504659554892
 20
208.6486935313815
 30
0.0
  0
VERTEX
  5
591
  8
FAB$CUT
 10
596.405782348892
 20
209.4549506852829
 30
0.0
  0
VERTEX
  5
592
  8
FAB$CUT
 10
596.7760656835414
 20
210.2533818105131
 30
0.0
  0
VERTEX
  5
593
  8
FAB$CUT
 10
597.161277224134
 20
211.0436559948342
 30
0.0
  0
VERTEX
  5
594
  8
FAB$CUT
 10
597.5613782353662
 20
211.8254423260085
 30
0.0
  0
VERTEX
  5
595
  8
FAB$CUT
 10
597.9763299819344
 20
212.5984098917984
 30
0.0
  0
VERTEX
  5
596
  8
FAB$CUT
 10
598.4060937285351
 20
213.3622277799662
 30
0.0
  0
VERTEX
  5
597
  8
FAB$CUT
 10
598.8506307398645
 20
214.1165650782743
 30
0.0
  0
VERTEX
  5
598
  8
FAB$CUT
 10
599.3099022806191
 20
214.8610908744848
 30
0.0
  0
VERTEX
  5
599
  8
FAB$CUT
 10
599.7838696154954
 20
215.5954742563601
 30
0.0
  0
VERTEX
  5
59A
  8
FAB$CUT
 10
600.2724940091896
 20
216.3193843116625
 30
0.0
  0
VERTEX
  5
59B
  8
FAB$CUT
 10
600.7757367263982
 20
217.0324901281544
 30
0.0
  0
VERTEX
  5
59C
  8
FAB$CUT
 10
601.2935590318177
 20
217.734460793598
 30
0.0
  0
VERTEX
  5
59D
  8
FAB$CUT
 10
601.8259221901444
 20
218.4249653957556
 30
0.0
  0
VERTEX
  5
59E
  8
FAB$CUT
 10
602.3727874660749
 20
219.1036730223896
 30
0.0
  0
VERTEX
  5
59F
  8
FAB$CUT
 10
602.9341161243053
 20
219.7702527612622
 30
0.0
  0
VERTEX
  5
5A0
  8
FAB$CUT
 10
603.5098694295323
 20
220.4243737001358
 30
0.0
  0
VERTEX
  5
5A1
  8
FAB$CUT
 10
604.1000086464521
 20
221.0657049267726
 30
0.0
  0
VERTEX
  5
5A2
  8
FAB$CUT
 10
604.7044950397612
 20
221.6939155289351
 30
0.0
  0
VERTEX
  5
5A3
  8
FAB$CUT
 10
605.323289874156
 20
222.3086745943854
 30
0.0
  0
VERTEX
  5
5A4
  8
FAB$CUT
 10
605.9563544143327
 20
222.909651210886
 30
0.0
  0
VERTEX
  5
5A5
  8
FAB$CUT
 10
606.6036499249882
 20
223.496514466199
 30
0.0
  0
VERTEX
  5
5A6
  8
FAB$CUT
 10
607.2651376708185
 20
224.0689334480869
 30
0.0
  0
VERTEX
  5
5A7
  8
FAB$CUT
 10
607.94077891652
 20
224.6265772443118
 30
0.0
  0
VERTEX
  5
5A8
  8
FAB$CUT
 10
608.6305349267892
 20
225.1691149426362
 30
0.0
  0
VERTEX
  5
5A9
  8
FAB$CUT
 10
609.3343669663226
 20
225.6962156308223
 30
0.0
  0
VERTEX
  5
5AA
  8
FAB$CUT
 10
610.0522362998165
 20
226.2075483966325
 30
0.0
  0
VERTEX
  5
5AB
  8
FAB$CUT
 10
610.7841041919673
 20
226.702782327829
 30
0.0
  0
VERTEX
  5
5AC
  8
FAB$CUT
 10
611.5298659698628
 20
227.181734311325
 30
0.0
  0
VERTEX
  5
5AD
  8
FAB$CUT
 10
612.289153210155
 20
227.6448124306363
 30
0.0
  0
VERTEX
  5
5AE
  8
FAB$CUT
 10
613.0615315518871
 20
228.0925725684298
 30
0.0
  0
VERTEX
  5
5AF
  8
FAB$CUT
 10
613.8465666341028
 20
228.5255706073722
 30
0.0
  0
VERTEX
  5
5B0
  8
FAB$CUT
 10
614.6438240958453
 20
228.9443624301302
 30
0.0
  0
VERTEX
  5
5B1
  8
FAB$CUT
 10
615.4528695761582
 20
229.3495039193705
 30
0.0
  0
VERTEX
  5
5B2
  8
FAB$CUT
 10
616.2732687140846
 20
229.74155095776
 30
0.0
  0
VERTEX
  5
5B3
  8
FAB$CUT
 10
617.104587148668
 20
230.1210594279654
 30
0.0
  0
VERTEX
  5
5B4
  8
FAB$CUT
 10
618.7982444639794
 20
230.8446841944907
 30
0.0
  0
VERTEX
  5
5B5
  8
FAB$CUT
 10
620.5303666344394
 20
231.5248252802804
 30
0.0
  0
VERTEX
  5
5B6
  8
FAB$CUT
 10
622.2974787723949
 20
232.1659297466683
 30
0.0
  0
VERTEX
  5
5B7
  8
FAB$CUT
 10
624.0961059901932
 20
232.7724446549884
 30
0.0
  0
VERTEX
  5
5B8
  8
FAB$CUT
 10
627.7740061147063
 20
233.8994940427612
 30
0.0
  0
VERTEX
  5
5B9
  8
FAB$CUT
 10
646.8729497258321
 20
238.971368351099
 30
0.0
  0
VERTEX
  5
5BA
  8
FAB$CUT
 10
650.6400333372042
 20
240.1221041213621
 30
0.0
  0
VERTEX
  5
5BB
  8
FAB$CUT
 10
652.4944002342893
 20
240.7434230187387
 30
0.0
  0
VERTEX
  5
5BC
  8
FAB$CUT
 10
654.3246840087701
 20
241.4013053393905
 30
0.0
  0
VERTEX
  5
5BD
  8
FAB$CUT
 10
656.1274097729934
 20
242.1001981446516
 30
0.0
  0
VERTEX
  5
5BE
  8
FAB$CUT
 10
657.8991026393064
 20
242.8445484958559
 30
0.0
  0
VERTEX
  5
5BF
  8
FAB$CUT
 10
659.6362877200562
 20
243.6388034543372
 30
0.0
  0
VERTEX
  5
5C0
  8
FAB$CUT
 10
660.4908539384533
 20
244.0560348679737
 30
0.0
  0
VERTEX
  5
5C1
  8
FAB$CUT
 10
661.3354901275897
 20
244.4874100814297
 30
0.0
  0
VERTEX
  5
5C2
  8
FAB$CUT
 10
662.1697619265087
 20
244.9334849773719
 30
0.0
  0
VERTEX
  5
5C3
  8
FAB$CUT
 10
662.9932349742538
 20
245.394815438467
 30
0.0
  0
VERTEX
  5
5C4
  8
FAB$CUT
 10
663.8054749098685
 20
245.871957347382
 30
0.0
  0
VERTEX
  5
5C5
  8
FAB$CUT
 10
664.606047372396
 20
246.3654665867834
 30
0.0
  0
VERTEX
  5
5C6
  8
FAB$CUT
 10
665.3945180008795
 20
246.875899039338
 30
0.0
  0
VERTEX
  5
5C7
  8
FAB$CUT
 10
666.1704524343629
 20
247.4038105877126
 30
0.0
  0
VERTEX
  5
5C8
  8
FAB$CUT
 10
666.9334163118892
 20
247.9497571145739
 30
0.0
  0
VERTEX
  5
5C9
  8
FAB$CUT
 10
667.682975272502
 20
248.5142945025887
 30
0.0
  0
VERTEX
  5
5CA
  8
FAB$CUT
 10
668.4188067929991
 20
249.0977878384876
 30
0.0
  0
VERTEX
  5
5CB
  8
FAB$CUT
 10
669.1410357011982
 20
249.6998390252576
 30
0.0
  0
VERTEX
  5
5CC
  8
FAB$CUT
 10
669.8498986626712
 20
250.3198591699496
 30
0.0
  0
VERTEX
  5
5CD
  8
FAB$CUT
 10
670.5456323429898
 20
250.9572593796145
 30
0.0
  0
VERTEX
  5
5CE
  8
FAB$CUT
 10
671.2284734077266
 20
251.6114507613031
 30
0.0
  0
VERTEX
  5
5CF
  8
FAB$CUT
 10
671.8986585224534
 20
252.2818444220663
 30
0.0
  0
VERTEX
  5
5D0
  8
FAB$CUT
 10
672.5564243527423
 20
252.9678514689551
 30
0.0
  0
VERTEX
  5
5D1
  8
FAB$CUT
 10
673.2020075641653
 20
253.6688830090204
 30
0.0
  0
VERTEX
  5
5D2
  8
FAB$CUT
 10
673.8356448222946
 20
254.3843501493129
 30
0.0
  0
VERTEX
  5
5D3
  8
FAB$CUT
 10
674.4575727927022
 20
255.1136639968836
 30
0.0
  0
VERTEX
  5
5D4
  8
FAB$CUT
 10
675.6672475326404
 20
256.6114762420633
 30
0.0
  0
VERTEX
  5
5D5
  8
FAB$CUT
 10
676.8329251085563
 20
258.1576086009665
 30
0.0
  0
VERTEX
  5
5D6
  8
FAB$CUT
 10
677.9564988450265
 20
259.7473499300002
 30
0.0
  0
VERTEX
  5
5D7
  8
FAB$CUT
 10
679.0398620666274
 20
261.3759890855717
 30
0.0
  0
VERTEX
  5
5D8
  8
FAB$CUT
 10
680.0849080979356
 20
263.0388149240882
 30
0.0
  0
VERTEX
  5
5D9
  8
FAB$CUT
 10
681.0935302635273
 20
264.7311163019567
 30
0.0
  0
VERTEX
  5
5DA
  8
FAB$CUT
 10
682.0676218879793
 20
266.4481820755842
 30
0.0
  0
VERTEX
  5
5DB
  8
FAB$CUT
 10
683.9197868117693
 20
269.9377622357453
 30
0.0
  0
VERTEX
  5
5DC
  8
FAB$CUT
 10
685.6565494659174
 20
273.4698662558283
 30
0.0
  0
VERTEX
  5
5DD
  8
FAB$CUT
 10
688.8444543517347
 20
280.5108892807885
 30
0.0
  0
VERTEX
  5
5DE
  8
FAB$CUT
 10
694.5018871385819
 20
293.4448991050817
 30
0.0
  0
VERTEX
  5
5DF
  8
FAB$CUT
 10
695.8549386103647
 20
296.2193739798151
 30
0.0
  0
VERTEX
  5
5E0
  8
FAB$CUT
 10
696.5326816226873
 20
297.51184599022
 30
0.0
  0
VERTEX
  5
5E1
  8
FAB$CUT
 10
697.2137605853993
 20
298.7348595245265
 30
0.0
  0
VERTEX
  5
5E2
  8
FAB$CUT
 10
697.8997426211059
 20
299.8848749298432
 30
0.0
  0
VERTEX
  5
5E3
  8
FAB$CUT
 10
698.5908900445277
 20
300.9630385160841
 30
0.0
  0
VERTEX
  5
5E4
  8
FAB$CUT
 10
698.9383808118656
 20
301.4759001897434
 30
0.0
  0
VERTEX
  5
5E5
  8
FAB$CUT
 10
699.2871389684133
 20
301.9716680838644
 30
0.0
  0
VERTEX
  5
5E6
  8
FAB$CUT
 10
699.6371565282641
 20
302.4506319235241
 30
0.0
  0
VERTEX
  5
5E7
  8
FAB$CUT
 10
699.9884255055117
 20
302.9130814337994
 30
0.0
  0
VERTEX
  5
5E8
  8
FAB$CUT
 10
700.3409379142499
 20
303.3593063397674
 30
0.0
  0
VERTEX
  5
5E9
  8
FAB$CUT
 10
700.6946857685721
 20
303.7895963665047
 30
0.0
  0
VERTEX
  5
5EA
  8
FAB$CUT
 10
701.0496610825721
 20
304.2042412390884
 30
0.0
  0
VERTEX
  5
5EB
  8
FAB$CUT
 10
701.4058558703435
 20
304.6035306825955
 30
0.0
  0
VERTEX
  5
5EC
  8
FAB$CUT
 10
701.76326214598
 20
304.9877544221028
 30
0.0
  0
VERTEX
  5
5ED
  8
FAB$CUT
 10
702.121871923575
 20
305.3572021826872
 30
0.0
  0
VERTEX
  5
5EE
  8
FAB$CUT
 10
702.4816772172222
 20
305.7121636894257
 30
0.0
  0
VERTEX
  5
5EF
  8
FAB$CUT
 10
702.8426700410155
 20
306.0529286673951
 30
0.0
  0
VERTEX
  5
5F0
  8
FAB$CUT
 10
703.2048424090483
 20
306.3797868416724
 30
0.0
  0
VERTEX
  5
5F1
  8
FAB$CUT
 10
703.5681863354141
 20
306.6930279373345
 30
0.0
  0
VERTEX
  5
5F2
  8
FAB$CUT
 10
703.9326938342066
 20
306.9929416794583
 30
0.0
  0
VERTEX
  5
5F3
  8
FAB$CUT
 10
704.2983569195196
 20
307.2798177931209
 30
0.0
  0
VERTEX
  5
5F4
  8
FAB$CUT
 10
704.6651676054466
 20
307.5539460033989
 30
0.0
  0
VERTEX
  5
5F5
  8
FAB$CUT
 10
705.0331179060812
 20
307.8156160353695
 30
0.0
  0
VERTEX
  5
5F6
  8
FAB$CUT
 10
705.4021998355171
 20
308.0651176141096
 30
0.0
  0
VERTEX
  5
5F7
  8
FAB$CUT
 10
705.7724054078478
 20
308.3027404646958
 30
0.0
  0
VERTEX
  5
5F8
  8
FAB$CUT
 10
706.1437266371672
 20
308.5287743122054
 30
0.0
  0
VERTEX
  5
5F9
  8
FAB$CUT
 10
706.5161555375687
 20
308.7435088817151
 30
0.0
  0
VERTEX
  5
5FA
  8
FAB$CUT
 10
706.889684123146
 20
308.9472338983019
 30
0.0
  0
VERTEX
  5
5FB
  8
FAB$CUT
 10
707.2643044079928
 20
309.1402390870427
 30
0.0
  0
VERTEX
  5
5FC
  8
FAB$CUT
 10
707.6400084062026
 20
309.3228141730144
 30
0.0
  0
VERTEX
  5
5FD
  8
FAB$CUT
 10
708.0167881318689
 20
309.4952488812939
 30
0.0
  0
VERTEX
  5
5FE
  8
FAB$CUT
 10
708.3946355990856
 20
309.6578329369582
 30
0.0
  0
VERTEX
  5
5FF
  8
FAB$CUT
 10
708.7735428219463
 20
309.8108560650843
 30
0.0
  0
VERTEX
  5
600
  8
FAB$CUT
 10
709.1535018145445
 20
309.9546079907489
 30
0.0
  0
VERTEX
  5
601
  8
FAB$CUT
 10
709.5345045909738
 20
310.089378439029
 30
0.0
  0
VERTEX
  5
602
  8
FAB$CUT
 10
709.916543165328
 20
310.2154571350015
 30
0.0
  0
VERTEX
  5
603
  8
FAB$CUT
 10
710.2996095517005
 20
310.3331338037434
 30
0.0
  0
VERTEX
  5
604
  8
FAB$CUT
 10
710.6836957641852
 20
310.4426981703315
 30
0.0
  0
VERTEX
  5
605
  8
FAB$CUT
 10
711.0687938168755
 20
310.5444399598429
 30
0.0
  0
VERTEX
  5
606
  8
FAB$CUT
 10
711.4548957238651
 20
310.6386488973544
 30
0.0
  0
VERTEX
  5
607
  8
FAB$CUT
 10
711.8419934992478
 20
310.7256147079429
 30
0.0
  0
VERTEX
  5
608
  8
FAB$CUT
 10
712.6191447115663
 20
310.8789758486586
 30
0.0
  0
VERTEX
  5
609
  8
FAB$CUT
 10
713.40018356658
 20
311.0068411826055
 30
0.0
  0
VERTEX
  5
60A
  8
FAB$CUT
 10
714.1850461770382
 20
311.1115285103988
 30
0.0
  0
VERTEX
  5
60B
  8
FAB$CUT
 10
714.9736686556896
 20
311.195355632654
 30
0.0
  0
VERTEX
  5
60C
  8
FAB$CUT
 10
715.7659871152833
 20
311.2606403499864
 30
0.0
  0
VERTEX
  5
60D
  8
FAB$CUT
 10
716.5619376685684
 20
311.3097004630114
 30
0.0
  0
VERTEX
  5
60E
  8
FAB$CUT
 10
718.1644795072089
 20
311.3684180786003
 30
0.0
  0
VERTEX
  5
60F
  8
FAB$CUT
 10
758.9667839155893
 20
311.3931412851639
 30
0.0
  0
SEQEND
  5
610
  8
FAB$CUT
  0
POLYLINE
  5
611
  8
FAB$ENGRAVE
 66
     1
 10
0.0
 20
0.0
 30
0.0
 70
     1
  0
VERTEX
  5
612
  8
FAB$ENGRAVE
 10
666.2567839155893
 20
15.65462982663734
 30
0.0
  0
VERTEX
  5
613
  8
FAB$ENGRAVE
 10
851.6767839155895
 20
15.65462982663734
 30
0.0
  0
VERTEX
  5
614
  8
FAB$ENGRAVE
 10
851.6767839155895
 20
140.1146298266373
 30
0.0
  0
VERTEX
  5
615
  8
FAB$ENGRAVE
 10
666.2567839155893
 20
140.1146298266373
 30
0.0
  0
SEQEND
  5
616
  8
FAB$ENGRAVE
  0
POLYLINE
  5
617
  8
FAB$CUT
 66
     1
 10
0.0
 20
0.0
 30
0.0
 70
     1
  0
VERTEX
  5
618
  8
FAB$CUT
 10
690.5328577321532
 20
146.4646298266374
 30
0.0
  0
VERTEX
  5
619
  8
FAB$CUT
 10
684.1828577321531
 20
146.4646298266374
 30
0.0
  0
VERTEX
  5
61A
  8
FAB$CUT
 10
684.1828577321531
 20
143.2896298266374
 30
0.0
  0
VERTEX
  5
61B
  8
FAB$CUT
 10
690.5328577321532
 20
143.2896298266374
 30
0.0
  0
SEQEND
  5
61C
  8
FAB$CUT
  0
POLYLINE
  5
61D
  8
FAB$CUT
 66
     1
 10
0.0
 20
0.0
 30
0.0
 70
     1
  0
VERTEX
  5
61E
  8
FAB$CUT
 10
690.5328577321532
 20
9.304629826637386
 30
0.0
  0
VERTEX
  5
61F
  8
FAB$CUT
 10
684.1828577321531
 20
9.304629826637386
 30
0.0
  0
VERTEX
  5
620
  8
FAB$CUT
 10
684.1828577321531
 20
12.47962982663739
 30
0.0
  0
VERTEX
  5
621
  8
FAB$CUT
 10
690.5328577321532
 20
12.47962982663739
 30
0.0
  0
SEQEND
  5
622
  8
FAB$CUT
  0
POLYLINE
  5
623
  8
FAB$CUT
 66
     1
 10
0.0
 20
0.0
 30
0.0
 70
     1
  0
VERTEX
  5
624
  8
FAB$CUT
 10
827.4007100990256
 20
9.304629826637386
 30
0.0
  0
VERTEX
  5
625
  8
FAB$CUT
 10
833.7507100990256
 20
9.304629826637386
 30
0.0
  0
VERTEX
  5
626
  8
FAB$CUT
 10
833.7507100990256
 20
12.47962982663739
 30
0.0
  0
VERTEX
  5
627
  8
FAB$CUT
 10
827.4007100990256
 20
12.47962982663739
 30
0.0
  0
SEQEND
  5
628
  8
FAB$CUT
  0
POLYLINE
  5
629
  8
FAB$CUT
 66
     1
 10
0.0
 20
0.0
 30
0.0
 70
     1
  0
VERTEX
  5
62A
  8
FAB$CUT
 10
714.5167839155893
 20
224.2711412851638
 30
0.0
  0
VERTEX
  5
62B
  8
FAB$CUT
 10
714.5167839155893
 20
230.6211412851638
 30
0.0
  0
VERTEX
  5
62C
  8
FAB$CUT
 10
717.6917839155892
 20
230.6211412851638
 30
0.0
  0
VERTEX
  5
62D
  8
FAB$CUT
 10
717.6917839155892
 20
224.2711412851638
 30
0.0
  0
SEQEND
  5
62E
  8
FAB$CUT
  0
POLYLINE
  5
62F
  8
FAB$CUT
 66
     1
 10
0.0
 20
0.0
 30
0.0
 70
     1
  0
VERTEX
  5
630
  8
FAB$CUT
 10
803.4167839155891
 20
224.2711412851638
 30
0.0
  0
VERTEX
  5
631
  8
FAB$CUT
 10
803.4167839155891
 20
230.6211412851638
 30
0.0
  0
VERTEX
  5
632
  8
FAB$CUT
 10
800.2417839155892
 20
230.6211412851638
 30
0.0
  0
VERTEX
  5
633
  8
FAB$CUT
 10
800.2417839155892
 20
224.2711412851638
 30
0.0
  0
SEQEND
  5
634
  8
FAB$CUT
  0
POLYLINE
  5
635
  8
FAB$CUT
 66
     1
 10
0.0
 20
0.0
 30
0.0
 70
     1
  0
VERTEX
  5
636
  8
FAB$CUT
 10
803.4167839155891
 20
256.2751412851638
 30
0.0
  0
VERTEX
  5
637
  8
FAB$CUT
 10
803.4167839155891
 20
249.9251412851639
 30
0.0
  0
VERTEX
  5
638
  8
FAB$CUT
 10
800.2417839155892
 20
249.9251412851639
 30
0.0
  0
VERTEX
  5
639
  8
FAB$CUT
 10
800.2417839155892
 20
256.2751412851638
 30
0.0
  0
SEQEND
  5
63A
  8
FAB$CUT
  0
POLYLINE
  5
63B
  8
FAB$CUT
 66
     1
 10
0.0
 20
0.0
 30
0.0
 70
     1
  0
VERTEX
  5
63C
  8
FAB$CUT
 10
714.5167839155893
 20
256.2751412851638
 30
0.0
  0
VERTEX
  5
63D
  8
FAB$CUT
 10
714.5167839155893
 20
249.9251412851639
 30
0.0
  0
VERTEX
  5
63E
  8
FAB$CUT
 10
717.6917839155892
 20
249.9251412851639
 30
0.0
  0
VERTEX
  5
63F
  8
FAB$CUT
 10
717.6917839155892
 20
256.2751412851638
 30
0.0
  0
SEQEND
  5
640
  8
FAB$CUT
  0
ENDSEC
  0
EOF
