  0
SECTION
  2
HEADER
  9
$ACADVER
  1
AC1009
  9
$DWGCODEPAGE
  3
mac-roman
  9
$INSBASE
 10
0.0
 20
0.0
 30
0.0
  9
$EXTMIN
 10
592.0981558896038
 20
0.0006150967041241
 30
0.0
  9
$EXTMAX
 10
925.8354119415748
 20
311.3931412851639
 30
0.0
  9
$LIMMIN
 10
0.0
 20
0.0
  9
$LIMMAX
 10
12.0
 20
9.0
  9
$ORTHOMODE
 70
     0
  9
$REGENMODE
 70
     1
  9
$FILLMODE
 70
     1
  9
$QTEXTMODE
 70
     0
  9
$MIRRTEXT
 70
     1
  9
$DRAGMODE
 70
     2
  9
$LTSCALE
 40
1.0
  9
$OSMODE
 70
    37
  9
$ATTMODE
 70
     1
  9
$TEXTSIZE
 40
0.2
  9
$TRACEWID
 40
0.05
  9
$TEXTSTYLE
  7
STANDARD
  9
$CLAYER
  8
0
  9
$CELTYPE
  6
BYLAYER
  9
$CECOLOR
 62
   256
  9
$DIMSCALE
 40
1.0
  9
$DIMASZ
 40
0.18
  9
$DIMEXO
 40
0.0625
  9
$DIMDLI
 40
0.38
  9
$DIMRND
 40
0.0
  9
$DIMDLE
 40
0.0
  9
$DIMEXE
 40
0.18
  9
$DIMTP
 40
0.0
  9
$DIMTM
 40
0.0
  9
$DIMTXT
 40
0.18
  9
$DIMCEN
 40
0.09
  9
$DIMTSZ
 40
0.0
  9
$DIMTOL
 70
     0
  9
$DIMLIM
 70
     0
  9
$DIMTIH
 70
     1
  9
$DIMTOH
 70
     1
  9
$DIMSE1
 70
     0
  9
$DIMSE2
 70
     0
  9
$DIMTAD
 70
     0
  9
$DIMZIN
 70
     0
  9
$DIMBLK
  1

  9
$DIMASO
 70
     1
  9
$DIMSHO
 70
     1
  9
$DIMPOST
  1

  9
$DIMAPOST
  1

  9
$DIMALT
 70
     0
  9
$DIMALTD
 70
     2
  9
$DIMALTF
 40
25.4
  9
$DIMLFAC
 40
1.0
  9
$DIMTOFL
 70
     0
  9
$DIMTVP
 40
0.0
  9
$DIMTIX
 70
     0
  9
$DIMSOXD
 70
     0
  9
$DIMSAH
 70
     0
  9
$DIMBLK1
  1

  9
$DIMBLK2
  1

  9
$DIMSTYLE
  2
STANDARD
  9
$DIMCLRD
 70
     0
  9
$DIMCLRE
 70
     0
  9
$DIMCLRT
 70
     0
  9
$DIMTFAC
 40
1.0
  9
$DIMGAP
 40
0.09
  9
$LUNITS
 70
     2
  9
$LUPREC
 70
     3
  9
$SKETCHINC
 40
0.1
  9
$FILLETRAD
 40
0.5
  9
$AUNITS
 70
     0
  9
$AUPREC
 70
     0
  9
$MENU
  1
.
  9
$ELEVATION
 40
0.0
  9
$PELEVATION
 40
0.0
  9
$THICKNESS
 40
0.0
  9
$LIMCHECK
 70
     0
  9
$CHAMFERA
 40
0.0
  9
$CHAMFERB
 40
0.0
  9
$SKPOLY
 70
     0
  9
$TDCREATE
 40
2457751.746099537
  9
$TDUPDATE
 40
2457751.746134259
  9
$TDINDWG
 40
0.0000000116
  9
$TDUSRTIMER
 40
0.0000000116
  9
$USRTIMER
 70
     1
  9
$ANGBASE
 50
0.0
  9
$ANGDIR
 70
     0
  9
$PDMODE
 70
     0
  9
$PDSIZE
 40
0.0
  9
$PLINEWID
 40
0.0
  9
$COORDS
 70
     1
  9
$SPLFRAME
 70
     0
  9
$SPLINETYPE
 70
     6
  9
$SPLINESEGS
 70
     8
  9
$ATTDIA
 70
     0
  9
$ATTREQ
 70
     1
  9
$HANDLING
 70
     1
  9
$HANDSEED
  5
479
  9
$SURFTAB1
 70
     6
  9
$SURFTAB2
 70
     6
  9
$SURFTYPE
 70
     6
  9
$SURFU
 70
     6
  9
$SURFV
 70
     6
  9
$UCSNAME
  2

  9
$UCSORG
 10
0.0
 20
0.0
 30
0.0
  9
$UCSXDIR
 10
1.0
 20
0.0
 30
0.0
  9
$UCSYDIR
 10
0.0
 20
1.0
 30
0.0
  9
$PUCSNAME
  2

  9
$PUCSORG
 10
0.0
 20
0.0
 30
0.0
  9
$PUCSXDIR
 10
1.0
 20
0.0
 30
0.0
  9
$PUCSYDIR
 10
0.0
 20
1.0
 30
0.0
  9
$USERI1
 70
     0
  9
$USERI2
 70
     0
  9
$USERI3
 70
     0
  9
$USERI4
 70
     0
  9
$USERI5
 70
     0
  9
$USERR1
 40
0.0
  9
$USERR2
 40
0.0
  9
$USERR3
 40
0.0
  9
$USERR4
 40
0.0
  9
$USERR5
 40
0.0
  9
$WORLDVIEW
 70
     1
  9
$SHADEDGE
 70
     3
  9
$SHADEDIF
 70
    70
  9
$TILEMODE
 70
     1
  9
$MAXACTVP
 70
    64
  9
$PLIMCHECK
 70
     0
  9
$PEXTMIN
 10
1.000000000000000E+20
 20
1.000000000000000E+20
 30
1.000000000000000E+20
  9
$PEXTMAX
 10
-1.000000000000000E+20
 20
-1.000000000000000E+20
 30
-1.000000000000000E+20
  9
$PLIMMIN
 10
0.0
 20
0.0
  9
$PLIMMAX
 10
12.0
 20
9.0
  9
$UNITMODE
 70
     0
  9
$VISRETAIN
 70
     1
  9
$PLINEGEN
 70
     0
  9
$PSLTSCALE
 70
     1
  0
ENDSEC
  0
SECTION
  2
TABLES
  0
TABLE
  2
VPORT
 70
     1
  0
VPORT
  2
*ACTIVE
 70
     0
 10
0.0
 20
0.0
 11
1.0
 21
1.0
 12
758.9667839155893
 22
155.696878190934
 13
0.0
 23
0.0
 14
0.5
 24
0.5
 15
0.5
 25
0.5
 16
0.0
 26
0.0
 36
1.0
 17
0.0
 27
0.0
 37
0.0
 40
317.620376712229
 41
1.071757437909694
 42
50.0
 43
0.0
 44
0.0
 50
0.0
 51
0.0
 71
     0
 72
   100
 73
     1
 74
     3
 75
     0
 76
     0
 77
     0
 78
     0
  0
ENDTAB
  0
TABLE
  2
LTYPE
 70
     1
  0
LTYPE
  2
CONTINUOUS
 70
     0
  3
Solid line
 72
    65
 73
     0
 40
0.0
  0
ENDTAB
  0
TABLE
  2
LAYER
 70
     3
  0
LAYER
  2
0
 70
     0
 62
     7
  6
CONTINUOUS
  0
LAYER
  2
FAB$ENGRAVE
 70
     0
 62
     5
  6
CONTINUOUS
  0
LAYER
  2
FAB$CUT
 70
     0
 62
     1
  6
CONTINUOUS
  0
ENDTAB
  0
TABLE
  2
STYLE
 70
     1
  0
STYLE
  2
STANDARD
 70
     0
 40
0.0
 41
1.0
 50
0.0
 71
     0
 42
0.2
  3
txt
  4

  0
ENDTAB
  0
TABLE
  2
VIEW
 70
     0
  0
ENDTAB
  0
TABLE
  2
UCS
 70
     0
  0
ENDTAB
  0
TABLE
  2
APPID
 70
     1
  0
APPID
  2
ACAD
 70
     0
  0
ENDTAB
  0
TABLE
  2
DIMSTYLE
 70
     1
  0
DIMSTYLE
  2
STANDARD
 70
     0
  3

  4

  5

  6

  7

 40
1.0
 41
0.18
 42
0.0625
 43
0.38
 44
0.18
 45
0.0
 46
0.0
 47
0.0
 48
0.0
140
0.18
141
0.09
142
0.0
143
25.4
144
1.0
145
0.0
146
1.0
147
0.09
 71
     0
 72
     0
 73
     1
 74
     1
 75
     0
 76
     0
 77
     0
 78
     0
170
     0
171
     2
172
     0
173
     0
174
     0
175
     0
176
     0
177
     0
178
     0
  0
ENDTAB
  0
ENDSEC
  0
SECTION
  2
BLOCKS
  0
BLOCK
  8
0
  2
$MODEL_SPACE
 70
     0
 10
0.0
 20
0.0
 30
0.0
  3
$MODEL_SPACE
  1

  0
ENDBLK
  5
21
  8
0
  0
BLOCK
 67
     1
  8
0
  2
$PAPER_SPACE
 70
     0
 10
0.0
 20
0.0
 30
0.0
  3
$PAPER_SPACE
  1

  0
ENDBLK
  5
1D
 67
     1
  8
0
  0
ENDSEC
  0
SECTION
  2
ENTITIES
  0
POLYLINE
  5
6F
  8
FAB$ENGRAVE
 66
     1
 10
0.0
 20
0.0
 30
0.0
 70
     1
  0
VERTEX
  5
70
  8
FAB$ENGRAVE
 10
682.9796776114065
 20
88.42566454330043
 30
0.0
  0
VERTEX
  5
71
  8
FAB$ENGRAVE
 10
789.6596776114064
 20
88.42566454330061
 30
0.0
  0
VERTEX
  5
72
  8
FAB$ENGRAVE
 10
789.6596776114064
 20
118.9056645433006
 30
0.0
  0
VERTEX
  5
73
  8
FAB$ENGRAVE
 10
682.9796776114065
 20
118.9056645433004
 30
0.0
  0
SEQEND
  5
74
  8
FAB$ENGRAVE
  0
POLYLINE
  5
75
  8
FAB$ENGRAVE
 66
     1
 10
0.0
 20
0.0
 30
0.0
 70
     1
  0
VERTEX
  5
76
  8
FAB$ENGRAVE
 10
682.8869088276316
 20
34.84094581182245
 30
0.0
  0
VERTEX
  5
77
  8
FAB$ENGRAVE
 10
746.3869088276316
 20
34.84094581182245
 30
0.0
  0
VERTEX
  5
78
  8
FAB$ENGRAVE
 10
746.3869088276316
 20
76.75094581182245
 30
0.0
  0
VERTEX
  5
79
  8
FAB$ENGRAVE
 10
682.8869088276316
 20
76.75094581182245
 30
0.0
  0
SEQEND
  5
7A
  8
FAB$ENGRAVE
  0
POLYLINE
  5
7B
  8
FAB$ENGRAVE
 66
     1
 10
0.0
 20
0.0
 30
0.0
 70
     1
  0
VERTEX
  5
7C
  8
FAB$ENGRAVE
 10
757.4486848958614
 20
199.3718365712564
 30
0.0
  0
VERTEX
  5
7D
  8
FAB$ENGRAVE
 10
757.4486848958614
 20
161.0178365712564
 30
0.0
  0
VERTEX
  5
7E
  8
FAB$ENGRAVE
 10
780.5626848958615
 20
161.0178365712564
 30
0.0
  0
VERTEX
  5
7F
  8
FAB$ENGRAVE
 10
780.5626848958615
 20
199.3718365712564
 30
0.0
  0
SEQEND
  5
80
  8
FAB$ENGRAVE
  0
POLYLINE
  5
81
  8
FAB$ENGRAVE
 66
     1
 10
0.0
 20
0.0
 30
0.0
 70
     1
  0
VERTEX
  5
82
  8
FAB$ENGRAVE
 10
851.6767839155895
 20
159.9683156155728
 30
0.0
  0
VERTEX
  5
83
  8
FAB$ENGRAVE
 10
925.3367839155894
 20
159.9683156155728
 30
0.0
  0
VERTEX
  5
84
  8
FAB$ENGRAVE
 10
925.3367839155894
 20
228.5483156155727
 30
0.0
  0
VERTEX
  5
85
  8
FAB$ENGRAVE
 10
851.6767839155895
 20
228.5483156155727
 30
0.0
  0
SEQEND
  5
86
  8
FAB$ENGRAVE
  0
POLYLINE
  5
87
  8
FAB$ENGRAVE
 66
     1
 10
0.0
 20
0.0
 30
0.0
 70
     1
  0
VERTEX
  5
88
  8
FAB$ENGRAVE
 10
592.5967839155893
 20
159.9683156155728
 30
0.0
  0
VERTEX
  5
89
  8
FAB$ENGRAVE
 10
666.2567839155893
 20
159.9683156155728
 30
0.0
  0
VERTEX
  5
8A
  8
FAB$ENGRAVE
 10
666.2567839155893
 20
228.5483156155727
 30
0.0
  0
VERTEX
  5
8B
  8
FAB$ENGRAVE
 10
592.5967839155893
 20
228.5483156155727
 30
0.0
  0
SEQEND
  5
8C
  8
FAB$ENGRAVE
  0
POLYLINE
  5
8D
  8
FAB$ENGRAVE
 66
     1
 10
0.0
 20
0.0
 30
0.0
 70
     1
  0
VERTEX
  5
8E
  8
FAB$ENGRAVE
 10
720.8667839155894
 20
214.8731412851639
 30
0.0
  0
VERTEX
  5
8F
  8
FAB$ENGRAVE
 10
797.0667839155893
 20
214.8731412851639
 30
0.0
  0
VERTEX
  5
90
  8
FAB$ENGRAVE
 10
797.0667839155893
 20
265.6731412851639
 30
0.0
  0
VERTEX
  5
91
  8
FAB$ENGRAVE
 10
720.8667839155894
 20
265.6731412851639
 30
0.0
  0
SEQEND
  5
92
  8
FAB$ENGRAVE
  0
CIRCLE
  5
94
  8
FAB$CUT
 10
844.3216245182855
 20
194.2583156155728
 30
0.0
 40
6.350000000000023
  0
CIRCLE
  5
95
  8
FAB$CUT
 10
673.6119433128933
 20
194.2583156155727
 30
0.0
 40
6.350000000000023
  0
CIRCLE
  5
96
  8
FAB$CUT
 10
728.3597839155891
 20
299.8361412851638
 30
0.0
 40
3.175000000000068
  0
CIRCLE
  5
97
  8
FAB$CUT
 10
758.9667839155892
 20
297.2961412851639
 30
0.0
 40
3.174999999999955
  0
CIRCLE
  5
98
  8
FAB$CUT
 10
789.5737839155893
 20
299.8361412851637
 30
0.0
 40
3.174999999999841
  0
LINE
  5
99
  8
FAB$ENGRAVE
 10
797.0667839155894
 20
291.073141285164
 30
0.0
 11
797.0667839155892
 21
311.3910713235028
 31
0.0
  0
LINE
  5
9A
  8
FAB$ENGRAVE
 10
720.8667839155894
 20
291.0731412851637
 30
0.0
 11
797.0667839155894
 21
291.073141285164
 31
0.0
  0
LINE
  5
9B
  8
FAB$ENGRAVE
 10
720.8667839155893
 20
311.3910713235027
 30
0.0
 11
720.8667839155894
 21
291.0731412851637
 31
0.0
  0
POLYLINE
  5
9C
  8
FAB$CUT
 66
     1
 10
0.0
 20
0.0
 30
0.0
  0
VERTEX
  5
9D
  8
FAB$CUT
 10
758.9667839155893
 20
2.954629826637341
 30
0.0
  0
VERTEX
  5
9E
  8
FAB$CUT
 10
788.9172720550957
 20
2.606924564870006
 30
0.0
  0
VERTEX
  5
9F
  8
FAB$CUT
 10
803.8450774611601
 20
2.08328734303318
 30
0.0
  0
VERTEX
  5
A0
  8
FAB$CUT
 10
834.4722547833147
 20
0.2121235110593124
 30
0.0
  0
VERTEX
  5
A1
  8
FAB$CUT
 10
838.2496479920728
 20
0.0630451869251922
 30
0.0
  0
VERTEX
  5
A2
  8
FAB$CUT
 10
841.9529879653289
 20
0.0006150967041241
 30
0.0
  0
VERTEX
  5
A3
  8
FAB$CUT
 10
845.5612794170729
 20
0.0472723215617709
 30
0.0
  0
VERTEX
  5
A4
  8
FAB$CUT
 10
847.3232209204999
 20
0.118520890009382
 30
0.0
  0
VERTEX
  5
A5
  8
FAB$CUT
 10
849.0535270612952
 20
0.2254559426637953
 30
0.0
  0
VERTEX
  5
A6
  8
FAB$CUT
 10
850.7495734287077
 20
0.3708823646707188
 30
0.0
  0
VERTEX
  5
A7
  8
FAB$CUT
 10
852.4087356119858
 20
0.5576050411758601
 30
0.0
  0
VERTEX
  5
A8
  8
FAB$CUT
 10
854.0283892003787
 20
0.7884288573249272
 30
0.0
  0
VERTEX
  5
A9
  8
FAB$CUT
 10
855.6059097831351
 20
1.066158698263628
 30
0.0
  0
VERTEX
  5
AA
  8
FAB$CUT
 10
856.3780500690398
 20
1.223489904637125
 30
0.0
  0
VERTEX
  5
AB
  8
FAB$CUT
 10
857.1386729495036
 20
1.39359944913767
 30
0.0
  0
VERTEX
  5
AC
  8
FAB$CUT
 10
857.8874503731827
 20
1.576837942408478
 30
0.0
  0
VERTEX
  5
AD
  8
FAB$CUT
 10
858.6240542887331
 20
1.773555995092762
 30
0.0
  0
VERTEX
  5
AE
  8
FAB$CUT
 10
859.3481566448108
 20
1.984104217833735
 30
0.0
  0
VERTEX
  5
AF
  8
FAB$CUT
 10
860.0594293900724
 20
2.20883322127461
 30
0.0
  0
VERTEX
  5
B0
  8
FAB$CUT
 10
860.7575444731733
 20
2.448093616058602
 30
0.0
  0
VERTEX
  5
B1
  8
FAB$CUT
 10
861.44217384277
 20
2.702236012828923
 30
0.0
  0
VERTEX
  5
B2
  8
FAB$CUT
 10
862.1129894475184
 20
2.971611022228788
 30
0.0
  0
VERTEX
  5
B3
  8
FAB$CUT
 10
862.769663236075
 20
3.256569254901409
 30
0.0
  0
VERTEX
  5
B4
  8
FAB$CUT
 10
863.4118671570955
 20
3.557461321490001
 30
0.0
  0
VERTEX
  5
B5
  8
FAB$CUT
 10
864.039273159236
 20
3.874637832637776
 30
0.0
  0
VERTEX
  5
B6
  8
FAB$CUT
 10
864.6515531911527
 20
4.208449398987949
 30
0.0
  0
VERTEX
  5
B7
  8
FAB$CUT
 10
865.2483792015018
 20
4.559246631183733
 30
0.0
  0
VERTEX
  5
B8
  8
FAB$CUT
 10
865.8294231389394
 20
4.92738013986834
 30
0.0
  0
VERTEX
  5
B9
  8
FAB$CUT
 10
866.1139243142713
 20
5.118057563719956
 30
0.0
  0
VERTEX
  5
BA
  8
FAB$CUT
 10
866.3943569521214
 20
5.313200535684984
 30
0.0
  0
VERTEX
  5
BB
  8
FAB$CUT
 10
866.6706800460715
 20
5.512852882093823
 30
0.0
  0
VERTEX
  5
BC
  8
FAB$CUT
 10
866.942852589704
 20
5.717058429276879
 30
0.0
  0
VERTEX
  5
BD
  8
FAB$CUT
 10
867.2108335766005
 20
5.925861003564551
 30
0.0
  0
VERTEX
  5
BE
  8
FAB$CUT
 10
867.4745820003432
 20
6.139304431287239
 30
0.0
  0
VERTEX
  5
BF
  8
FAB$CUT
 10
867.734056854514
 20
6.357432538775347
 30
0.0
  0
VERTEX
  5
C0
  8
FAB$CUT
 10
867.9892171326953
 20
6.580289152359278
 30
0.0
  0
VERTEX
  5
C1
  8
FAB$CUT
 10
868.2400218284686
 20
6.807918098369431
 30
0.0
  0
VERTEX
  5
C2
  8
FAB$CUT
 10
868.4864299354163
 20
7.040363203136207
 30
0.0
  0
VERTEX
  5
C3
  8
FAB$CUT
 10
868.7284004471202
 20
7.277668292990009
 30
0.0
  0
VERTEX
  5
C4
  8
FAB$CUT
 10
868.9658923571621
 20
7.519877194261241
 30
0.0
  0
VERTEX
  5
C5
  8
FAB$CUT
 10
869.1988646591246
 20
7.767033733280303
 30
0.0
  0
VERTEX
  5
C6
  8
FAB$CUT
 10
869.4272763465892
 20
8.019181736377595
 30
0.0
  0
VERTEX
  5
C7
  8
FAB$CUT
 10
869.6510864131382
 20
8.27636502988352
 30
0.0
  0
VERTEX
  5
C8
  8
FAB$CUT
 10
869.8702538523535
 20
8.53862744012848
 30
0.0
  0
VERTEX
  5
C9
  8
FAB$CUT
 10
870.084737657817
 20
8.806012793442875
 30
0.0
  0
VERTEX
  5
CA
  8
FAB$CUT
 10
870.2944968231108
 20
9.07856491615711
 30
0.0
  0
VERTEX
  5
CB
  8
FAB$CUT
 10
870.4995056402654
 20
9.356311723151475
 30
0.0
  0
VERTEX
  5
CC
  8
FAB$CUT
 10
870.6997995951056
 20
9.63921748350583
 30
0.0
  0
VERTEX
  5
CD
  8
FAB$CUT
 10
870.895429471904
 20
9.927230554849924
 30
0.0
  0
VERTEX
  5
CE
  8
FAB$CUT
 10
871.086446054934
 20
10.22029929481351
 30
0.0
  0
VERTEX
  5
CF
  8
FAB$CUT
 10
871.2729001284683
 20
10.51837206102633
 30
0.0
  0
VERTEX
  5
D0
  8
FAB$CUT
 10
871.4548424767802
 20
10.82139721111814
 30
0.0
  0
VERTEX
  5
D1
  8
FAB$CUT
 10
871.6323238841424
 20
11.12932310271869
 30
0.0
  0
VERTEX
  5
D2
  8
FAB$CUT
 10
871.8053951348282
 20
11.44209809345773
 30
0.0
  0
VERTEX
  5
D3
  8
FAB$CUT
 10
872.1385103032625
 20
12.08198880287027
 30
0.0
  0
VERTEX
  5
D4
  8
FAB$CUT
 10
872.454594256267
 20
12.74065620039377
 30
0.0
  0
VERTEX
  5
D5
  8
FAB$CUT
 10
872.7540532680262
 20
13.41768714706621
 30
0.0
  0
VERTEX
  5
D6
  8
FAB$CUT
 10
873.0372936127242
 20
14.1126685039256
 30
0.0
  0
VERTEX
  5
D7
  8
FAB$CUT
 10
873.3047215645449
 20
14.82518713200995
 30
0.0
  0
VERTEX
  5
D8
  8
FAB$CUT
 10
873.556743397673
 20
15.55482989235724
 30
0.0
  0
VERTEX
  5
D9
  8
FAB$CUT
 10
873.7937653862923
 20
16.30118364600547
 30
0.0
  0
VERTEX
  5
DA
  8
FAB$CUT
 10
874.0161938045871
 20
17.06383525399264
 30
0.0
  0
VERTEX
  5
DB
  8
FAB$CUT
 10
874.2244349267419
 20
17.84237157735676
 30
0.0
  0
VERTEX
  5
DC
  8
FAB$CUT
 10
874.4188950269404
 20
18.63637947713582
 30
0.0
  0
VERTEX
  5
DD
  8
FAB$CUT
 10
874.599980379367
 20
19.44544581436782
 30
0.0
  0
VERTEX
  5
DE
  8
FAB$CUT
 10
874.7680972582061
 20
20.26915745009076
 30
0.0
  0
VERTEX
  5
DF
  8
FAB$CUT
 10
875.067050691858
 20
21.95886406116144
 30
0.0
  0
VERTEX
  5
E0
  8
FAB$CUT
 10
875.3190055213695
 20
23.70219419865186
 30
0.0
  0
VERTEX
  5
E1
  8
FAB$CUT
 10
875.5272119402143
 20
25.495842750866
 30
0.0
  0
VERTEX
  5
E2
  8
FAB$CUT
 10
875.6949201418662
 20
27.33650460610787
 30
0.0
  0
VERTEX
  5
E3
  8
FAB$CUT
 10
875.8253803197986
 20
29.22087465268142
 30
0.0
  0
VERTEX
  5
E4
  8
FAB$CUT
 10
875.9218426674847
 20
31.14564777889068
 30
0.0
  0
VERTEX
  5
E5
  8
FAB$CUT
 10
876.025774646014
 20
35.10318282343222
 30
0.0
  0
VERTEX
  5
E6
  8
FAB$CUT
 10
875.9686731529587
 20
43.35766495351912
 30
0.0
  0
VERTEX
  5
E7
  8
FAB$CUT
 10
875.4936931914626
 20
64.73986548474784
 30
0.0
  0
VERTEX
  5
E8
  8
FAB$CUT
 10
875.5497565136686
 20
68.93266333490797
 30
0.0
  0
VERTEX
  5
E9
  8
FAB$CUT
 10
875.7126841013667
 20
73.04083419035803
 30
0.0
  0
VERTEX
  5
EA
  8
FAB$CUT
 10
875.9876819147619
 20
77.06268303574984
 30
0.0
  0
VERTEX
  5
EB
  8
FAB$CUT
 10
876.3757967965432
 20
81.00146403137923
 30
0.0
  0
VERTEX
  5
EC
  8
FAB$CUT
 10
876.8780755893991
 20
84.86043133754205
 30
0.0
  0
VERTEX
  5
ED
  8
FAB$CUT
 10
877.4955651360183
 20
88.6428391145341
 30
0.0
  0
VERTEX
  5
EE
  8
FAB$CUT
 10
878.2293122790893
 20
92.35194152265122
 30
0.0
  0
VERTEX
  5
EF
  8
FAB$CUT
 10
879.080363861301
 20
95.99099272218923
 30
0.0
  0
VERTEX
  5
F0
  8
FAB$CUT
 10
879.5502059554246
 20
97.78526604383353
 30
0.0
  0
VERTEX
  5
F1
  8
FAB$CUT
 10
880.0497667253419
 20
99.56324687344399
 30
0.0
  0
VERTEX
  5
F2
  8
FAB$CUT
 10
880.5791770263886
 20
101.3253419810576
 30
0.0
  0
VERTEX
  5
F3
  8
FAB$CUT
 10
881.1385677139008
 20
103.0719581367113
 30
0.0
  0
VERTEX
  5
F4
  8
FAB$CUT
 10
881.7280696432146
 20
104.8035021104421
 30
0.0
  0
VERTEX
  5
F5
  8
FAB$CUT
 10
882.347813669666
 20
106.520380672287
 30
0.0
  0
VERTEX
  5
F6
  8
FAB$CUT
 10
882.9979306485914
 20
108.2230005922829
 30
0.0
  0
VERTEX
  5
F7
  8
FAB$CUT
 10
883.6785514353265
 20
109.9117686404668
 30
0.0
  0
VERTEX
  5
F8
  8
FAB$CUT
 10
884.3898068852077
 20
111.5870915868758
 30
0.0
  0
VERTEX
  5
F9
  8
FAB$CUT
 10
885.1318278535709
 20
113.2493762015468
 30
0.0
  0
VERTEX
  5
FA
  8
FAB$CUT
 10
885.9047451957523
 20
114.8990292545167
 30
0.0
  0
VERTEX
  5
FB
  8
FAB$CUT
 10
886.7086897670879
 20
116.5364575158225
 30
0.0
  0
VERTEX
  5
FC
  8
FAB$CUT
 10
887.5437924229138
 20
118.1620677555013
 30
0.0
  0
VERTEX
  5
FD
  8
FAB$CUT
 10
888.410184018566
 20
119.77626674359
 30
0.0
  0
VERTEX
  5
FE
  8
FAB$CUT
 10
889.3079954093807
 20
121.3794612501256
 30
0.0
  0
VERTEX
  5
FF
  8
FAB$CUT
 10
890.2373574506939
 20
122.972058045145
 30
0.0
  0
VERTEX
  5
100
  8
FAB$CUT
 10
892.1912569061603
 20
126.1270855807834
 30
0.0
  0
VERTEX
  5
101
  8
FAB$CUT
 10
894.2686839727207
 20
129.2452433152036
 30
0.0
  0
VERTEX
  5
102
  8
FAB$CUT
 10
896.4494592183983
 20
132.3329844307153
 30
0.0
  0
VERTEX
  5
103
  8
FAB$CUT
 10
910.3366399869608
 20
150.6178893825908
 30
0.0
  0
VERTEX
  5
104
  8
FAB$CUT
 10
912.5569612529771
 20
153.6913177936853
 30
0.0
  0
VERTEX
  5
105
  8
FAB$CUT
 10
914.6852332028303
 20
156.7910734795691
 30
0.0
  0
VERTEX
  5
106
  8
FAB$CUT
 10
916.6970311496104
 20
159.9242494269545
 30
0.0
  0
VERTEX
  5
107
  8
FAB$CUT
 10
917.6516196571886
 20
161.5055865570579
 30
0.0
  0
VERTEX
  5
108
  8
FAB$CUT
 10
918.5679304064072
 20
163.0979386225538
 30
0.0
  0
VERTEX
  5
109
  8
FAB$CUT
 10
919.4429103114026
 20
164.7021922467812
 30
0.0
  0
VERTEX
  5
10A
  8
FAB$CUT
 10
920.2735062863107
 20
166.3192340530792
 30
0.0
  0
VERTEX
  5
10B
  8
FAB$CUT
 10
921.0566652452682
 20
167.9499506647867
 30
0.0
  0
VERTEX
  5
10C
  8
FAB$CUT
 10
921.789334102411
 20
169.5952287052429
 30
0.0
  0
VERTEX
  5
10D
  8
FAB$CUT
 10
922.4684597718755
 20
171.2559547977867
 30
0.0
  0
VERTEX
  5
10E
  8
FAB$CUT
 10
923.0909891677978
 20
172.9330155657572
 30
0.0
  0
VERTEX
  5
10F
  8
FAB$CUT
 10
923.3800761738482
 20
173.7779485228209
 30
0.0
  0
VERTEX
  5
110
  8
FAB$CUT
 10
923.6538692043143
 20
174.6272976324934
 30
0.0
  0
VERTEX
  5
111
  8
FAB$CUT
 10
923.9119866234631
 20
175.4811737226921
 30
0.0
  0
VERTEX
  5
112
  8
FAB$CUT
 10
924.1540467955615
 20
176.3396876213343
 30
0.0
  0
VERTEX
  5
113
  8
FAB$CUT
 10
924.3797381467159
 20
177.2028765329783
 30
0.0
  0
VERTEX
  5
114
  8
FAB$CUT
 10
924.5890293503905
 20
178.0704831687456
 30
0.0
  0
VERTEX
  5
115
  8
FAB$CUT
 10
924.781959141889
 20
178.9421766163984
 30
0.0
  0
VERTEX
  5
116
  8
FAB$CUT
 10
924.958566256515
 20
179.8176259636991
 30
0.0
  0
VERTEX
  5
117
  8
FAB$CUT
 10
925.118889429572
 20
180.69650029841
 30
0.0
  0
VERTEX
  5
118
  8
FAB$CUT
 10
925.2629673963637
 20
181.5784687082933
 30
0.0
  0
VERTEX
  5
119
  8
FAB$CUT
 10
925.3908388921936
 20
182.4632002811115
 30
0.0
  0
VERTEX
  5
11A
  8
FAB$CUT
 10
925.5025426523653
 20
183.3503641046267
 30
0.0
  0
VERTEX
  5
11B
  8
FAB$CUT
 10
925.5981174121823
 20
184.2396292666013
 30
0.0
  0
VERTEX
  5
11C
  8
FAB$CUT
 10
925.6776019069484
 20
185.1306648547977
 30
0.0
  0
VERTEX
  5
11D
  8
FAB$CUT
 10
925.7410348719673
 20
186.0231399569781
 30
0.0
  0
VERTEX
  5
11E
  8
FAB$CUT
 10
925.788455042542
 20
186.9167236609048
 30
0.0
  0
VERTEX
  5
11F
  8
FAB$CUT
 10
925.8199011539767
 20
187.8110850543401
 30
0.0
  0
VERTEX
  5
120
  8
FAB$CUT
 10
925.8354119415748
 20
188.7058932250464
 30
0.0
  0
VERTEX
  5
121
  8
FAB$CUT
 10
925.8350261406397
 20
189.600817260786
 30
0.0
  0
VERTEX
  5
122
  8
FAB$CUT
 10
925.8187824864754
 20
190.4955262493211
 30
0.0
  0
VERTEX
  5
123
  8
FAB$CUT
 10
925.7867197143852
 20
191.389689278414
 30
0.0
  0
VERTEX
  5
124
  8
FAB$CUT
 10
925.7388765596727
 20
192.2829754358272
 30
0.0
  0
VERTEX
  5
125
  8
FAB$CUT
 10
925.6752917576414
 20
193.1750538093229
 30
0.0
  0
VERTEX
  5
126
  8
FAB$CUT
 10
925.5960040435953
 20
194.0655934866633
 30
0.0
  0
VERTEX
  5
127
  8
FAB$CUT
 10
925.5010521528377
 20
194.9542635556109
 30
0.0
  0
VERTEX
  5
128
  8
FAB$CUT
 10
925.3904748206721
 20
195.8407331039278
 30
0.0
  0
VERTEX
  5
129
  8
FAB$CUT
 10
925.2643107824023
 20
196.7246712193766
 30
0.0
  0
VERTEX
  5
12A
  8
FAB$CUT
 10
925.1225987733319
 20
197.6057469897193
 30
0.0
  0
VERTEX
  5
12B
  8
FAB$CUT
 10
924.9653775287643
 20
198.4836295027184
 30
0.0
  0
VERTEX
  5
12C
  8
FAB$CUT
 10
924.7926857840034
 20
199.357987846136
 30
0.0
  0
VERTEX
  5
12D
  8
FAB$CUT
 10
924.6045622743525
 20
200.2284911077347
 30
0.0
  0
VERTEX
  5
12E
  8
FAB$CUT
 10
924.4010457351151
 20
201.0948083752766
 30
0.0
  0
VERTEX
  5
12F
  8
FAB$CUT
 10
924.1821749015951
 20
201.9566087365241
 30
0.0
  0
VERTEX
  5
130
  8
FAB$CUT
 10
923.947988509096
 20
202.8135612792395
 30
0.0
  0
VERTEX
  5
131
  8
FAB$CUT
 10
923.6985252929214
 20
203.665335091185
 30
0.0
  0
VERTEX
  5
132
  8
FAB$CUT
 10
923.433823988375
 20
204.5115992601231
 30
0.0
  0
VERTEX
  5
133
  8
FAB$CUT
 10
923.1539233307602
 20
205.3520228738159
 30
0.0
  0
VERTEX
  5
134
  8
FAB$CUT
 10
922.8588620553805
 20
206.1862750200259
 30
0.0
  0
VERTEX
  5
135
  8
FAB$CUT
 10
922.5486788975397
 20
207.0140247865153
 30
0.0
  0
VERTEX
  5
136
  8
FAB$CUT
 10
922.2234125925415
 20
207.8349412610463
 30
0.0
  0
VERTEX
  5
137
  8
FAB$CUT
 10
921.8831018756894
 20
208.6486935313815
 30
0.0
  0
VERTEX
  5
138
  8
FAB$CUT
 10
921.5277854822866
 20
209.4549506852829
 30
0.0
  0
VERTEX
  5
139
  8
FAB$CUT
 10
921.1575021476372
 20
210.2533818105131
 30
0.0
  0
VERTEX
  5
13A
  8
FAB$CUT
 10
920.7722906070446
 20
211.0436559948342
 30
0.0
  0
VERTEX
  5
13B
  8
FAB$CUT
 10
920.3721895958124
 20
211.8254423260085
 30
0.0
  0
VERTEX
  5
13C
  8
FAB$CUT
 10
919.9572378492442
 20
212.5984098917984
 30
0.0
  0
VERTEX
  5
13D
  8
FAB$CUT
 10
919.5274741026435
 20
213.3622277799662
 30
0.0
  0
VERTEX
  5
13E
  8
FAB$CUT
 10
919.0829370913141
 20
214.1165650782743
 30
0.0
  0
VERTEX
  5
13F
  8
FAB$CUT
 10
918.6236655505595
 20
214.8610908744848
 30
0.0
  0
VERTEX
  5
140
  8
FAB$CUT
 10
918.1496982156832
 20
215.5954742563601
 30
0.0
  0
VERTEX
  5
141
  8
FAB$CUT
 10
917.661073821989
 20
216.3193843116625
 30
0.0
  0
VERTEX
  5
142
  8
FAB$CUT
 10
917.1578311047804
 20
217.0324901281544
 30
0.0
  0
VERTEX
  5
143
  8
FAB$CUT
 10
916.6400087993609
 20
217.734460793598
 30
0.0
  0
VERTEX
  5
144
  8
FAB$CUT
 10
916.1076456410342
 20
218.4249653957556
 30
0.0
  0
VERTEX
  5
145
  8
FAB$CUT
 10
915.5607803651037
 20
219.1036730223896
 30
0.0
  0
VERTEX
  5
146
  8
FAB$CUT
 10
914.9994517068733
 20
219.7702527612622
 30
0.0
  0
VERTEX
  5
147
  8
FAB$CUT
 10
914.4236984016463
 20
220.4243737001358
 30
0.0
  0
VERTEX
  5
148
  8
FAB$CUT
 10
913.8335591847265
 20
221.0657049267726
 30
0.0
  0
VERTEX
  5
149
  8
FAB$CUT
 10
913.2290727914174
 20
221.6939155289351
 30
0.0
  0
VERTEX
  5
14A
  8
FAB$CUT
 10
912.6102779570226
 20
222.3086745943854
 30
0.0
  0
VERTEX
  5
14B
  8
FAB$CUT
 10
911.9772134168459
 20
222.909651210886
 30
0.0
  0
VERTEX
  5
14C
  8
FAB$CUT
 10
911.3299179061904
 20
223.496514466199
 30
0.0
  0
VERTEX
  5
14D
  8
FAB$CUT
 10
910.6684301603601
 20
224.0689334480869
 30
0.0
  0
VERTEX
  5
14E
  8
FAB$CUT
 10
909.9927889146586
 20
224.6265772443118
 30
0.0
  0
VERTEX
  5
14F
  8
FAB$CUT
 10
909.3030329043894
 20
225.1691149426362
 30
0.0
  0
VERTEX
  5
150
  8
FAB$CUT
 10
908.599200864856
 20
225.6962156308223
 30
0.0
  0
VERTEX
  5
151
  8
FAB$CUT
 10
907.8813315313621
 20
226.2075483966325
 30
0.0
  0
VERTEX
  5
152
  8
FAB$CUT
 10
907.1494636392111
 20
226.702782327829
 30
0.0
  0
VERTEX
  5
153
  8
FAB$CUT
 10
906.4037018613158
 20
227.181734311325
 30
0.0
  0
VERTEX
  5
154
  8
FAB$CUT
 10
905.6444146210237
 20
227.6448124306363
 30
0.0
  0
VERTEX
  5
155
  8
FAB$CUT
 10
904.8720362792915
 20
228.0925725684298
 30
0.0
  0
VERTEX
  5
156
  8
FAB$CUT
 10
904.0870011970758
 20
228.5255706073722
 30
0.0
  0
VERTEX
  5
157
  8
FAB$CUT
 10
903.2897437353333
 20
228.9443624301302
 30
0.0
  0
VERTEX
  5
158
  8
FAB$CUT
 10
902.4806982550205
 20
229.3495039193705
 30
0.0
  0
VERTEX
  5
159
  8
FAB$CUT
 10
901.660299117094
 20
229.74155095776
 30
0.0
  0
VERTEX
  5
15A
  8
FAB$CUT
 10
900.8289806825106
 20
230.1210594279654
 30
0.0
  0
VERTEX
  5
15B
  8
FAB$CUT
 10
899.1353233671992
 20
230.8446841944907
 30
0.0
  0
VERTEX
  5
15C
  8
FAB$CUT
 10
897.4032011967392
 20
231.5248252802804
 30
0.0
  0
VERTEX
  5
15D
  8
FAB$CUT
 10
895.6360890587837
 20
232.1659297466683
 30
0.0
  0
VERTEX
  5
15E
  8
FAB$CUT
 10
893.8374618409854
 20
232.7724446549884
 30
0.0
  0
VERTEX
  5
15F
  8
FAB$CUT
 10
890.1595617164724
 20
233.8994940427612
 30
0.0
  0
VERTEX
  5
160
  8
FAB$CUT
 10
871.0606181053465
 20
238.971368351099
 30
0.0
  0
VERTEX
  5
161
  8
FAB$CUT
 10
867.2935344939744
 20
240.1221041213621
 30
0.0
  0
VERTEX
  5
162
  8
FAB$CUT
 10
865.4391675968893
 20
240.7434230187387
 30
0.0
  0
VERTEX
  5
163
  8
FAB$CUT
 10
863.6088838224085
 20
241.4013053393905
 30
0.0
  0
VERTEX
  5
164
  8
FAB$CUT
 10
861.8061580581852
 20
242.1001981446516
 30
0.0
  0
VERTEX
  5
165
  8
FAB$CUT
 10
860.0344651918722
 20
242.8445484958559
 30
0.0
  0
VERTEX
  5
166
  8
FAB$CUT
 10
858.2972801111224
 20
243.6388034543372
 30
0.0
  0
VERTEX
  5
167
  8
FAB$CUT
 10
857.4427138927254
 20
244.0560348679737
 30
0.0
  0
VERTEX
  5
168
  8
FAB$CUT
 10
856.598077703589
 20
244.4874100814297
 30
0.0
  0
VERTEX
  5
169
  8
FAB$CUT
 10
855.7638059046699
 20
244.9334849773719
 30
0.0
  0
VERTEX
  5
16A
  8
FAB$CUT
 10
854.9403328569248
 20
245.394815438467
 30
0.0
  0
VERTEX
  5
16B
  8
FAB$CUT
 10
854.1280929213101
 20
245.871957347382
 30
0.0
  0
VERTEX
  5
16C
  8
FAB$CUT
 10
853.3275204587826
 20
246.3654665867834
 30
0.0
  0
VERTEX
  5
16D
  8
FAB$CUT
 10
852.5390498302991
 20
246.875899039338
 30
0.0
  0
VERTEX
  5
16E
  8
FAB$CUT
 10
851.7631153968157
 20
247.4038105877126
 30
0.0
  0
VERTEX
  5
16F
  8
FAB$CUT
 10
851.0001515192894
 20
247.9497571145739
 30
0.0
  0
VERTEX
  5
170
  8
FAB$CUT
 10
850.2505925586767
 20
248.5142945025887
 30
0.0
  0
VERTEX
  5
171
  8
FAB$CUT
 10
849.5147610381795
 20
249.0977878384876
 30
0.0
  0
VERTEX
  5
172
  8
FAB$CUT
 10
848.7925321299804
 20
249.6998390252576
 30
0.0
  0
VERTEX
  5
173
  8
FAB$CUT
 10
848.0836691685074
 20
250.3198591699496
 30
0.0
  0
VERTEX
  5
174
  8
FAB$CUT
 10
847.3879354881888
 20
250.9572593796145
 30
0.0
  0
VERTEX
  5
175
  8
FAB$CUT
 10
846.705094423452
 20
251.6114507613031
 30
0.0
  0
VERTEX
  5
176
  8
FAB$CUT
 10
846.0349093087252
 20
252.2818444220663
 30
0.0
  0
VERTEX
  5
177
  8
FAB$CUT
 10
845.3771434784363
 20
252.9678514689551
 30
0.0
  0
VERTEX
  5
178
  8
FAB$CUT
 10
844.7315602670133
 20
253.6688830090204
 30
0.0
  0
VERTEX
  5
179
  8
FAB$CUT
 10
844.097923008884
 20
254.3843501493129
 30
0.0
  0
VERTEX
  5
17A
  8
FAB$CUT
 10
843.4759950384764
 20
255.1136639968836
 30
0.0
  0
VERTEX
  5
17B
  8
FAB$CUT
 10
842.2663202985382
 20
256.6114762420633
 30
0.0
  0
VERTEX
  5
17C
  8
FAB$CUT
 10
841.1006427226223
 20
258.1576086009665
 30
0.0
  0
VERTEX
  5
17D
  8
FAB$CUT
 10
839.9770689861521
 20
259.7473499300002
 30
0.0
  0
VERTEX
  5
17E
  8
FAB$CUT
 10
838.8937057645512
 20
261.3759890855717
 30
0.0
  0
VERTEX
  5
17F
  8
FAB$CUT
 10
837.848659733243
 20
263.0388149240882
 30
0.0
  0
VERTEX
  5
180
  8
FAB$CUT
 10
836.8400375676513
 20
264.7311163019567
 30
0.0
  0
VERTEX
  5
181
  8
FAB$CUT
 10
835.8659459431993
 20
266.4481820755842
 30
0.0
  0
VERTEX
  5
182
  8
FAB$CUT
 10
834.0137810194093
 20
269.9377622357453
 30
0.0
  0
VERTEX
  5
183
  8
FAB$CUT
 10
832.2770183652613
 20
273.4698662558283
 30
0.0
  0
VERTEX
  5
184
  8
FAB$CUT
 10
829.0891134794439
 20
280.5108892807885
 30
0.0
  0
VERTEX
  5
185
  8
FAB$CUT
 10
823.4316806925967
 20
293.4448991050817
 30
0.0
  0
VERTEX
  5
186
  8
FAB$CUT
 10
822.0786292208139
 20
296.2193739798151
 30
0.0
  0
VERTEX
  5
187
  8
FAB$CUT
 10
821.4008862084913
 20
297.51184599022
 30
0.0
  0
VERTEX
  5
188
  8
FAB$CUT
 10
820.7198072457793
 20
298.7348595245265
 30
0.0
  0
VERTEX
  5
189
  8
FAB$CUT
 10
820.0338252100727
 20
299.8848749298432
 30
0.0
  0
VERTEX
  5
18A
  8
FAB$CUT
 10
819.3426777866509
 20
300.9630385160841
 30
0.0
  0
VERTEX
  5
18B
  8
FAB$CUT
 10
818.995187019313
 20
301.4759001897434
 30
0.0
  0
VERTEX
  5
18C
  8
FAB$CUT
 10
818.6464288627653
 20
301.9716680838644
 30
0.0
  0
VERTEX
  5
18D
  8
FAB$CUT
 10
818.2964113029145
 20
302.4506319235241
 30
0.0
  0
VERTEX
  5
18E
  8
FAB$CUT
 10
817.9451423256669
 20
302.9130814337994
 30
0.0
  0
VERTEX
  5
18F
  8
FAB$CUT
 10
817.5926299169287
 20
303.3593063397674
 30
0.0
  0
VERTEX
  5
190
  8
FAB$CUT
 10
817.2388820626065
 20
303.7895963665047
 30
0.0
  0
VERTEX
  5
191
  8
FAB$CUT
 10
816.8839067486065
 20
304.2042412390884
 30
0.0
  0
VERTEX
  5
192
  8
FAB$CUT
 10
816.5277119608351
 20
304.6035306825955
 30
0.0
  0
VERTEX
  5
193
  8
FAB$CUT
 10
816.1703056851986
 20
304.9877544221028
 30
0.0
  0
VERTEX
  5
194
  8
FAB$CUT
 10
815.8116959076036
 20
305.3572021826872
 30
0.0
  0
VERTEX
  5
195
  8
FAB$CUT
 10
815.4518906139564
 20
305.7121636894257
 30
0.0
  0
VERTEX
  5
196
  8
FAB$CUT
 10
815.0908977901631
 20
306.0529286673951
 30
0.0
  0
VERTEX
  5
197
  8
FAB$CUT
 10
814.7287254221303
 20
306.3797868416724
 30
0.0
  0
VERTEX
  5
198
  8
FAB$CUT
 10
814.3653814957645
 20
306.6930279373345
 30
0.0
  0
VERTEX
  5
199
  8
FAB$CUT
 10
814.000873996972
 20
306.9929416794583
 30
0.0
  0
VERTEX
  5
19A
  8
FAB$CUT
 10
813.635210911659
 20
307.2798177931209
 30
0.0
  0
VERTEX
  5
19B
  8
FAB$CUT
 10
813.268400225732
 20
307.5539460033989
 30
0.0
  0
VERTEX
  5
19C
  8
FAB$CUT
 10
812.9004499250974
 20
307.8156160353695
 30
0.0
  0
VERTEX
  5
19D
  8
FAB$CUT
 10
812.5313679956615
 20
308.0651176141096
 30
0.0
  0
VERTEX
  5
19E
  8
FAB$CUT
 10
812.1611624233308
 20
308.3027404646958
 30
0.0
  0
VERTEX
  5
19F
  8
FAB$CUT
 10
811.7898411940114
 20
308.5287743122054
 30
0.0
  0
VERTEX
  5
1A0
  8
FAB$CUT
 10
811.4174122936099
 20
308.7435088817151
 30
0.0
  0
VERTEX
  5
1A1
  8
FAB$CUT
 10
811.0438837080326
 20
308.9472338983019
 30
0.0
  0
VERTEX
  5
1A2
  8
FAB$CUT
 10
810.6692634231858
 20
309.1402390870427
 30
0.0
  0
VERTEX
  5
1A3
  8
FAB$CUT
 10
810.293559424976
 20
309.3228141730144
 30
0.0
  0
VERTEX
  5
1A4
  8
FAB$CUT
 10
809.9167796993097
 20
309.4952488812939
 30
0.0
  0
VERTEX
  5
1A5
  8
FAB$CUT
 10
809.538932232093
 20
309.6578329369582
 30
0.0
  0
VERTEX
  5
1A6
  8
FAB$CUT
 10
809.1600250092323
 20
309.8108560650843
 30
0.0
  0
VERTEX
  5
1A7
  8
FAB$CUT
 10
808.7800660166341
 20
309.9546079907489
 30
0.0
  0
VERTEX
  5
1A8
  8
FAB$CUT
 10
808.3990632402048
 20
310.089378439029
 30
0.0
  0
VERTEX
  5
1A9
  8
FAB$CUT
 10
808.0170246658506
 20
310.2154571350015
 30
0.0
  0
VERTEX
  5
1AA
  8
FAB$CUT
 10
807.6339582794781
 20
310.3331338037434
 30
0.0
  0
VERTEX
  5
1AB
  8
FAB$CUT
 10
807.2498720669934
 20
310.4426981703315
 30
0.0
  0
VERTEX
  5
1AC
  8
FAB$CUT
 10
806.8647740143031
 20
310.5444399598429
 30
0.0
  0
VERTEX
  5
1AD
  8
FAB$CUT
 10
806.4786721073135
 20
310.6386488973544
 30
0.0
  0
VERTEX
  5
1AE
  8
FAB$CUT
 10
806.0915743319308
 20
310.7256147079429
 30
0.0
  0
VERTEX
  5
1AF
  8
FAB$CUT
 10
805.3144231196123
 20
310.8789758486586
 30
0.0
  0
VERTEX
  5
1B0
  8
FAB$CUT
 10
804.5333842645986
 20
311.0068411826055
 30
0.0
  0
VERTEX
  5
1B1
  8
FAB$CUT
 10
803.7485216541404
 20
311.1115285103988
 30
0.0
  0
VERTEX
  5
1B2
  8
FAB$CUT
 10
802.959899175489
 20
311.195355632654
 30
0.0
  0
VERTEX
  5
1B3
  8
FAB$CUT
 10
802.1675807158953
 20
311.2606403499864
 30
0.0
  0
VERTEX
  5
1B4
  8
FAB$CUT
 10
801.3716301626102
 20
311.3097004630114
 30
0.0
  0
VERTEX
  5
1B5
  8
FAB$CUT
 10
799.7690883239698
 20
311.3684180786003
 30
0.0
  0
VERTEX
  5
1B6
  8
FAB$CUT
 10
758.9667839155893
 20
311.3931412851639
 30
0.0
  0
SEQEND
  5
1B7
  8
FAB$CUT
  0
POLYLINE
  5
1B8
  8
FAB$CUT
 66
     1
 10
0.0
 20
0.0
 30
0.0
 70
     1
  0
VERTEX
  5
1B9
  8
FAB$CUT
 10
721.1313500505651
 20
284.335207367873
 30
0.0
 42
0.0725462469940078
  0
VERTEX
  5
1BA
  8
FAB$CUT
 10
720.8667839155894
 20
282.5213731211948
 30
0.0
  0
VERTEX
  5
1BB
  8
FAB$CUT
 10
720.8667839155894
 20
274.224909449133
 30
0.0
 42
0.4142135623730981
  0
VERTEX
  5
1BC
  8
FAB$CUT
 10
727.2167839155893
 20
267.8749094491329
 30
0.0
  0
VERTEX
  5
1BD
  8
FAB$CUT
 10
790.7167839155893
 20
267.8749094491329
 30
0.0
 42
0.4142135623730947
  0
VERTEX
  5
1BE
  8
FAB$CUT
 10
797.0667839155894
 20
274.224909449133
 30
0.0
  0
VERTEX
  5
1BF
  8
FAB$CUT
 10
797.0667839155894
 20
282.5213731211949
 30
0.0
 42
0.0725462470350681
  0
VERTEX
  5
1C0
  8
FAB$CUT
 10
796.8022177803192
 20
284.3352073688591
 30
0.0
 42
0.4107848969574956
  0
VERTEX
  5
1C1
  8
FAB$CUT
 10
792.8883069657436
 20
286.4814273561961
 30
0.0
  0
VERTEX
  5
1C2
  8
FAB$CUT
 10
792.7400818024873
 20
286.4408560512003
 30
0.0
  0
VERTEX
  5
1C3
  8
FAB$CUT
 10
792.5917268190269
 20
286.4036565209618
 30
0.0
  0
VERTEX
  5
1C4
  8
FAB$CUT
 10
792.4432438718757
 20
286.3697711821779
 30
0.0
  0
VERTEX
  5
1C5
  8
FAB$CUT
 10
792.2946348175464
 20
286.3391424515459
 30
0.0
  0
VERTEX
  5
1C6
  8
FAB$CUT
 10
792.1459015125524
 20
286.3117127457627
 30
0.0
  0
VERTEX
  5
1C7
  8
FAB$CUT
 10
791.9970458134075
 20
286.2874244815259
 30
0.0
  0
VERTEX
  5
1C8
  8
FAB$CUT
 10
791.8480695766242
 20
286.2662200755324
 30
0.0
  0
VERTEX
  5
1C9
  8
FAB$CUT
 10
791.6989746587162
 20
286.2480419444795
 30
0.0
  0
VERTEX
  5
1CA
  8
FAB$CUT
 10
791.5497629161965
 20
286.2328325050644
 30
0.0
  0
VERTEX
  5
1CB
  8
FAB$CUT
 10
791.4004362055784
 20
286.2205341739843
 30
0.0
  0
VERTEX
  5
1CC
  8
FAB$CUT
 10
791.250996383375
 20
286.2110893679364
 30
0.0
  0
VERTEX
  5
1CD
  8
FAB$CUT
 10
791.1014453060995
 20
286.2044405036178
 30
0.0
  0
VERTEX
  5
1CE
  8
FAB$CUT
 10
790.9517848302654
 20
286.2005299977259
 30
0.0
  0
VERTEX
  5
1CF
  8
FAB$CUT
 10
790.8020168123858
 20
286.1993002669577
 30
0.0
  0
VERTEX
  5
1D0
  8
FAB$CUT
 10
790.5021655765426
 20
286.2046527975815
 30
0.0
  0
VERTEX
  5
1D1
  8
FAB$CUT
 10
790.2019064506758
 20
286.2200374290668
 30
0.0
  0
VERTEX
  5
1D2
  8
FAB$CUT
 10
789.9012542868913
 20
286.2449934949913
 30
0.0
  0
VERTEX
  5
1D3
  8
FAB$CUT
 10
789.6002239372949
 20
286.2790603289324
 30
0.0
  0
VERTEX
  5
1D4
  8
FAB$CUT
 10
789.298830253992
 20
286.3217772644677
 30
0.0
  0
VERTEX
  5
1D5
  8
FAB$CUT
 10
788.997088089089
 20
286.3726836351749
 30
0.0
  0
VERTEX
  5
1D6
  8
FAB$CUT
 10
788.6950122946911
 20
286.4313187746316
 30
0.0
  0
VERTEX
  5
1D7
  8
FAB$CUT
 10
788.3926177229043
 20
286.4972220164152
 30
0.0
  0
VERTEX
  5
1D8
  8
FAB$CUT
 10
788.0899192258346
 20
286.5699326941035
 30
0.0
  0
VERTEX
  5
1D9
  8
FAB$CUT
 10
787.6375320093226
 20
286.6898633277083
 30
0.0
  0
VERTEX
  5
1DA
  8
FAB$CUT
 10
787.1845516901814
 20
286.8207477942033
 30
0.0
  0
VERTEX
  5
1DB
  8
FAB$CUT
 10
785.3677202427573
 20
287.3900489197928
 30
0.0
  0
VERTEX
  5
1DC
  8
FAB$CUT
 10
784.4570730153338
 20
287.657514889848
 30
0.0
  0
VERTEX
  5
1DD
  8
FAB$CUT
 10
784.0013701753952
 20
287.7757910895643
 30
0.0
  0
VERTEX
  5
1DE
  8
FAB$CUT
 10
783.545482575001
 20
287.8795110944538
 30
0.0
  0
VERTEX
  5
1DF
  8
FAB$CUT
 10
783.3174854404992
 20
287.9249160383807
 30
0.0
  0
VERTEX
  5
1E0
  8
FAB$CUT
 10
783.0894612569228
 20
287.9654861510516
 30
0.0
  0
VERTEX
  5
1E1
  8
FAB$CUT
 10
782.8614164046185
 20
288.0008228382835
 30
0.0
  0
VERTEX
  5
1E2
  8
FAB$CUT
 10
782.6333572639326
 20
288.0305275058931
 30
0.0
  0
VERTEX
  5
1E3
  8
FAB$CUT
 10
782.4052902152115
 20
288.0542015596976
 30
0.0
  0
VERTEX
  5
1E4
  8
FAB$CUT
 10
782.1772216388017
 20
288.0714464055137
 30
0.0
  0
VERTEX
  5
1E5
  8
FAB$CUT
 10
781.9491579150497
 20
288.0818634491584
 30
0.0
  0
VERTEX
  5
1E6
  8
FAB$CUT
 10
781.7211054243021
 20
288.0850540964486
 30
0.0
  0
VERTEX
  5
1E7
  8
FAB$CUT
 10
781.4930705469051
 20
288.0806197532013
 30
0.0
  0
VERTEX
  5
1E8
  8
FAB$CUT
 10
781.3790617070715
 20
288.0754186494438
 30
0.0
  0
VERTEX
  5
1E9
  8
FAB$CUT
 10
781.2650596632054
 20
288.0681618252333
 30
0.0
  0
VERTEX
  5
1EA
  8
FAB$CUT
 10
781.1510652128502
 20
288.0587994562968
 30
0.0
  0
VERTEX
  5
1EB
  8
FAB$CUT
 10
781.0370791535493
 20
288.0472817183615
 30
0.0
  0
VERTEX
  5
1EC
  8
FAB$CUT
 10
780.9231022828458
 20
288.0335587871547
 30
0.0
  0
VERTEX
  5
1ED
  8
FAB$CUT
 10
780.8091353982832
 20
288.0175808384031
 30
0.0
  0
VERTEX
  5
1EE
  8
FAB$CUT
 10
780.6951791289098
 20
287.9993208450026
 30
0.0
  0
VERTEX
  5
1EF
  8
FAB$CUT
 10
780.5812334297933
 20
287.9788429685227
 30
0.0
  0
VERTEX
  5
1F0
  8
FAB$CUT
 10
780.3533728886233
 20
287.9315814012776
 30
0.0
  0
VERTEX
  5
1F1
  8
FAB$CUT
 10
780.1255520673566
 20
287.8764918065727
 30
0.0
  0
VERTEX
  5
1F2
  8
FAB$CUT
 10
779.8977692585764
 20
287.8142698543134
 30
0.0
  0
VERTEX
  5
1F3
  8
FAB$CUT
 10
779.6700227548663
 20
287.7456112144047
 30
0.0
  0
VERTEX
  5
1F4
  8
FAB$CUT
 10
779.4423108488095
 20
287.6712115567516
 30
0.0
  0
VERTEX
  5
1F5
  8
FAB$CUT
 10
778.9869839999891
 20
287.507971867833
 30
0.0
  0
VERTEX
  5
1F6
  8
FAB$CUT
 10
776.7118450934247
 20
286.5838401263218
 30
0.0
  0
VERTEX
  5
1F7
  8
FAB$CUT
 10
776.2570207642867
 20
286.4163846333225
 30
0.0
  0
VERTEX
  5
1F8
  8
FAB$CUT
 10
776.0296229330313
 20
286.339350098119
 30
0.0
  0
VERTEX
  5
1F9
  8
FAB$CUT
 10
775.8022323807629
 20
286.267705263653
 30
0.0
  0
VERTEX
  5
1FA
  8
FAB$CUT
 10
775.5748474000646
 20
286.2021457998297
 30
0.0
  0
VERTEX
  5
1FB
  8
FAB$CUT
 10
775.3474662835199
 20
286.1433673765542
 30
0.0
  0
VERTEX
  5
1FC
  8
FAB$CUT
 10
775.1200873237121
 20
286.0920656637317
 30
0.0
  0
VERTEX
  5
1FD
  8
FAB$CUT
 10
775.0063981190169
 20
286.0694359705856
 30
0.0
  0
VERTEX
  5
1FE
  8
FAB$CUT
 10
774.8927088132245
 20
286.0489363312672
 30
0.0
  0
VERTEX
  5
1FF
  8
FAB$CUT
 10
774.7790191929082
 20
286.0306537045146
 30
0.0
  0
VERTEX
  5
200
  8
FAB$CUT
 10
774.6653290446407
 20
286.0146750490659
 30
0.0
  0
VERTEX
  5
201
  8
FAB$CUT
 10
774.5516381549949
 20
286.0010873236594
 30
0.0
  0
VERTEX
  5
202
  8
FAB$CUT
 10
774.4379463105438
 20
285.9899774870329
 30
0.0
  0
VERTEX
  5
203
  8
FAB$CUT
 10
774.3242532978602
 20
285.9814324979247
 30
0.0
  0
VERTEX
  5
204
  8
FAB$CUT
 10
774.2105589035172
 20
285.9755393150732
 30
0.0
  0
VERTEX
  5
205
  8
FAB$CUT
 10
774.0968629140875
 20
285.9723848972163
 30
0.0
  0
VERTEX
  5
206
  8
FAB$CUT
 10
773.9831651161442
 20
285.9720562030921
 30
0.0
  0
VERTEX
  5
207
  8
FAB$CUT
 10
773.8694652962602
 20
285.9746401914388
 30
0.0
  0
VERTEX
  5
208
  8
FAB$CUT
 10
773.7557632410083
 20
285.9802238209945
 30
0.0
  0
VERTEX
  5
209
  8
FAB$CUT
 10
773.6420587369614
 20
285.9888940504975
 30
0.0
  0
VERTEX
  5
20A
  8
FAB$CUT
 10
773.5283515706926
 20
286.0007378386858
 30
0.0
  0
VERTEX
  5
20B
  8
FAB$CUT
 10
773.4146415737067
 20
286.0158087573099
 30
0.0
  0
VERTEX
  5
20C
  8
FAB$CUT
 10
773.3009287572368
 20
286.0340268301691
 30
0.0
  0
VERTEX
  5
20D
  8
FAB$CUT
 10
773.1872131774478
 20
286.0552786940753
 30
0.0
  0
VERTEX
  5
20E
  8
FAB$CUT
 10
773.0734948905049
 20
286.0794509858403
 30
0.0
  0
VERTEX
  5
20F
  8
FAB$CUT
 10
772.959773952573
 20
286.1064303422756
 30
0.0
  0
VERTEX
  5
210
  8
FAB$CUT
 10
772.8460504198171
 20
286.1361034001933
 30
0.0
  0
VERTEX
  5
211
  8
FAB$CUT
 10
772.7323243484022
 20
286.1683567964049
 30
0.0
  0
VERTEX
  5
212
  8
FAB$CUT
 10
772.6185957944933
 20
286.2030771677222
 30
0.0
  0
VERTEX
  5
213
  8
FAB$CUT
 10
772.5048648142556
 20
286.240151150957
 30
0.0
  0
VERTEX
  5
214
  8
FAB$CUT
 10
772.391131463854
 20
286.279465382921
 30
0.0
  0
VERTEX
  5
215
  8
FAB$CUT
 10
772.1636578772191
 20
286.3643611402837
 30
0.0
  0
VERTEX
  5
216
  8
FAB$CUT
 10
771.936175483909
 20
286.4568575343042
 30
0.0
  0
VERTEX
  5
217
  8
FAB$CUT
 10
771.7086847332437
 20
286.5560476594767
 30
0.0
  0
VERTEX
  5
218
  8
FAB$CUT
 10
771.4811860745433
 20
286.6610246102951
 30
0.0
  0
VERTEX
  5
219
  8
FAB$CUT
 10
771.2536799571282
 20
286.7708814812534
 30
0.0
  0
VERTEX
  5
21A
  8
FAB$CUT
 10
769.4334164224928
 20
287.7165849132368
 30
0.0
  0
VERTEX
  5
21B
  8
FAB$CUT
 10
768.978307404097
 20
287.9383265872121
 30
0.0
  0
VERTEX
  5
21C
  8
FAB$CUT
 10
768.7507488959495
 20
288.0420068163137
 30
0.0
  0
VERTEX
  5
21D
  8
FAB$CUT
 10
768.5231883209292
 20
288.1396840994832
 30
0.0
  0
VERTEX
  5
21E
  8
FAB$CUT
 10
768.2956261283562
 20
288.2304515312147
 30
0.0
  0
VERTEX
  5
21F
  8
FAB$CUT
 10
768.0680627675506
 20
288.3134022060022
 30
0.0
  0
VERTEX
  5
220
  8
FAB$CUT
 10
767.9542807894732
 20
288.3516628515713
 30
0.0
  0
VERTEX
  5
221
  8
FAB$CUT
 10
767.8404986878327
 20
288.3876292183396
 30
0.0
  0
VERTEX
  5
222
  8
FAB$CUT
 10
767.7267165187941
 20
288.421187943119
 30
0.0
  0
VERTEX
  5
223
  8
FAB$CUT
 10
767.6129343385226
 20
288.452225662721
 30
0.0
  0
VERTEX
  5
224
  8
FAB$CUT
 10
767.499152203183
 20
288.4806290139576
 30
0.0
  0
VERTEX
  5
225
  8
FAB$CUT
 10
767.3853701689403
 20
288.5062846336405
 30
0.0
  0
VERTEX
  5
226
  8
FAB$CUT
 10
767.2715882919597
 20
288.5290791585813
 30
0.0
  0
VERTEX
  5
227
  8
FAB$CUT
 10
767.1578066284062
 20
288.5488992255919
 30
0.0
  0
VERTEX
  5
228
  8
FAB$CUT
 10
767.0440252344447
 20
288.5656314714839
 30
0.0
  0
VERTEX
  5
229
  8
FAB$CUT
 10
766.9302441662403
 20
288.5791625330693
 30
0.0
  0
VERTEX
  5
22A
  8
FAB$CUT
 10
766.8164634799581
 20
288.5893790471596
 30
0.0
  0
VERTEX
  5
22B
  8
FAB$CUT
 10
766.7026832317629
 20
288.5961676505667
 30
0.0
  0
VERTEX
  5
22C
  8
FAB$CUT
 10
766.5889034778199
 20
288.5994149801022
 30
0.0
  0
VERTEX
  5
22D
  8
FAB$CUT
 10
766.4751242742941
 20
288.5990076725781
 30
0.0
  0
VERTEX
  5
22E
  8
FAB$CUT
 10
766.3613456773503
 20
288.5948323648059
 30
0.0
  0
VERTEX
  5
22F
  8
FAB$CUT
 10
766.247567743154
 20
288.5867756935975
 30
0.0
  0
VERTEX
  5
230
  8
FAB$CUT
 10
766.133790516637
 20
288.5747648121589
 30
0.0
  0
VERTEX
  5
231
  8
FAB$CUT
 10
766.020013997799
 20
288.558888939274
 30
0.0
  0
VERTEX
  5
232
  8
FAB$CUT
 10
765.9062381754072
 20
288.5392778101206
 30
0.0
  0
VERTEX
  5
233
  8
FAB$CUT
 10
765.7924630382288
 20
288.5160611598768
 30
0.0
  0
VERTEX
  5
234
  8
FAB$CUT
 10
765.6786885750305
 20
288.4893687237206
 30
0.0
  0
VERTEX
  5
235
  8
FAB$CUT
 10
765.5649147745794
 20
288.4593302368302
 30
0.0
  0
VERTEX
  5
236
  8
FAB$CUT
 10
765.4511416256425
 20
288.4260754343835
 30
0.0
  0
VERTEX
  5
237
  8
FAB$CUT
 10
765.3373691169869
 20
288.3897340515585
 30
0.0
  0
VERTEX
  5
238
  8
FAB$CUT
 10
765.2235972373794
 20
288.3504358235334
 30
0.0
  0
VERTEX
  5
239
  8
FAB$CUT
 10
765.1098259755872
 20
288.3083104854861
 30
0.0
  0
VERTEX
  5
23A
  8
FAB$CUT
 10
764.9960553203772
 20
288.2634877725948
 30
0.0
  0
VERTEX
  5
23B
  8
FAB$CUT
 10
764.8822852605164
 20
288.2160974200373
 30
0.0
  0
VERTEX
  5
23C
  8
FAB$CUT
 10
764.6547468819105
 20
288.1141327366363
 30
0.0
  0
VERTEX
  5
23D
  8
FAB$CUT
 10
764.4272107499052
 20
288.0034543167075
 30
0.0
  0
VERTEX
  5
23E
  8
FAB$CUT
 10
764.1996767746367
 20
287.8851000416752
 30
0.0
  0
VERTEX
  5
23F
  8
FAB$CUT
 10
763.9721448662409
 20
287.7601077929637
 30
0.0
  0
VERTEX
  5
240
  8
FAB$CUT
 10
763.5170868906114
 20
287.4943609002001
 30
0.0
  0
VERTEX
  5
241
  8
FAB$CUT
 10
761.6969196901978
 20
286.3734306668392
 30
0.0
  0
VERTEX
  5
242
  8
FAB$CUT
 10
761.4694045863764
 20
286.2439208816606
 30
0.0
  0
VERTEX
  5
243
  8
FAB$CUT
 10
761.2418904710596
 20
286.1202276998946
 30
0.0
  0
VERTEX
  5
244
  8
FAB$CUT
 10
761.014377254383
 20
286.0033890029654
 30
0.0
  0
VERTEX
  5
245
  8
FAB$CUT
 10
760.786864846483
 20
285.8944426722971
 30
0.0
  0
VERTEX
  5
246
  8
FAB$CUT
 10
760.5593531574953
 20
285.7944265893144
 30
0.0
  0
VERTEX
  5
247
  8
FAB$CUT
 10
760.4455975545112
 20
285.74809172865
 30
0.0
  0
VERTEX
  5
248
  8
FAB$CUT
 10
760.3318420975561
 20
285.7043786354412
 30
0.0
  0
VERTEX
  5
249
  8
FAB$CUT
 10
760.2180867753971
 20
285.6634170448659
 30
0.0
  0
VERTEX
  5
24A
  8
FAB$CUT
 10
760.1043315768011
 20
285.6253366921022
 30
0.0
  0
VERTEX
  5
24B
  8
FAB$CUT
 10
759.9905764905352
 20
285.5902673123281
 30
0.0
  0
VERTEX
  5
24C
  8
FAB$CUT
 10
759.8768215053665
 20
285.5583386407216
 30
0.0
  0
VERTEX
  5
24D
  8
FAB$CUT
 10
759.7630666100617
 20
285.5296804124607
 30
0.0
  0
VERTEX
  5
24E
  8
FAB$CUT
 10
759.649311793388
 20
285.5044223627235
 30
0.0
  0
VERTEX
  5
24F
  8
FAB$CUT
 10
759.5355570441125
 20
285.4826942266881
 30
0.0
  0
VERTEX
  5
250
  8
FAB$CUT
 10
759.4218023510019
 20
285.4646257395324
 30
0.0
  0
VERTEX
  5
251
  8
FAB$CUT
 10
759.3080477028235
 20
285.4503466364345
 30
0.0
  0
VERTEX
  5
252
  8
FAB$CUT
 10
759.194293088344
 20
285.4399866525725
 30
0.0
  0
VERTEX
  5
253
  8
FAB$CUT
 10
759.1374157902312
 20
285.4363168725981
 30
0.0
  0
VERTEX
  5
254
  8
FAB$CUT
 10
759.0805384963307
 20
285.4336755231244
 30
0.0
  0
VERTEX
  5
255
  8
FAB$CUT
 10
759.0236612052385
 20
285.4320788210487
 30
0.0
  0
VERTEX
  5
256
  8
FAB$CUT
 10
758.9667839155504
 20
285.4315429832682
 30
0.0
  0
VERTEX
  5
257
  8
FAB$CUT
 10
758.9099066258624
 20
285.4320788210478
 30
0.0
  0
VERTEX
  5
258
  8
FAB$CUT
 10
758.8530293347701
 20
285.4336755231226
 30
0.0
  0
VERTEX
  5
259
  8
FAB$CUT
 10
758.7961520408696
 20
285.4363168725955
 30
0.0
  0
VERTEX
  5
25A
  8
FAB$CUT
 10
758.739274742757
 20
285.439986652569
 30
0.0
  0
VERTEX
  5
25B
  8
FAB$CUT
 10
758.6255201282778
 20
285.4503466364293
 30
0.0
  0
VERTEX
  5
25C
  8
FAB$CUT
 10
758.5117654800996
 20
285.4646257395254
 30
0.0
  0
VERTEX
  5
25D
  8
FAB$CUT
 10
758.3980107869895
 20
285.4826942266794
 30
0.0
  0
VERTEX
  5
25E
  8
FAB$CUT
 10
758.2842560377144
 20
285.5044223627131
 30
0.0
  0
VERTEX
  5
25F
  8
FAB$CUT
 10
758.1705012210414
 20
285.5296804124484
 30
0.0
  0
VERTEX
  5
260
  8
FAB$CUT
 10
758.0567463257372
 20
285.5583386407076
 30
0.0
  0
VERTEX
  5
261
  8
FAB$CUT
 10
757.942991340569
 20
285.5902673123124
 30
0.0
  0
VERTEX
  5
262
  8
FAB$CUT
 10
757.8292362543041
 20
285.6253366920848
 30
0.0
  0
VERTEX
  5
263
  8
FAB$CUT
 10
757.715481055709
 20
285.6634170448468
 30
0.0
  0
VERTEX
  5
264
  8
FAB$CUT
 10
757.6017257335509
 20
285.7043786354204
 30
0.0
  0
VERTEX
  5
265
  8
FAB$CUT
 10
757.4879702765968
 20
285.7480917286275
 30
0.0
  0
VERTEX
  5
266
  8
FAB$CUT
 10
757.3742146736137
 20
285.7944265892901
 30
0.0
  0
VERTEX
  5
267
  8
FAB$CUT
 10
757.1467029846282
 20
285.8944426722693
 30
0.0
  0
VERTEX
  5
268
  8
FAB$CUT
 10
756.9191905767306
 20
286.003389002934
 30
0.0
  0
VERTEX
  5
269
  8
FAB$CUT
 10
756.6916773600567
 20
286.1202276998598
 30
0.0
  0
VERTEX
  5
26A
  8
FAB$CUT
 10
756.4641632447427
 20
286.2439208816224
 30
0.0
  0
VERTEX
  5
26B
  8
FAB$CUT
 10
756.2366481409243
 20
286.3734306667974
 30
0.0
  0
VERTEX
  5
26C
  8
FAB$CUT
 10
754.4164809405364
 20
287.4943609001306
 30
0.0
  0
VERTEX
  5
26D
  8
FAB$CUT
 10
753.961422964913
 20
287.7601077928871
 30
0.0
  0
VERTEX
  5
26E
  8
FAB$CUT
 10
753.73389105652
 20
287.8851000415951
 30
0.0
  0
VERTEX
  5
26F
  8
FAB$CUT
 10
753.5063570812541
 20
288.003454316624
 30
0.0
  0
VERTEX
  5
270
  8
FAB$CUT
 10
753.2788209492514
 20
288.1141327365493
 30
0.0
  0
VERTEX
  5
271
  8
FAB$CUT
 10
753.0512825706476
 20
288.2160974199468
 30
0.0
  0
VERTEX
  5
272
  8
FAB$CUT
 10
752.9375125107879
 20
288.2634877725026
 30
0.0
  0
VERTEX
  5
273
  8
FAB$CUT
 10
752.8237418555789
 20
288.3083104853922
 30
0.0
  0
VERTEX
  5
274
  8
FAB$CUT
 10
752.7099705937876
 20
288.3504358234377
 30
0.0
  0
VERTEX
  5
275
  8
FAB$CUT
 10
752.5961987141811
 20
288.3897340514611
 30
0.0
  0
VERTEX
  5
276
  8
FAB$CUT
 10
752.4824262055264
 20
288.4260754342843
 30
0.0
  0
VERTEX
  5
277
  8
FAB$CUT
 10
752.3686530565903
 20
288.4593302367292
 30
0.0
  0
VERTEX
  5
278
  8
FAB$CUT
 10
752.2548792561399
 20
288.4893687236179
 30
0.0
  0
VERTEX
  5
279
  8
FAB$CUT
 10
752.1411047929422
 20
288.5160611597723
 30
0.0
  0
VERTEX
  5
27A
  8
FAB$CUT
 10
752.0273296557642
 20
288.5392778100144
 30
0.0
  0
VERTEX
  5
27B
  8
FAB$CUT
 10
751.913553833373
 20
288.5588889391661
 30
0.0
  0
VERTEX
  5
27C
  8
FAB$CUT
 10
751.7997773145354
 20
288.5747648120493
 30
0.0
  0
VERTEX
  5
27D
  8
FAB$CUT
 10
751.6860000880184
 20
288.5867756934861
 30
0.0
  0
VERTEX
  5
27E
  8
FAB$CUT
 10
751.5722221538222
 20
288.5948323646927
 30
0.0
  0
VERTEX
  5
27F
  8
FAB$CUT
 10
751.4584435568787
 20
288.5990076724631
 30
0.0
  0
VERTEX
  5
280
  8
FAB$CUT
 10
751.344664353353
 20
288.5994149799856
 30
0.0
  0
VERTEX
  5
281
  8
FAB$CUT
 10
751.2308845994098
 20
288.5961676504483
 30
0.0
  0
VERTEX
  5
282
  8
FAB$CUT
 10
751.1171043512146
 20
288.5893790470394
 30
0.0
  0
VERTEX
  5
283
  8
FAB$CUT
 10
751.003323664932
 20
288.5791625329474
 30
0.0
  0
VERTEX
  5
284
  8
FAB$CUT
 10
750.8895425967274
 20
288.5656314713603
 30
0.0
  0
VERTEX
  5
285
  8
FAB$CUT
 10
750.7757612027656
 20
288.5488992254665
 30
0.0
  0
VERTEX
  5
286
  8
FAB$CUT
 10
750.6619795392116
 20
288.5290791584541
 30
0.0
  0
VERTEX
  5
287
  8
FAB$CUT
 10
750.5481976622305
 20
288.5062846335115
 30
0.0
  0
VERTEX
  5
288
  8
FAB$CUT
 10
750.4344156279872
 20
288.480629013827
 30
0.0
  0
VERTEX
  5
289
  8
FAB$CUT
 10
750.320633492647
 20
288.4522256625887
 30
0.0
  0
VERTEX
  5
28A
  8
FAB$CUT
 10
750.2068513123747
 20
288.4211879429848
 30
0.0
  0
VERTEX
  5
28B
  8
FAB$CUT
 10
750.0930691433355
 20
288.3876292182038
 30
0.0
  0
VERTEX
  5
28C
  8
FAB$CUT
 10
749.9792870416941
 20
288.3516628514337
 30
0.0
  0
VERTEX
  5
28D
  8
FAB$CUT
 10
749.8655050636157
 20
288.3134022058628
 30
0.0
  0
VERTEX
  5
28E
  8
FAB$CUT
 10
749.6379417028081
 20
288.2304515310718
 30
0.0
  0
VERTEX
  5
28F
  8
FAB$CUT
 10
749.410379510233
 20
288.1396840993368
 30
0.0
  0
VERTEX
  5
290
  8
FAB$CUT
 10
749.1828189352105
 20
288.0420068161638
 30
0.0
  0
VERTEX
  5
291
  8
FAB$CUT
 10
748.9552604270607
 20
287.9383265870588
 30
0.0
  0
VERTEX
  5
292
  8
FAB$CUT
 10
748.50015140866
 20
287.7165849130765
 30
0.0
  0
VERTEX
  5
293
  8
FAB$CUT
 10
746.679887874003
 20
286.7708814810651
 30
0.0
  0
VERTEX
  5
294
  8
FAB$CUT
 10
746.4523817565854
 20
286.6610246101034
 30
0.0
  0
VERTEX
  5
295
  8
FAB$CUT
 10
746.2248830978828
 20
286.5560476592815
 30
0.0
  0
VERTEX
  5
296
  8
FAB$CUT
 10
745.9973923472153
 20
286.4568575341056
 30
0.0
  0
VERTEX
  5
297
  8
FAB$CUT
 10
745.7699099539029
 20
286.3643611400815
 30
0.0
  0
VERTEX
  5
298
  8
FAB$CUT
 10
745.5424363672661
 20
286.2794653827153
 30
0.0
  0
VERTEX
  5
299
  8
FAB$CUT
 10
745.4287030168636
 20
286.2401511507496
 30
0.0
  0
VERTEX
  5
29A
  8
FAB$CUT
 10
745.314972036625
 20
286.203077167513
 30
0.0
  0
VERTEX
  5
29B
  8
FAB$CUT
 10
745.2012434827154
 20
286.168356796194
 30
0.0
  0
VERTEX
  5
29C
  8
FAB$CUT
 10
745.0875174112998
 20
286.1361033999806
 30
0.0
  0
VERTEX
  5
29D
  8
FAB$CUT
 10
744.9737938785431
 20
286.1064303420612
 30
0.0
  0
VERTEX
  5
29E
  8
FAB$CUT
 10
744.8600729406107
 20
286.0794509856241
 30
0.0
  0
VERTEX
  5
29F
  8
FAB$CUT
 10
744.7463546536671
 20
286.0552786938574
 30
0.0
  0
VERTEX
  5
2A0
  8
FAB$CUT
 10
744.6326390738777
 20
286.0340268299495
 30
0.0
  0
VERTEX
  5
2A1
  8
FAB$CUT
 10
744.5189262574073
 20
286.0158087570885
 30
0.0
  0
VERTEX
  5
2A2
  8
FAB$CUT
 10
744.4052162604212
 20
286.0007378384628
 30
0.0
  0
VERTEX
  5
2A3
  8
FAB$CUT
 10
744.2915090941522
 20
285.9888940502727
 30
0.0
  0
VERTEX
  5
2A4
  8
FAB$CUT
 10
744.1778045901051
 20
285.980223820768
 30
0.0
  0
VERTEX
  5
2A5
  8
FAB$CUT
 10
744.0641025348531
 20
285.9746401912105
 30
0.0
  0
VERTEX
  5
2A6
  8
FAB$CUT
 10
743.950402714969
 20
285.972056202862
 30
0.0
  0
VERTEX
  5
2A7
  8
FAB$CUT
 10
743.8367049170256
 20
285.9723848969845
 30
0.0
  0
VERTEX
  5
2A8
  8
FAB$CUT
 10
743.7230089275961
 20
285.9755393148397
 30
0.0
  0
VERTEX
  5
2A9
  8
FAB$CUT
 10
743.6093145332532
 20
285.9814324976895
 30
0.0
  0
VERTEX
  5
2AA
  8
FAB$CUT
 10
743.4956215205698
 20
285.9899774867959
 30
0.0
  0
VERTEX
  5
2AB
  8
FAB$CUT
 10
743.381929676119
 20
286.0010873234205
 30
0.0
  0
VERTEX
  5
2AC
  8
FAB$CUT
 10
743.2682387864734
 20
286.0146750488254
 30
0.0
  0
VERTEX
  5
2AD
  8
FAB$CUT
 10
743.1545486382062
 20
286.0306537042724
 30
0.0
  0
VERTEX
  5
2AE
  8
FAB$CUT
 10
743.0408590178902
 20
286.0489363310232
 30
0.0
  0
VERTEX
  5
2AF
  8
FAB$CUT
 10
742.9271697120985
 20
286.0694359703399
 30
0.0
  0
VERTEX
  5
2B0
  8
FAB$CUT
 10
742.8134805074037
 20
286.0920656634842
 30
0.0
  0
VERTEX
  5
2B1
  8
FAB$CUT
 10
742.5861015475971
 20
286.1433673763032
 30
0.0
  0
VERTEX
  5
2B2
  8
FAB$CUT
 10
742.3587204310537
 20
286.2021457995752
 30
0.0
  0
VERTEX
  5
2B3
  8
FAB$CUT
 10
742.131335450357
 20
286.267705263395
 30
0.0
  0
VERTEX
  5
2B4
  8
FAB$CUT
 10
741.9039448980901
 20
286.3393500978574
 30
0.0
  0
VERTEX
  5
2B5
  8
FAB$CUT
 10
741.6765470668365
 20
286.4163846330575
 30
0.0
  0
VERTEX
  5
2B6
  8
FAB$CUT
 10
741.2217227377023
 20
286.5838401260498
 30
0.0
  0
VERTEX
  5
2B7
  8
FAB$CUT
 10
738.9465838311588
 20
287.5079718675263
 30
0.0
  0
VERTEX
  5
2B8
  8
FAB$CUT
 10
738.4912569823421
 20
287.6712115564379
 30
0.0
  0
VERTEX
  5
2B9
  8
FAB$CUT
 10
738.2635450762868
 20
287.7456112140874
 30
0.0
  0
VERTEX
  5
2BA
  8
FAB$CUT
 10
738.0357985725784
 20
287.8142698539927
 30
0.0
  0
VERTEX
  5
2BB
  8
FAB$CUT
 10
737.8080157637997
 20
287.8764918062486
 30
0.0
  0
VERTEX
  5
2BC
  8
FAB$CUT
 10
737.5801949425343
 20
287.9315814009499
 30
0.0
  0
VERTEX
  5
2BD
  8
FAB$CUT
 10
737.3523344013653
 20
287.9788429681915
 30
0.0
  0
VERTEX
  5
2BE
  8
FAB$CUT
 10
737.2383887022494
 20
287.9993208446696
 30
0.0
  0
VERTEX
  5
2BF
  8
FAB$CUT
 10
737.1244324328762
 20
288.0175808380684
 30
0.0
  0
VERTEX
  5
2C0
  8
FAB$CUT
 10
737.0104655483142
 20
288.0335587868182
 30
0.0
  0
VERTEX
  5
2C1
  8
FAB$CUT
 10
736.8964886776109
 20
288.0472817180234
 30
0.0
  0
VERTEX
  5
2C2
  8
FAB$CUT
 10
736.7825026183102
 20
288.0587994559569
 30
0.0
  0
VERTEX
  5
2C3
  8
FAB$CUT
 10
736.6685081679553
 20
288.0681618248916
 30
0.0
  0
VERTEX
  5
2C4
  8
FAB$CUT
 10
736.5545061240894
 20
288.0754186491004
 30
0.0
  0
VERTEX
  5
2C5
  8
FAB$CUT
 10
736.4404972842558
 20
288.0806197528561
 30
0.0
  0
VERTEX
  5
2C6
  8
FAB$CUT
 10
736.212462406859
 20
288.0850540961
 30
0.0
  0
VERTEX
  5
2C7
  8
FAB$CUT
 10
735.9844099161112
 20
288.0818634488062
 30
0.0
  0
VERTEX
  5
2C8
  8
FAB$CUT
 10
735.756346192359
 20
288.071446405158
 30
0.0
  0
VERTEX
  5
2C9
  8
FAB$CUT
 10
735.5282776159489
 20
288.0542015593384
 30
0.0
  0
VERTEX
  5
2CA
  8
FAB$CUT
 10
735.3002105672273
 20
288.0305275055305
 30
0.0
  0
VERTEX
  5
2CB
  8
FAB$CUT
 10
735.0721514265406
 20
288.0008228379173
 30
0.0
  0
VERTEX
  5
2CC
  8
FAB$CUT
 10
734.8441065742354
 20
287.965486150682
 30
0.0
  0
VERTEX
  5
2CD
  8
FAB$CUT
 10
734.6160823906582
 20
287.9249160380076
 30
0.0
  0
VERTEX
  5
2CE
  8
FAB$CUT
 10
734.3880852561554
 20
287.8795110940772
 30
0.0
  0
VERTEX
  5
2CF
  8
FAB$CUT
 10
733.9321976557587
 20
287.7757910891808
 30
0.0
  0
VERTEX
  5
2D0
  8
FAB$CUT
 10
733.4764948158174
 20
287.6575148894574
 30
0.0
  0
VERTEX
  5
2D1
  8
FAB$CUT
 10
732.5658475883879
 20
287.3900489193883
 30
0.0
  0
VERTEX
  5
2D2
  8
FAB$CUT
 10
730.749016140951
 20
286.820747793771
 30
0.0
  0
VERTEX
  5
2D3
  8
FAB$CUT
 10
730.2960358218068
 20
286.6898633272691
 30
0.0
  0
VERTEX
  5
2D4
  8
FAB$CUT
 10
729.843648605292
 20
286.5699326936573
 30
0.0
  0
VERTEX
  5
2D5
  8
FAB$CUT
 10
729.5409499645
 20
286.4972219827208
 30
0.0
  0
VERTEX
  5
2D6
  8
FAB$CUT
 10
729.2385552525999
 20
286.431318713456
 30
0.0
  0
VERTEX
  5
2D7
  8
FAB$CUT
 10
728.9364793250302
 20
286.3726835519993
 30
0.0
  0
VERTEX
  5
2D8
  8
FAB$CUT
 10
728.6347370372298
 20
286.3217771644873
 30
0.0
  0
VERTEX
  5
2D9
  8
FAB$CUT
 10
728.3333432446371
 20
286.2790602170564
 30
0.0
  0
VERTEX
  5
2DA
  8
FAB$CUT
 10
728.0323128026909
 20
286.244993375843
 30
0.0
  0
VERTEX
  5
2DB
  8
FAB$CUT
 10
727.7316605668298
 20
286.2200373069838
 30
0.0
  0
VERTEX
  5
2DC
  8
FAB$CUT
 10
727.4314013924925
 20
286.2046526766151
 30
0.0
  0
VERTEX
  5
2DD
  8
FAB$CUT
 10
727.1315501351175
 20
286.1993001508734
 30
0.0
  0
VERTEX
  5
2DE
  8
FAB$CUT
 10
726.9817821176157
 20
286.2005298854053
 30
0.0
  0
VERTEX
  5
2DF
  8
FAB$CUT
 10
726.8321216501439
 20
286.2044403958952
 30
0.0
  0
VERTEX
  5
2E0
  8
FAB$CUT
 10
726.6825705896322
 20
286.2110892656101
 30
0.0
  0
VERTEX
  5
2E1
  8
FAB$CUT
 10
726.5331307930101
 20
286.220534077817
 30
0.0
  0
VERTEX
  5
2E2
  8
FAB$CUT
 10
726.3838041172075
 20
286.232832415783
 30
0.0
  0
VERTEX
  5
2E3
  8
FAB$CUT
 10
726.2345924191545
 20
286.2480418627753
 30
0.0
  0
VERTEX
  5
2E4
  8
FAB$CUT
 10
726.0854975557808
 20
286.2662200020608
 30
0.0
  0
VERTEX
  5
2E5
  8
FAB$CUT
 10
725.936521384016
 20
286.2874244169064
 30
0.0
  0
VERTEX
  5
2E6
  8
FAB$CUT
 10
725.7876657607903
 20
286.3117126905796
 30
0.0
  0
VERTEX
  5
2E7
  8
FAB$CUT
 10
725.6389325430334
 20
286.3391424063471
 30
0.0
  0
VERTEX
  5
2E8
  8
FAB$CUT
 10
725.4903235876751
 20
286.3697711474761
 30
0.0
  0
VERTEX
  5
2E9
  8
FAB$CUT
 10
725.3418407516452
 20
286.4036564972336
 30
0.0
  0
VERTEX
  5
2EA
  8
FAB$CUT
 10
725.1934858918735
 20
286.4408560388867
 30
0.0
  0
VERTEX
  5
2EB
  8
FAB$CUT
 10
725.0452608652898
 20
286.4814273557024
 30
0.0
 42
0.4107848970051962
  0
SEQEND
  5
2EC
  8
FAB$CUT
  0
CIRCLE
  5
2ED
  8
FAB$CUT
 10
705.119661673346
 20
150.6426280036246
 30
0.0
 40
6.350000000000023
  0
CIRCLE
  5
2EE
  8
FAB$CUT
 10
747.2293326961385
 20
150.6426280036247
 30
0.0
 40
6.349999999999909
  0
POLYLINE
  5
2EF
  8
FAB$CUT
 66
     1
 10
0.0
 20
0.0
 30
0.0
 70
     1
  0
VERTEX
  5
2F0
  8
FAB$CUT
 10
754.2736848958614
 20
177.0198365712564
 30
0.0
  0
VERTEX
  5
2F1
  8
FAB$CUT
 10
754.2736848958614
 20
183.3698365712564
 30
0.0
  0
VERTEX
  5
2F2
  8
FAB$CUT
 10
751.0986848958614
 20
183.3698365712564
 30
0.0
  0
VERTEX
  5
2F3
  8
FAB$CUT
 10
751.0986848958614
 20
177.0198365712564
 30
0.0
  0
SEQEND
  5
2F4
  8
FAB$CUT
  0
POLYLINE
  5
2F5
  8
FAB$CUT
 66
     1
 10
0.0
 20
0.0
 30
0.0
 70
     1
  0
VERTEX
  5
2F6
  8
FAB$CUT
 10
783.7376848958614
 20
177.0198365712564
 30
0.0
  0
VERTEX
  5
2F7
  8
FAB$CUT
 10
783.7376848958614
 20
183.3698365712564
 30
0.0
  0
VERTEX
  5
2F8
  8
FAB$CUT
 10
786.9126848958614
 20
183.3698365712564
 30
0.0
  0
VERTEX
  5
2F9
  8
FAB$CUT
 10
786.9126848958614
 20
177.0198365712564
 30
0.0
  0
SEQEND
  5
2FA
  8
FAB$CUT
  0
POLYLINE
  5
2FB
  8
FAB$CUT
 66
     1
 10
0.0
 20
0.0
 30
0.0
 70
     1
  0
VERTEX
  5
2FC
  8
FAB$CUT
 10
809.1655033771218
 20
203.882608252158
 30
0.0
  0
VERTEX
  5
2FD
  8
FAB$CUT
 10
815.5155033771217
 20
203.882608252158
 30
0.0
  0
VERTEX
  5
2FE
  8
FAB$CUT
 10
815.5155033771217
 20
207.057608252158
 30
0.0
  0
VERTEX
  5
2FF
  8
FAB$CUT
 10
809.1655033771218
 20
207.057608252158
 30
0.0
  0
SEQEND
  5
300
  8
FAB$CUT
  0
POLYLINE
  5
301
  8
FAB$CUT
 66
     1
 10
0.0
 20
0.0
 30
0.0
 70
     1
  0
VERTEX
  5
302
  8
FAB$CUT
 10
809.1655033771218
 20
159.5360439080736
 30
0.0
  0
VERTEX
  5
303
  8
FAB$CUT
 10
815.5155033771217
 20
159.5360439080736
 30
0.0
  0
VERTEX
  5
304
  8
FAB$CUT
 10
815.5155033771217
 20
156.3610439080736
 30
0.0
  0
VERTEX
  5
305
  8
FAB$CUT
 10
809.1655033771218
 20
156.3610439080736
 30
0.0
  0
SEQEND
  5
306
  8
FAB$CUT
  0
POLYLINE
  5
307
  8
FAB$ENGRAVE
 66
     1
 10
0.0
 20
0.0
 30
0.0
 70
     1
  0
VERTEX
  5
308
  8
FAB$ENGRAVE
 10
789.8087100990256
 20
164.3103260801158
 30
0.0
  0
VERTEX
  5
309
  8
FAB$ENGRAVE
 10
833.7507100990256
 20
164.3103260801158
 30
0.0
  0
VERTEX
  5
30A
  8
FAB$ENGRAVE
 10
833.7507100990256
 20
199.1083260801158
 30
0.0
  0
VERTEX
  5
30B
  8
FAB$ENGRAVE
 10
789.8087100990256
 20
199.1083260801158
 30
0.0
  0
SEQEND
  5
30C
  8
FAB$ENGRAVE
  0
POLYLINE
  5
30D
  8
FAB$CUT
 66
     1
 10
0.0
 20
0.0
 30
0.0
 70
     1
  0
VERTEX
  5
30E
  8
FAB$CUT
 10
714.2537799872069
 20
191.0833156155728
 30
0.0
  0
VERTEX
  5
30F
  8
FAB$CUT
 10
714.2537799872069
 20
197.4333156155728
 30
0.0
  0
VERTEX
  5
310
  8
FAB$CUT
 10
717.4287799872069
 20
197.4333156155728
 30
0.0
  0
VERTEX
  5
311
  8
FAB$CUT
 10
717.4287799872069
 20
191.0833156155728
 30
0.0
  0
SEQEND
  5
312
  8
FAB$CUT
  0
POLYLINE
  5
313
  8
FAB$CUT
 66
     1
 10
0.0
 20
0.0
 30
0.0
 70
     1
  0
VERTEX
  5
314
  8
FAB$CUT
 10
685.805779987207
 20
191.0833156155728
 30
0.0
  0
VERTEX
  5
315
  8
FAB$CUT
 10
685.805779987207
 20
197.4333156155728
 30
0.0
  0
VERTEX
  5
316
  8
FAB$CUT
 10
682.630779987207
 20
197.4333156155728
 30
0.0
  0
VERTEX
  5
317
  8
FAB$CUT
 10
682.630779987207
 20
191.0833156155728
 30
0.0
  0
SEQEND
  5
318
  8
FAB$CUT
  0
CIRCLE
  5
319
  8
FAB$CUT
 10
700.0297799872069
 20
240.7208691106923
 30
0.0
 40
6.350000000000023
  0
POLYLINE
  5
31A
  8
FAB$ENGRAVE
 66
     1
 10
0.0
 20
0.0
 30
0.0
 70
     1
  0
VERTEX
  5
31B
  8
FAB$ENGRAVE
 10
711.078779987207
 20
158.6983156155728
 30
0.0
  0
VERTEX
  5
31C
  8
FAB$ENGRAVE
 10
711.078779987207
 20
229.8183156155728
 30
0.0
  0
VERTEX
  5
31D
  8
FAB$ENGRAVE
 10
688.9807799872069
 20
229.8183156155728
 30
0.0
  0
VERTEX
  5
31E
  8
FAB$ENGRAVE
 10
688.9807799872069
 20
158.6983156155728
 30
0.0
  0
SEQEND
  5
31F
  8
FAB$ENGRAVE
  0
POLYLINE
  5
320
  8
FAB$CUT
 66
     1
 10
0.0
 20
0.0
 30
0.0
  0
VERTEX
  5
321
  8
FAB$CUT
 10
758.9667839155893
 20
2.954629826637341
 30
0.0
  0
VERTEX
  5
322
  8
FAB$CUT
 10
729.016295776083
 20
2.606924564870006
 30
0.0
  0
VERTEX
  5
323
  8
FAB$CUT
 10
714.0884903700187
 20
2.08328734303318
 30
0.0
  0
VERTEX
  5
324
  8
FAB$CUT
 10
683.461313047864
 20
0.2121235110593124
 30
0.0
  0
VERTEX
  5
325
  8
FAB$CUT
 10
679.6839198391059
 20
0.0630451869251922
 30
0.0
  0
VERTEX
  5
326
  8
FAB$CUT
 10
675.9805798658499
 20
0.0006150967041241
 30
0.0
  0
VERTEX
  5
327
  8
FAB$CUT
 10
672.3722884141059
 20
0.0472723215617709
 30
0.0
  0
VERTEX
  5
328
  8
FAB$CUT
 10
670.6103469106789
 20
0.118520890009382
 30
0.0
  0
VERTEX
  5
329
  8
FAB$CUT
 10
668.8800407698836
 20
0.2254559426637953
 30
0.0
  0
VERTEX
  5
32A
  8
FAB$CUT
 10
667.1839944024712
 20
0.3708823646707188
 30
0.0
  0
VERTEX
  5
32B
  8
FAB$CUT
 10
665.5248322191931
 20
0.5576050411758601
 30
0.0
  0
VERTEX
  5
32C
  8
FAB$CUT
 10
663.9051786308002
 20
0.7884288573249272
 30
0.0
  0
VERTEX
  5
32D
  8
FAB$CUT
 10
662.3276580480438
 20
1.066158698263628
 30
0.0
  0
VERTEX
  5
32E
  8
FAB$CUT
 10
661.5555177621391
 20
1.223489904637125
 30
0.0
  0
VERTEX
  5
32F
  8
FAB$CUT
 10
660.7948948816752
 20
1.39359944913767
 30
0.0
  0
VERTEX
  5
330
  8
FAB$CUT
 10
660.0461174579962
 20
1.576837942408478
 30
0.0
  0
VERTEX
  5
331
  8
FAB$CUT
 10
659.3095135424458
 20
1.773555995092762
 30
0.0
  0
VERTEX
  5
332
  8
FAB$CUT
 10
658.585411186368
 20
1.984104217833735
 30
0.0
  0
VERTEX
  5
333
  8
FAB$CUT
 10
657.8741384411064
 20
2.20883322127461
 30
0.0
  0
VERTEX
  5
334
  8
FAB$CUT
 10
657.1760233580055
 20
2.448093616058602
 30
0.0
  0
VERTEX
  5
335
  8
FAB$CUT
 10
656.4913939884087
 20
2.702236012828923
 30
0.0
  0
VERTEX
  5
336
  8
FAB$CUT
 10
655.8205783836602
 20
2.971611022228788
 30
0.0
  0
VERTEX
  5
337
  8
FAB$CUT
 10
655.1639045951036
 20
3.256569254901409
 30
0.0
  0
VERTEX
  5
338
  8
FAB$CUT
 10
654.5217006740831
 20
3.557461321490001
 30
0.0
  0
VERTEX
  5
339
  8
FAB$CUT
 10
653.8942946719426
 20
3.874637832637776
 30
0.0
  0
VERTEX
  5
33A
  8
FAB$CUT
 10
653.2820146400259
 20
4.208449398987949
 30
0.0
  0
VERTEX
  5
33B
  8
FAB$CUT
 10
652.6851886296768
 20
4.559246631183733
 30
0.0
  0
VERTEX
  5
33C
  8
FAB$CUT
 10
652.1041446922392
 20
4.92738013986834
 30
0.0
  0
VERTEX
  5
33D
  8
FAB$CUT
 10
651.8196435169073
 20
5.118057563719956
 30
0.0
  0
VERTEX
  5
33E
  8
FAB$CUT
 10
651.5392108790572
 20
5.313200535684984
 30
0.0
  0
VERTEX
  5
33F
  8
FAB$CUT
 10
651.2628877851071
 20
5.512852882093823
 30
0.0
  0
VERTEX
  5
340
  8
FAB$CUT
 10
650.9907152414746
 20
5.717058429276879
 30
0.0
  0
VERTEX
  5
341
  8
FAB$CUT
 10
650.7227342545781
 20
5.925861003564551
 30
0.0
  0
VERTEX
  5
342
  8
FAB$CUT
 10
650.4589858308354
 20
6.139304431287239
 30
0.0
  0
VERTEX
  5
343
  8
FAB$CUT
 10
650.1995109766646
 20
6.357432538775347
 30
0.0
  0
VERTEX
  5
344
  8
FAB$CUT
 10
649.9443506984833
 20
6.580289152359278
 30
0.0
  0
VERTEX
  5
345
  8
FAB$CUT
 10
649.69354600271
 20
6.807918098369431
 30
0.0
  0
VERTEX
  5
346
  8
FAB$CUT
 10
649.4471378957624
 20
7.040363203136207
 30
0.0
  0
VERTEX
  5
347
  8
FAB$CUT
 10
649.2051673840587
 20
7.277668292990009
 30
0.0
  0
VERTEX
  5
348
  8
FAB$CUT
 10
648.9676754740165
 20
7.519877194261241
 30
0.0
  0
VERTEX
  5
349
  8
FAB$CUT
 10
648.7347031720542
 20
7.767033733280303
 30
0.0
  0
VERTEX
  5
34A
  8
FAB$CUT
 10
648.5062914845896
 20
8.019181736377595
 30
0.0
  0
VERTEX
  5
34B
  8
FAB$CUT
 10
648.2824814180407
 20
8.27636502988352
 30
0.0
  0
VERTEX
  5
34C
  8
FAB$CUT
 10
648.0633139788254
 20
8.53862744012848
 30
0.0
  0
VERTEX
  5
34D
  8
FAB$CUT
 10
647.8488301733619
 20
8.806012793442875
 30
0.0
  0
VERTEX
  5
34E
  8
FAB$CUT
 10
647.639071008068
 20
9.07856491615711
 30
0.0
  0
VERTEX
  5
34F
  8
FAB$CUT
 10
647.4340621909132
 20
9.356311723151475
 30
0.0
  0
VERTEX
  5
350
  8
FAB$CUT
 10
647.233768236073
 20
9.63921748350583
 30
0.0
  0
VERTEX
  5
351
  8
FAB$CUT
 10
647.0381383592746
 20
9.927230554849924
 30
0.0
  0
VERTEX
  5
352
  8
FAB$CUT
 10
646.8471217762446
 20
10.22029929481351
 30
0.0
  0
VERTEX
  5
353
  8
FAB$CUT
 10
646.6606677027103
 20
10.51837206102633
 30
0.0
  0
VERTEX
  5
354
  8
FAB$CUT
 10
646.4787253543986
 20
10.82139721111814
 30
0.0
  0
VERTEX
  5
355
  8
FAB$CUT
 10
646.3012439470363
 20
11.12932310271869
 30
0.0
  0
VERTEX
  5
356
  8
FAB$CUT
 10
646.1281726963505
 20
11.44209809345773
 30
0.0
  0
VERTEX
  5
357
  8
FAB$CUT
 10
645.7950575279162
 20
12.08198880287027
 30
0.0
  0
VERTEX
  5
358
  8
FAB$CUT
 10
645.4789735749118
 20
12.74065620039377
 30
0.0
  0
VERTEX
  5
359
  8
FAB$CUT
 10
645.1795145631527
 20
13.41768714706621
 30
0.0
  0
VERTEX
  5
35A
  8
FAB$CUT
 10
644.8962742184547
 20
14.1126685039256
 30
0.0
  0
VERTEX
  5
35B
  8
FAB$CUT
 10
644.6288462666339
 20
14.82518713200995
 30
0.0
  0
VERTEX
  5
35C
  8
FAB$CUT
 10
644.3768244335058
 20
15.55482989235724
 30
0.0
  0
VERTEX
  5
35D
  8
FAB$CUT
 10
644.1398024448865
 20
16.30118364600547
 30
0.0
  0
VERTEX
  5
35E
  8
FAB$CUT
 10
643.9173740265917
 20
17.06383525399264
 30
0.0
  0
VERTEX
  5
35F
  8
FAB$CUT
 10
643.709132904437
 20
17.84237157735676
 30
0.0
  0
VERTEX
  5
360
  8
FAB$CUT
 10
643.5146728042384
 20
18.63637947713582
 30
0.0
  0
VERTEX
  5
361
  8
FAB$CUT
 10
643.3335874518118
 20
19.44544581436782
 30
0.0
  0
VERTEX
  5
362
  8
FAB$CUT
 10
643.1654705729727
 20
20.26915745009076
 30
0.0
  0
VERTEX
  5
363
  8
FAB$CUT
 10
642.8665171393208
 20
21.95886406116144
 30
0.0
  0
VERTEX
  5
364
  8
FAB$CUT
 10
642.6145623098091
 20
23.70219419865186
 30
0.0
  0
VERTEX
  5
365
  8
FAB$CUT
 10
642.4063558909643
 20
25.495842750866
 30
0.0
  0
VERTEX
  5
366
  8
FAB$CUT
 10
642.2386476893124
 20
27.33650460610787
 30
0.0
  0
VERTEX
  5
367
  8
FAB$CUT
 10
642.10818751138
 20
29.22087465268142
 30
0.0
  0
VERTEX
  5
368
  8
FAB$CUT
 10
642.0117251636939
 20
31.14564777889068
 30
0.0
  0
VERTEX
  5
369
  8
FAB$CUT
 10
641.9077931851647
 20
35.10318282343222
 30
0.0
  0
VERTEX
  5
36A
  8
FAB$CUT
 10
641.9648946782199
 20
43.35766495351912
 30
0.0
  0
VERTEX
  5
36B
  8
FAB$CUT
 10
642.439874639716
 20
64.73986548474784
 30
0.0
  0
VERTEX
  5
36C
  8
FAB$CUT
 10
642.38381131751
 20
68.93266333490797
 30
0.0
  0
VERTEX
  5
36D
  8
FAB$CUT
 10
642.2208837298119
 20
73.04083419035803
 30
0.0
  0
VERTEX
  5
36E
  8
FAB$CUT
 10
641.9458859164167
 20
77.06268303574984
 30
0.0
  0
VERTEX
  5
36F
  8
FAB$CUT
 10
641.5577710346354
 20
81.00146403137923
 30
0.0
  0
VERTEX
  5
370
  8
FAB$CUT
 10
641.0554922417795
 20
84.86043133754205
 30
0.0
  0
VERTEX
  5
371
  8
FAB$CUT
 10
640.4380026951602
 20
88.6428391145341
 30
0.0
  0
VERTEX
  5
372
  8
FAB$CUT
 10
639.7042555520892
 20
92.35194152265122
 30
0.0
  0
VERTEX
  5
373
  8
FAB$CUT
 10
638.8532039698775
 20
95.99099272218923
 30
0.0
  0
VERTEX
  5
374
  8
FAB$CUT
 10
638.3833618757537
 20
97.78526604383353
 30
0.0
  0
VERTEX
  5
375
  8
FAB$CUT
 10
637.8838011058365
 20
99.56324687344399
 30
0.0
  0
VERTEX
  5
376
  8
FAB$CUT
 10
637.3543908047898
 20
101.3253419810576
 30
0.0
  0
VERTEX
  5
377
  8
FAB$CUT
 10
636.7950001172776
 20
103.0719581367113
 30
0.0
  0
VERTEX
  5
378
  8
FAB$CUT
 10
636.2054981879638
 20
104.8035021104421
 30
0.0
  0
VERTEX
  5
379
  8
FAB$CUT
 10
635.5857541615123
 20
106.520380672287
 30
0.0
  0
VERTEX
  5
37A
  8
FAB$CUT
 10
634.935637182587
 20
108.2230005922829
 30
0.0
  0
VERTEX
  5
37B
  8
FAB$CUT
 10
634.2550163958518
 20
109.9117686404668
 30
0.0
  0
VERTEX
  5
37C
  8
FAB$CUT
 10
633.5437609459707
 20
111.5870915868758
 30
0.0
  0
VERTEX
  5
37D
  8
FAB$CUT
 10
632.8017399776074
 20
113.2493762015468
 30
0.0
  0
VERTEX
  5
37E
  8
FAB$CUT
 10
632.0288226354261
 20
114.8990292545167
 30
0.0
  0
VERTEX
  5
37F
  8
FAB$CUT
 10
631.2248780640905
 20
116.5364575158225
 30
0.0
  0
VERTEX
  5
380
  8
FAB$CUT
 10
630.3897754082648
 20
118.1620677555013
 30
0.0
  0
VERTEX
  5
381
  8
FAB$CUT
 10
629.5233838126126
 20
119.77626674359
 30
0.0
  0
VERTEX
  5
382
  8
FAB$CUT
 10
628.6255724217979
 20
121.3794612501256
 30
0.0
  0
VERTEX
  5
383
  8
FAB$CUT
 10
627.6962103804846
 20
122.972058045145
 30
0.0
  0
VERTEX
  5
384
  8
FAB$CUT
 10
625.7423109250182
 20
126.1270855807834
 30
0.0
  0
VERTEX
  5
385
  8
FAB$CUT
 10
623.6648838584578
 20
129.2452433152036
 30
0.0
  0
VERTEX
  5
386
  8
FAB$CUT
 10
621.4841086127802
 20
132.3329844307153
 30
0.0
  0
VERTEX
  5
387
  8
FAB$CUT
 10
607.5969278442178
 20
150.6178893825908
 30
0.0
  0
VERTEX
  5
388
  8
FAB$CUT
 10
605.3766065782015
 20
153.6913177936853
 30
0.0
  0
VERTEX
  5
389
  8
FAB$CUT
 10
603.2483346283483
 20
156.7910734795691
 30
0.0
  0
VERTEX
  5
38A
  8
FAB$CUT
 10
601.2365366815682
 20
159.9242494269545
 30
0.0
  0
VERTEX
  5
38B
  8
FAB$CUT
 10
600.28194817399
 20
161.5055865570579
 30
0.0
  0
VERTEX
  5
38C
  8
FAB$CUT
 10
599.3656374247714
 20
163.0979386225538
 30
0.0
  0
VERTEX
  5
38D
  8
FAB$CUT
 10
598.490657519776
 20
164.7021922467812
 30
0.0
  0
VERTEX
  5
38E
  8
FAB$CUT
 10
597.6600615448679
 20
166.3192340530792
 30
0.0
  0
VERTEX
  5
38F
  8
FAB$CUT
 10
596.8769025859104
 20
167.9499506647867
 30
0.0
  0
VERTEX
  5
390
  8
FAB$CUT
 10
596.1442337287676
 20
169.5952287052429
 30
0.0
  0
VERTEX
  5
391
  8
FAB$CUT
 10
595.4651080593031
 20
171.2559547977867
 30
0.0
  0
VERTEX
  5
392
  8
FAB$CUT
 10
594.8425786633808
 20
172.9330155657572
 30
0.0
  0
VERTEX
  5
393
  8
FAB$CUT
 10
594.5534916573304
 20
173.7779485228209
 30
0.0
  0
VERTEX
  5
394
  8
FAB$CUT
 10
594.2796986268643
 20
174.6272976324934
 30
0.0
  0
VERTEX
  5
395
  8
FAB$CUT
 10
594.0215812077156
 20
175.4811737226921
 30
0.0
  0
VERTEX
  5
396
  8
FAB$CUT
 10
593.7795210356172
 20
176.3396876213343
 30
0.0
  0
VERTEX
  5
397
  8
FAB$CUT
 10
593.5538296844628
 20
177.2028765329783
 30
0.0
  0
VERTEX
  5
398
  8
FAB$CUT
 10
593.3445384807882
 20
178.0704831687456
 30
0.0
  0
VERTEX
  5
399
  8
FAB$CUT
 10
593.1516086892898
 20
178.9421766163984
 30
0.0
  0
VERTEX
  5
39A
  8
FAB$CUT
 10
592.9750015746638
 20
179.8176259636991
 30
0.0
  0
VERTEX
  5
39B
  8
FAB$CUT
 10
592.8146784016068
 20
180.69650029841
 30
0.0
  0
VERTEX
  5
39C
  8
FAB$CUT
 10
592.6706004348151
 20
181.5784687082933
 30
0.0
  0
VERTEX
  5
39D
  8
FAB$CUT
 10
592.5427289389852
 20
182.4632002811115
 30
0.0
  0
VERTEX
  5
39E
  8
FAB$CUT
 10
592.4310251788136
 20
183.3503641046267
 30
0.0
  0
VERTEX
  5
39F
  8
FAB$CUT
 10
592.3354504189965
 20
184.2396292666013
 30
0.0
  0
VERTEX
  5
3A0
  8
FAB$CUT
 10
592.2559659242303
 20
185.1306648547977
 30
0.0
  0
VERTEX
  5
3A1
  8
FAB$CUT
 10
592.1925329592116
 20
186.0231399569781
 30
0.0
  0
VERTEX
  5
3A2
  8
FAB$CUT
 10
592.1451127886367
 20
186.9167236609048
 30
0.0
  0
VERTEX
  5
3A3
  8
FAB$CUT
 10
592.1136666772019
 20
187.8110850543401
 30
0.0
  0
VERTEX
  5
3A4
  8
FAB$CUT
 10
592.0981558896038
 20
188.7058932250464
 30
0.0
  0
VERTEX
  5
3A5
  8
FAB$CUT
 10
592.0985416905389
 20
189.600817260786
 30
0.0
  0
VERTEX
  5
3A6
  8
FAB$CUT
 10
592.1147853447033
 20
190.4955262493211
 30
0.0
  0
VERTEX
  5
3A7
  8
FAB$CUT
 10
592.1468481167934
 20
191.389689278414
 30
0.0
  0
VERTEX
  5
3A8
  8
FAB$CUT
 10
592.1946912715059
 20
192.2829754358272
 30
0.0
  0
VERTEX
  5
3A9
  8
FAB$CUT
 10
592.2582760735372
 20
193.1750538093229
 30
0.0
  0
VERTEX
  5
3AA
  8
FAB$CUT
 10
592.3375637875833
 20
194.0655934866633
 30
0.0
  0
VERTEX
  5
3AB
  8
FAB$CUT
 10
592.4325156783409
 20
194.9542635556109
 30
0.0
  0
VERTEX
  5
3AC
  8
FAB$CUT
 10
592.5430930105065
 20
195.8407331039278
 30
0.0
  0
VERTEX
  5
3AD
  8
FAB$CUT
 10
592.6692570487763
 20
196.7246712193766
 30
0.0
  0
VERTEX
  5
3AE
  8
FAB$CUT
 10
592.8109690578467
 20
197.6057469897193
 30
0.0
  0
VERTEX
  5
3AF
  8
FAB$CUT
 10
592.9681903024143
 20
198.4836295027184
 30
0.0
  0
VERTEX
  5
3B0
  8
FAB$CUT
 10
593.1408820471752
 20
199.357987846136
 30
0.0
  0
VERTEX
  5
3B1
  8
FAB$CUT
 10
593.3290055568261
 20
200.2284911077347
 30
0.0
  0
VERTEX
  5
3B2
  8
FAB$CUT
 10
593.5325220960635
 20
201.0948083752766
 30
0.0
  0
VERTEX
  5
3B3
  8
FAB$CUT
 10
593.7513929295835
 20
201.9566087365241
 30
0.0
  0
VERTEX
  5
3B4
  8
FAB$CUT
 10
593.9855793220826
 20
202.8135612792395
 30
0.0
  0
VERTEX
  5
3B5
  8
FAB$CUT
 10
594.2350425382572
 20
203.665335091185
 30
0.0
  0
VERTEX
  5
3B6
  8
FAB$CUT
 10
594.4997438428036
 20
204.5115992601231
 30
0.0
  0
VERTEX
  5
3B7
  8
FAB$CUT
 10
594.7796445004184
 20
205.3520228738159
 30
0.0
  0
VERTEX
  5
3B8
  8
FAB$CUT
 10
595.0747057757981
 20
206.1862750200259
 30
0.0
  0
VERTEX
  5
3B9
  8
FAB$CUT
 10
595.3848889336389
 20
207.0140247865153
 30
0.0
  0
VERTEX
  5
3BA
  8
FAB$CUT
 10
595.7101552386371
 20
207.8349412610463
 30
0.0
  0
VERTEX
  5
3BB
  8
FAB$CUT
 10
596.0504659554892
 20
208.6486935313815
 30
0.0
  0
VERTEX
  5
3BC
  8
FAB$CUT
 10
596.405782348892
 20
209.4549506852829
 30
0.0
  0
VERTEX
  5
3BD
  8
FAB$CUT
 10
596.7760656835414
 20
210.2533818105131
 30
0.0
  0
VERTEX
  5
3BE
  8
FAB$CUT
 10
597.161277224134
 20
211.0436559948342
 30
0.0
  0
VERTEX
  5
3BF
  8
FAB$CUT
 10
597.5613782353662
 20
211.8254423260085
 30
0.0
  0
VERTEX
  5
3C0
  8
FAB$CUT
 10
597.9763299819344
 20
212.5984098917984
 30
0.0
  0
VERTEX
  5
3C1
  8
FAB$CUT
 10
598.4060937285351
 20
213.3622277799662
 30
0.0
  0
VERTEX
  5
3C2
  8
FAB$CUT
 10
598.8506307398645
 20
214.1165650782743
 30
0.0
  0
VERTEX
  5
3C3
  8
FAB$CUT
 10
599.3099022806191
 20
214.8610908744848
 30
0.0
  0
VERTEX
  5
3C4
  8
FAB$CUT
 10
599.7838696154954
 20
215.5954742563601
 30
0.0
  0
VERTEX
  5
3C5
  8
FAB$CUT
 10
600.2724940091896
 20
216.3193843116625
 30
0.0
  0
VERTEX
  5
3C6
  8
FAB$CUT
 10
600.7757367263982
 20
217.0324901281544
 30
0.0
  0
VERTEX
  5
3C7
  8
FAB$CUT
 10
601.2935590318177
 20
217.734460793598
 30
0.0
  0
VERTEX
  5
3C8
  8
FAB$CUT
 10
601.8259221901444
 20
218.4249653957556
 30
0.0
  0
VERTEX
  5
3C9
  8
FAB$CUT
 10
602.3727874660749
 20
219.1036730223896
 30
0.0
  0
VERTEX
  5
3CA
  8
FAB$CUT
 10
602.9341161243053
 20
219.7702527612622
 30
0.0
  0
VERTEX
  5
3CB
  8
FAB$CUT
 10
603.5098694295323
 20
220.4243737001358
 30
0.0
  0
VERTEX
  5
3CC
  8
FAB$CUT
 10
604.1000086464521
 20
221.0657049267726
 30
0.0
  0
VERTEX
  5
3CD
  8
FAB$CUT
 10
604.7044950397612
 20
221.6939155289351
 30
0.0
  0
VERTEX
  5
3CE
  8
FAB$CUT
 10
605.323289874156
 20
222.3086745943854
 30
0.0
  0
VERTEX
  5
3CF
  8
FAB$CUT
 10
605.9563544143327
 20
222.909651210886
 30
0.0
  0
VERTEX
  5
3D0
  8
FAB$CUT
 10
606.6036499249882
 20
223.496514466199
 30
0.0
  0
VERTEX
  5
3D1
  8
FAB$CUT
 10
607.2651376708185
 20
224.0689334480869
 30
0.0
  0
VERTEX
  5
3D2
  8
FAB$CUT
 10
607.94077891652
 20
224.6265772443118
 30
0.0
  0
VERTEX
  5
3D3
  8
FAB$CUT
 10
608.6305349267892
 20
225.1691149426362
 30
0.0
  0
VERTEX
  5
3D4
  8
FAB$CUT
 10
609.3343669663226
 20
225.6962156308223
 30
0.0
  0
VERTEX
  5
3D5
  8
FAB$CUT
 10
610.0522362998165
 20
226.2075483966325
 30
0.0
  0
VERTEX
  5
3D6
  8
FAB$CUT
 10
610.7841041919673
 20
226.702782327829
 30
0.0
  0
VERTEX
  5
3D7
  8
FAB$CUT
 10
611.5298659698628
 20
227.181734311325
 30
0.0
  0
VERTEX
  5
3D8
  8
FAB$CUT
 10
612.289153210155
 20
227.6448124306363
 30
0.0
  0
VERTEX
  5
3D9
  8
FAB$CUT
 10
613.0615315518871
 20
228.0925725684298
 30
0.0
  0
VERTEX
  5
3DA
  8
FAB$CUT
 10
613.8465666341028
 20
228.5255706073722
 30
0.0
  0
VERTEX
  5
3DB
  8
FAB$CUT
 10
614.6438240958453
 20
228.9443624301302
 30
0.0
  0
VERTEX
  5
3DC
  8
FAB$CUT
 10
615.4528695761582
 20
229.3495039193705
 30
0.0
  0
VERTEX
  5
3DD
  8
FAB$CUT
 10
616.2732687140846
 20
229.74155095776
 30
0.0
  0
VERTEX
  5
3DE
  8
FAB$CUT
 10
617.104587148668
 20
230.1210594279654
 30
0.0
  0
VERTEX
  5
3DF
  8
FAB$CUT
 10
618.7982444639794
 20
230.8446841944907
 30
0.0
  0
VERTEX
  5
3E0
  8
FAB$CUT
 10
620.5303666344394
 20
231.5248252802804
 30
0.0
  0
VERTEX
  5
3E1
  8
FAB$CUT
 10
622.2974787723949
 20
232.1659297466683
 30
0.0
  0
VERTEX
  5
3E2
  8
FAB$CUT
 10
624.0961059901932
 20
232.7724446549884
 30
0.0
  0
VERTEX
  5
3E3
  8
FAB$CUT
 10
627.7740061147063
 20
233.8994940427612
 30
0.0
  0
VERTEX
  5
3E4
  8
FAB$CUT
 10
646.8729497258321
 20
238.971368351099
 30
0.0
  0
VERTEX
  5
3E5
  8
FAB$CUT
 10
650.6400333372042
 20
240.1221041213621
 30
0.0
  0
VERTEX
  5
3E6
  8
FAB$CUT
 10
652.4944002342893
 20
240.7434230187387
 30
0.0
  0
VERTEX
  5
3E7
  8
FAB$CUT
 10
654.3246840087701
 20
241.4013053393905
 30
0.0
  0
VERTEX
  5
3E8
  8
FAB$CUT
 10
656.1274097729934
 20
242.1001981446516
 30
0.0
  0
VERTEX
  5
3E9
  8
FAB$CUT
 10
657.8991026393064
 20
242.8445484958559
 30
0.0
  0
VERTEX
  5
3EA
  8
FAB$CUT
 10
659.6362877200562
 20
243.6388034543372
 30
0.0
  0
VERTEX
  5
3EB
  8
FAB$CUT
 10
660.4908539384533
 20
244.0560348679737
 30
0.0
  0
VERTEX
  5
3EC
  8
FAB$CUT
 10
661.3354901275897
 20
244.4874100814297
 30
0.0
  0
VERTEX
  5
3ED
  8
FAB$CUT
 10
662.1697619265087
 20
244.9334849773719
 30
0.0
  0
VERTEX
  5
3EE
  8
FAB$CUT
 10
662.9932349742538
 20
245.394815438467
 30
0.0
  0
VERTEX
  5
3EF
  8
FAB$CUT
 10
663.8054749098685
 20
245.871957347382
 30
0.0
  0
VERTEX
  5
3F0
  8
FAB$CUT
 10
664.606047372396
 20
246.3654665867834
 30
0.0
  0
VERTEX
  5
3F1
  8
FAB$CUT
 10
665.3945180008795
 20
246.875899039338
 30
0.0
  0
VERTEX
  5
3F2
  8
FAB$CUT
 10
666.1704524343629
 20
247.4038105877126
 30
0.0
  0
VERTEX
  5
3F3
  8
FAB$CUT
 10
666.9334163118892
 20
247.9497571145739
 30
0.0
  0
VERTEX
  5
3F4
  8
FAB$CUT
 10
667.682975272502
 20
248.5142945025887
 30
0.0
  0
VERTEX
  5
3F5
  8
FAB$CUT
 10
668.4188067929991
 20
249.0977878384876
 30
0.0
  0
VERTEX
  5
3F6
  8
FAB$CUT
 10
669.1410357011982
 20
249.6998390252576
 30
0.0
  0
VERTEX
  5
3F7
  8
FAB$CUT
 10
669.8498986626712
 20
250.3198591699496
 30
0.0
  0
VERTEX
  5
3F8
  8
FAB$CUT
 10
670.5456323429898
 20
250.9572593796145
 30
0.0
  0
VERTEX
  5
3F9
  8
FAB$CUT
 10
671.2284734077266
 20
251.6114507613031
 30
0.0
  0
VERTEX
  5
3FA
  8
FAB$CUT
 10
671.8986585224534
 20
252.2818444220663
 30
0.0
  0
VERTEX
  5
3FB
  8
FAB$CUT
 10
672.5564243527423
 20
252.9678514689551
 30
0.0
  0
VERTEX
  5
3FC
  8
FAB$CUT
 10
673.2020075641653
 20
253.6688830090204
 30
0.0
  0
VERTEX
  5
3FD
  8
FAB$CUT
 10
673.8356448222946
 20
254.3843501493129
 30
0.0
  0
VERTEX
  5
3FE
  8
FAB$CUT
 10
674.4575727927022
 20
255.1136639968836
 30
0.0
  0
VERTEX
  5
3FF
  8
FAB$CUT
 10
675.6672475326404
 20
256.6114762420633
 30
0.0
  0
VERTEX
  5
400
  8
FAB$CUT
 10
676.8329251085563
 20
258.1576086009665
 30
0.0
  0
VERTEX
  5
401
  8
FAB$CUT
 10
677.9564988450265
 20
259.7473499300002
 30
0.0
  0
VERTEX
  5
402
  8
FAB$CUT
 10
679.0398620666274
 20
261.3759890855717
 30
0.0
  0
VERTEX
  5
403
  8
FAB$CUT
 10
680.0849080979356
 20
263.0388149240882
 30
0.0
  0
VERTEX
  5
404
  8
FAB$CUT
 10
681.0935302635273
 20
264.7311163019567
 30
0.0
  0
VERTEX
  5
405
  8
FAB$CUT
 10
682.0676218879793
 20
266.4481820755842
 30
0.0
  0
VERTEX
  5
406
  8
FAB$CUT
 10
683.9197868117693
 20
269.9377622357453
 30
0.0
  0
VERTEX
  5
407
  8
FAB$CUT
 10
685.6565494659174
 20
273.4698662558283
 30
0.0
  0
VERTEX
  5
408
  8
FAB$CUT
 10
688.8444543517347
 20
280.5108892807885
 30
0.0
  0
VERTEX
  5
409
  8
FAB$CUT
 10
694.5018871385819
 20
293.4448991050817
 30
0.0
  0
VERTEX
  5
40A
  8
FAB$CUT
 10
695.8549386103647
 20
296.2193739798151
 30
0.0
  0
VERTEX
  5
40B
  8
FAB$CUT
 10
696.5326816226873
 20
297.51184599022
 30
0.0
  0
VERTEX
  5
40C
  8
FAB$CUT
 10
697.2137605853993
 20
298.7348595245265
 30
0.0
  0
VERTEX
  5
40D
  8
FAB$CUT
 10
697.8997426211059
 20
299.8848749298432
 30
0.0
  0
VERTEX
  5
40E
  8
FAB$CUT
 10
698.5908900445277
 20
300.9630385160841
 30
0.0
  0
VERTEX
  5
40F
  8
FAB$CUT
 10
698.9383808118656
 20
301.4759001897434
 30
0.0
  0
VERTEX
  5
410
  8
FAB$CUT
 10
699.2871389684133
 20
301.9716680838644
 30
0.0
  0
VERTEX
  5
411
  8
FAB$CUT
 10
699.6371565282641
 20
302.4506319235241
 30
0.0
  0
VERTEX
  5
412
  8
FAB$CUT
 10
699.9884255055117
 20
302.9130814337994
 30
0.0
  0
VERTEX
  5
413
  8
FAB$CUT
 10
700.3409379142499
 20
303.3593063397674
 30
0.0
  0
VERTEX
  5
414
  8
FAB$CUT
 10
700.6946857685721
 20
303.7895963665047
 30
0.0
  0
VERTEX
  5
415
  8
FAB$CUT
 10
701.0496610825721
 20
304.2042412390884
 30
0.0
  0
VERTEX
  5
416
  8
FAB$CUT
 10
701.4058558703435
 20
304.6035306825955
 30
0.0
  0
VERTEX
  5
417
  8
FAB$CUT
 10
701.76326214598
 20
304.9877544221028
 30
0.0
  0
VERTEX
  5
418
  8
FAB$CUT
 10
702.121871923575
 20
305.3572021826872
 30
0.0
  0
VERTEX
  5
419
  8
FAB$CUT
 10
702.4816772172222
 20
305.7121636894257
 30
0.0
  0
VERTEX
  5
41A
  8
FAB$CUT
 10
702.8426700410155
 20
306.0529286673951
 30
0.0
  0
VERTEX
  5
41B
  8
FAB$CUT
 10
703.2048424090483
 20
306.3797868416724
 30
0.0
  0
VERTEX
  5
41C
  8
FAB$CUT
 10
703.5681863354141
 20
306.6930279373345
 30
0.0
  0
VERTEX
  5
41D
  8
FAB$CUT
 10
703.9326938342066
 20
306.9929416794583
 30
0.0
  0
VERTEX
  5
41E
  8
FAB$CUT
 10
704.2983569195196
 20
307.2798177931209
 30
0.0
  0
VERTEX
  5
41F
  8
FAB$CUT
 10
704.6651676054466
 20
307.5539460033989
 30
0.0
  0
VERTEX
  5
420
  8
FAB$CUT
 10
705.0331179060812
 20
307.8156160353695
 30
0.0
  0
VERTEX
  5
421
  8
FAB$CUT
 10
705.4021998355171
 20
308.0651176141096
 30
0.0
  0
VERTEX
  5
422
  8
FAB$CUT
 10
705.7724054078478
 20
308.3027404646958
 30
0.0
  0
VERTEX
  5
423
  8
FAB$CUT
 10
706.1437266371672
 20
308.5287743122054
 30
0.0
  0
VERTEX
  5
424
  8
FAB$CUT
 10
706.5161555375687
 20
308.7435088817151
 30
0.0
  0
VERTEX
  5
425
  8
FAB$CUT
 10
706.889684123146
 20
308.9472338983019
 30
0.0
  0
VERTEX
  5
426
  8
FAB$CUT
 10
707.2643044079928
 20
309.1402390870427
 30
0.0
  0
VERTEX
  5
427
  8
FAB$CUT
 10
707.6400084062026
 20
309.3228141730144
 30
0.0
  0
VERTEX
  5
428
  8
FAB$CUT
 10
708.0167881318689
 20
309.4952488812939
 30
0.0
  0
VERTEX
  5
429
  8
FAB$CUT
 10
708.3946355990856
 20
309.6578329369582
 30
0.0
  0
VERTEX
  5
42A
  8
FAB$CUT
 10
708.7735428219463
 20
309.8108560650843
 30
0.0
  0
VERTEX
  5
42B
  8
FAB$CUT
 10
709.1535018145445
 20
309.9546079907489
 30
0.0
  0
VERTEX
  5
42C
  8
FAB$CUT
 10
709.5345045909738
 20
310.089378439029
 30
0.0
  0
VERTEX
  5
42D
  8
FAB$CUT
 10
709.916543165328
 20
310.2154571350015
 30
0.0
  0
VERTEX
  5
42E
  8
FAB$CUT
 10
710.2996095517005
 20
310.3331338037434
 30
0.0
  0
VERTEX
  5
42F
  8
FAB$CUT
 10
710.6836957641852
 20
310.4426981703315
 30
0.0
  0
VERTEX
  5
430
  8
FAB$CUT
 10
711.0687938168755
 20
310.5444399598429
 30
0.0
  0
VERTEX
  5
431
  8
FAB$CUT
 10
711.4548957238651
 20
310.6386488973544
 30
0.0
  0
VERTEX
  5
432
  8
FAB$CUT
 10
711.8419934992478
 20
310.7256147079429
 30
0.0
  0
VERTEX
  5
433
  8
FAB$CUT
 10
712.6191447115663
 20
310.8789758486586
 30
0.0
  0
VERTEX
  5
434
  8
FAB$CUT
 10
713.40018356658
 20
311.0068411826055
 30
0.0
  0
VERTEX
  5
435
  8
FAB$CUT
 10
714.1850461770382
 20
311.1115285103988
 30
0.0
  0
VERTEX
  5
436
  8
FAB$CUT
 10
714.9736686556896
 20
311.195355632654
 30
0.0
  0
VERTEX
  5
437
  8
FAB$CUT
 10
715.7659871152833
 20
311.2606403499864
 30
0.0
  0
VERTEX
  5
438
  8
FAB$CUT
 10
716.5619376685684
 20
311.3097004630114
 30
0.0
  0
VERTEX
  5
439
  8
FAB$CUT
 10
718.1644795072089
 20
311.3684180786003
 30
0.0
  0
VERTEX
  5
43A
  8
FAB$CUT
 10
758.9667839155893
 20
311.3931412851639
 30
0.0
  0
SEQEND
  5
43B
  8
FAB$CUT
  0
POLYLINE
  5
43C
  8
FAB$ENGRAVE
 66
     1
 10
0.0
 20
0.0
 30
0.0
 70
     1
  0
VERTEX
  5
43D
  8
FAB$ENGRAVE
 10
666.2567839155893
 20
15.65462982663734
 30
0.0
  0
VERTEX
  5
43E
  8
FAB$ENGRAVE
 10
851.6767839155895
 20
15.65462982663734
 30
0.0
  0
VERTEX
  5
43F
  8
FAB$ENGRAVE
 10
851.6767839155895
 20
140.1146298266373
 30
0.0
  0
VERTEX
  5
440
  8
FAB$ENGRAVE
 10
666.2567839155893
 20
140.1146298266373
 30
0.0
  0
SEQEND
  5
441
  8
FAB$ENGRAVE
  0
POLYLINE
  5
442
  8
FAB$CUT
 66
     1
 10
0.0
 20
0.0
 30
0.0
 70
     1
  0
VERTEX
  5
443
  8
FAB$CUT
 10
690.5328577321532
 20
146.4646298266374
 30
0.0
  0
VERTEX
  5
444
  8
FAB$CUT
 10
684.1828577321531
 20
146.4646298266374
 30
0.0
  0
VERTEX
  5
445
  8
FAB$CUT
 10
684.1828577321531
 20
143.2896298266374
 30
0.0
  0
VERTEX
  5
446
  8
FAB$CUT
 10
690.5328577321532
 20
143.2896298266374
 30
0.0
  0
SEQEND
  5
447
  8
FAB$CUT
  0
POLYLINE
  5
448
  8
FAB$CUT
 66
     1
 10
0.0
 20
0.0
 30
0.0
 70
     1
  0
VERTEX
  5
449
  8
FAB$CUT
 10
690.5328577321532
 20
9.304629826637386
 30
0.0
  0
VERTEX
  5
44A
  8
FAB$CUT
 10
684.1828577321531
 20
9.304629826637386
 30
0.0
  0
VERTEX
  5
44B
  8
FAB$CUT
 10
684.1828577321531
 20
12.47962982663739
 30
0.0
  0
VERTEX
  5
44C
  8
FAB$CUT
 10
690.5328577321532
 20
12.47962982663739
 30
0.0
  0
SEQEND
  5
44D
  8
FAB$CUT
  0
POLYLINE
  5
44E
  8
FAB$CUT
 66
     1
 10
0.0
 20
0.0
 30
0.0
 70
     1
  0
VERTEX
  5
44F
  8
FAB$CUT
 10
827.4007100990256
 20
9.304629826637386
 30
0.0
  0
VERTEX
  5
450
  8
FAB$CUT
 10
833.7507100990256
 20
9.304629826637386
 30
0.0
  0
VERTEX
  5
451
  8
FAB$CUT
 10
833.7507100990256
 20
12.47962982663739
 30
0.0
  0
VERTEX
  5
452
  8
FAB$CUT
 10
827.4007100990256
 20
12.47962982663739
 30
0.0
  0
SEQEND
  5
453
  8
FAB$CUT
  0
POLYLINE
  5
454
  8
FAB$CUT
 66
     1
 10
0.0
 20
0.0
 30
0.0
 70
     1
  0
VERTEX
  5
455
  8
FAB$CUT
 10
827.4007100990256
 20
146.4646298266374
 30
0.0
  0
VERTEX
  5
456
  8
FAB$CUT
 10
833.7507100990256
 20
146.4646298266374
 30
0.0
  0
VERTEX
  5
457
  8
FAB$CUT
 10
833.7507100990256
 20
143.2896298266374
 30
0.0
  0
VERTEX
  5
458
  8
FAB$CUT
 10
827.4007100990256
 20
143.2896298266374
 30
0.0
  0
SEQEND
  5
459
  8
FAB$CUT
  0
POLYLINE
  5
45A
  8
FAB$CUT
 66
     1
 10
0.0
 20
0.0
 30
0.0
 70
     1
  0
VERTEX
  5
45B
  8
FAB$CUT
 10
714.5167839155893
 20
224.2711412851638
 30
0.0
  0
VERTEX
  5
45C
  8
FAB$CUT
 10
714.5167839155893
 20
230.6211412851638
 30
0.0
  0
VERTEX
  5
45D
  8
FAB$CUT
 10
717.6917839155892
 20
230.6211412851638
 30
0.0
  0
VERTEX
  5
45E
  8
FAB$CUT
 10
717.6917839155892
 20
224.2711412851638
 30
0.0
  0
SEQEND
  5
45F
  8
FAB$CUT
  0
POLYLINE
  5
460
  8
FAB$CUT
 66
     1
 10
0.0
 20
0.0
 30
0.0
 70
     1
  0
VERTEX
  5
461
  8
FAB$CUT
 10
803.4167839155891
 20
224.2711412851638
 30
0.0
  0
VERTEX
  5
462
  8
FAB$CUT
 10
803.4167839155891
 20
230.6211412851638
 30
0.0
  0
VERTEX
  5
463
  8
FAB$CUT
 10
800.2417839155892
 20
230.6211412851638
 30
0.0
  0
VERTEX
  5
464
  8
FAB$CUT
 10
800.2417839155892
 20
224.2711412851638
 30
0.0
  0
SEQEND
  5
465
  8
FAB$CUT
  0
POLYLINE
  5
466
  8
FAB$CUT
 66
     1
 10
0.0
 20
0.0
 30
0.0
 70
     1
  0
VERTEX
  5
467
  8
FAB$CUT
 10
803.4167839155891
 20
256.2751412851638
 30
0.0
  0
VERTEX
  5
468
  8
FAB$CUT
 10
803.4167839155891
 20
249.9251412851639
 30
0.0
  0
VERTEX
  5
469
  8
FAB$CUT
 10
800.2417839155892
 20
249.9251412851639
 30
0.0
  0
VERTEX
  5
46A
  8
FAB$CUT
 10
800.2417839155892
 20
256.2751412851638
 30
0.0
  0
SEQEND
  5
46B
  8
FAB$CUT
  0
POLYLINE
  5
46C
  8
FAB$CUT
 66
     1
 10
0.0
 20
0.0
 30
0.0
 70
     1
  0
VERTEX
  5
46D
  8
FAB$CUT
 10
714.5167839155893
 20
256.2751412851638
 30
0.0
  0
VERTEX
  5
46E
  8
FAB$CUT
 10
714.5167839155893
 20
249.9251412851639
 30
0.0
  0
VERTEX
  5
46F
  8
FAB$CUT
 10
717.6917839155892
 20
249.9251412851639
 30
0.0
  0
VERTEX
  5
470
  8
FAB$CUT
 10
717.6917839155892
 20
256.2751412851638
 30
0.0
  0
SEQEND
  5
471
  8
FAB$CUT
  0
ENDSEC
  0
EOF
